%TF.GenerationSoftware,KiCad,Pcbnew,9.0.7*%
%TF.CreationDate,2026-02-16T18:04:32-06:00*%
%TF.ProjectId,326pcb,33323670-6362-42e6-9b69-6361645f7063,rev?*%
%TF.SameCoordinates,Original*%
%TF.FileFunction,Paste,Top*%
%TF.FilePolarity,Positive*%
%FSLAX46Y46*%
G04 Gerber Fmt 4.6, Leading zero omitted, Abs format (unit mm)*
G04 Created by KiCad (PCBNEW 9.0.7) date 2026-02-16 18:04:32*
%MOMM*%
%LPD*%
G01*
G04 APERTURE LIST*
G04 Aperture macros list*
%AMRoundRect*
0 Rectangle with rounded corners*
0 $1 Rounding radius*
0 $2 $3 $4 $5 $6 $7 $8 $9 X,Y pos of 4 corners*
0 Add a 4 corners polygon primitive as box body*
4,1,4,$2,$3,$4,$5,$6,$7,$8,$9,$2,$3,0*
0 Add four circle primitives for the rounded corners*
1,1,$1+$1,$2,$3*
1,1,$1+$1,$4,$5*
1,1,$1+$1,$6,$7*
1,1,$1+$1,$8,$9*
0 Add four rect primitives between the rounded corners*
20,1,$1+$1,$2,$3,$4,$5,0*
20,1,$1+$1,$4,$5,$6,$7,0*
20,1,$1+$1,$6,$7,$8,$9,0*
20,1,$1+$1,$8,$9,$2,$3,0*%
G04 Aperture macros list end*
%ADD10R,0.900000X0.900000*%
%ADD11R,0.900000X1.500000*%
%ADD12R,1.500000X0.900000*%
%ADD13RoundRect,0.250000X-0.450000X0.262500X-0.450000X-0.262500X0.450000X-0.262500X0.450000X0.262500X0*%
%ADD14RoundRect,0.218750X-0.256250X0.218750X-0.256250X-0.218750X0.256250X-0.218750X0.256250X0.218750X0*%
%ADD15RoundRect,0.250000X-0.250000X-0.475000X0.250000X-0.475000X0.250000X0.475000X-0.250000X0.475000X0*%
%ADD16RoundRect,0.250000X-0.475000X0.250000X-0.475000X-0.250000X0.475000X-0.250000X0.475000X0.250000X0*%
%ADD17RoundRect,0.218750X-0.218750X-0.256250X0.218750X-0.256250X0.218750X0.256250X-0.218750X0.256250X0*%
%ADD18RoundRect,0.250000X-0.262500X-0.450000X0.262500X-0.450000X0.262500X0.450000X-0.262500X0.450000X0*%
%ADD19RoundRect,0.250000X0.250000X0.475000X-0.250000X0.475000X-0.250000X-0.475000X0.250000X-0.475000X0*%
%ADD20RoundRect,0.116250X-0.873750X-0.348750X0.873750X-0.348750X0.873750X0.348750X-0.873750X0.348750X0*%
%ADD21RoundRect,0.247500X-0.742500X-1.367500X0.742500X-1.367500X0.742500X1.367500X-0.742500X1.367500X0*%
%ADD22RoundRect,0.250000X0.262500X0.450000X-0.262500X0.450000X-0.262500X-0.450000X0.262500X-0.450000X0*%
%ADD23RoundRect,0.250000X0.475000X-0.250000X0.475000X0.250000X-0.475000X0.250000X-0.475000X-0.250000X0*%
%ADD24RoundRect,0.033750X0.701250X0.101250X-0.701250X0.101250X-0.701250X-0.101250X0.701250X-0.101250X0*%
%ADD25RoundRect,0.033750X0.101250X0.701250X-0.101250X0.701250X-0.101250X-0.701250X0.101250X-0.701250X0*%
%ADD26RoundRect,0.218750X-0.218750X-0.381250X0.218750X-0.381250X0.218750X0.381250X-0.218750X0.381250X0*%
%ADD27R,2.000000X2.000000*%
%ADD28R,1.900000X2.600000*%
G04 APERTURE END LIST*
D10*
%TO.C,U2*%
X160380000Y-61170000D03*
X158980000Y-61170000D03*
X157580000Y-61170000D03*
X160380000Y-62570000D03*
X158980000Y-62570000D03*
X157580000Y-62570000D03*
X160380000Y-63970000D03*
X158980000Y-63970000D03*
X157580000Y-63970000D03*
D11*
X151260000Y-52320000D03*
X152530000Y-52320000D03*
X153800000Y-52320000D03*
X155070000Y-52320000D03*
X156340000Y-52320000D03*
X157610000Y-52320000D03*
X158880000Y-52320000D03*
X160150000Y-52320000D03*
X161420000Y-52320000D03*
X162690000Y-52320000D03*
X163960000Y-52320000D03*
X165230000Y-52320000D03*
X166500000Y-52320000D03*
X167770000Y-52320000D03*
D12*
X169020000Y-55355000D03*
X169020000Y-56625000D03*
X169020000Y-57895000D03*
X169020000Y-59165000D03*
X169020000Y-60435000D03*
X169020000Y-61705000D03*
X169020000Y-62975000D03*
X169020000Y-64245000D03*
X169020000Y-65515000D03*
X169020000Y-66785000D03*
D11*
X167770000Y-69820000D03*
X166500000Y-69820000D03*
X165230000Y-69820000D03*
X163960000Y-69820000D03*
X162690000Y-69820000D03*
X161420000Y-69820000D03*
X160150000Y-69820000D03*
X158880000Y-69820000D03*
X157610000Y-69820000D03*
X156340000Y-69820000D03*
X155070000Y-69820000D03*
X153800000Y-69820000D03*
X152530000Y-69820000D03*
X151260000Y-69820000D03*
%TD*%
D13*
%TO.C,R8*%
X168520000Y-72457500D03*
X168520000Y-74282500D03*
%TD*%
D14*
%TO.C,WS*%
X164170000Y-73280000D03*
X164170000Y-74855000D03*
%TD*%
%TO.C,AP*%
X170690000Y-72742500D03*
X170690000Y-74317500D03*
%TD*%
D15*
%TO.C,C10*%
X153750000Y-72350000D03*
X155650000Y-72350000D03*
%TD*%
D16*
%TO.C,C12*%
X175720000Y-79510000D03*
X175720000Y-81410000D03*
%TD*%
D13*
%TO.C,R6*%
X162200000Y-72437500D03*
X162200000Y-74262500D03*
%TD*%
D17*
%TO.C,D4*%
X179287500Y-75000000D03*
X177712500Y-75000000D03*
%TD*%
D13*
%TO.C,R7*%
X166200000Y-72437500D03*
X166200000Y-74262500D03*
%TD*%
D16*
%TO.C,C11*%
X164210000Y-78300000D03*
X164210000Y-80200000D03*
%TD*%
D18*
%TO.C,R10*%
X179412500Y-78000000D03*
X177587500Y-78000000D03*
%TD*%
%TO.C,R3*%
X176837500Y-67500000D03*
X178662500Y-67500000D03*
%TD*%
D19*
%TO.C,C9*%
X177550000Y-71250000D03*
X179450000Y-71250000D03*
%TD*%
D16*
%TO.C,C14*%
X151440000Y-74067500D03*
X151440000Y-75967500D03*
%TD*%
D14*
%TO.C,Net*%
X160200000Y-73280000D03*
X160200000Y-74855000D03*
%TD*%
D20*
%TO.C,U3*%
X167105000Y-76340000D03*
X167105000Y-78640000D03*
X167105000Y-80940000D03*
D21*
X173135000Y-78640000D03*
%TD*%
D22*
%TO.C,R2*%
X194162500Y-55000000D03*
X192337500Y-55000000D03*
%TD*%
D23*
%TO.C,C16*%
X187500000Y-56200000D03*
X187500000Y-54300000D03*
%TD*%
D22*
%TO.C,R1*%
X197412500Y-76500000D03*
X195587500Y-76500000D03*
%TD*%
D19*
%TO.C,C15*%
X184450000Y-75500000D03*
X182550000Y-75500000D03*
%TD*%
%TO.C,C6*%
X197450000Y-78750000D03*
X195550000Y-78750000D03*
%TD*%
D23*
%TO.C,C5*%
X193000000Y-75700000D03*
X193000000Y-73800000D03*
%TD*%
D19*
%TO.C,C4*%
X198450000Y-59000000D03*
X196550000Y-59000000D03*
%TD*%
D24*
%TO.C,U1*%
X192670000Y-69750000D03*
X192669999Y-69250000D03*
X192669999Y-68750000D03*
X192670000Y-68250000D03*
X192670000Y-67749999D03*
X192670000Y-67250000D03*
X192670000Y-66750001D03*
X192670000Y-66250000D03*
X192670000Y-65750000D03*
X192670000Y-65249999D03*
X192670001Y-64749999D03*
X192670000Y-64250001D03*
X192670000Y-63750000D03*
X192670000Y-63250000D03*
X192669999Y-62750000D03*
X192669999Y-62249999D03*
D25*
X190750000Y-60330000D03*
X190250000Y-60330001D03*
X189750000Y-60330001D03*
X189250000Y-60330000D03*
X188749999Y-60330000D03*
X188250000Y-60330000D03*
X187750001Y-60330000D03*
X187250000Y-60330000D03*
X186750000Y-60330000D03*
X186249999Y-60330000D03*
X185749999Y-60329999D03*
X185250001Y-60330000D03*
X184750000Y-60330000D03*
X184250000Y-60330000D03*
X183750000Y-60330001D03*
X183249999Y-60330001D03*
D24*
X181330000Y-62250000D03*
X181330001Y-62750000D03*
X181330001Y-63250000D03*
X181330000Y-63750000D03*
X181330000Y-64250001D03*
X181330000Y-64750000D03*
X181330000Y-65249999D03*
X181330000Y-65750000D03*
X181330000Y-66250000D03*
X181330000Y-66750001D03*
X181329999Y-67250001D03*
X181330000Y-67749999D03*
X181330000Y-68250000D03*
X181330000Y-68750000D03*
X181330001Y-69250000D03*
X181330001Y-69750001D03*
D25*
X183250000Y-71670000D03*
X183750000Y-71669999D03*
X184250000Y-71669999D03*
X184750000Y-71670000D03*
X185250001Y-71670000D03*
X185750000Y-71670000D03*
X186249999Y-71670000D03*
X186750000Y-71670000D03*
X187250000Y-71670000D03*
X187750001Y-71670000D03*
X188250001Y-71670001D03*
X188749999Y-71670000D03*
X189250000Y-71670000D03*
X189750000Y-71670000D03*
X190250000Y-71669999D03*
X190750001Y-71669999D03*
%TD*%
D23*
%TO.C,C2*%
X196250000Y-72200000D03*
X196250000Y-70300000D03*
%TD*%
D16*
%TO.C,C7*%
X193750000Y-78050000D03*
X193750000Y-79950000D03*
%TD*%
D15*
%TO.C,C3*%
X196550000Y-61500000D03*
X198450000Y-61500000D03*
%TD*%
D19*
%TO.C,C1*%
X187950000Y-74500000D03*
X186050000Y-74500000D03*
%TD*%
D26*
%TO.C,L1*%
X195437500Y-74500000D03*
X197562500Y-74500000D03*
%TD*%
D13*
%TO.C,R5*%
X165500000Y-84337500D03*
X165500000Y-86162500D03*
%TD*%
D27*
%TO.C,J7*%
X152000000Y-92250000D03*
X163000000Y-92250000D03*
X163000000Y-86100000D03*
X152000000Y-86100000D03*
%TD*%
D16*
%TO.C,C8*%
X182750000Y-78050000D03*
X182750000Y-79950000D03*
%TD*%
D18*
%TO.C,R4*%
X174037500Y-91960000D03*
X175862500Y-91960000D03*
%TD*%
D15*
%TO.C,C13*%
X192300000Y-58000000D03*
X194200000Y-58000000D03*
%TD*%
D18*
%TO.C,R9*%
X174037500Y-89710000D03*
X175862500Y-89710000D03*
%TD*%
D28*
%TO.C,Y1*%
X190650001Y-79000000D03*
X186349999Y-79000000D03*
%TD*%
M02*
