M48
; DRILL file {KiCad 9.0.7} date 2026-02-16T18:05:01-0600
; FORMAT={-:-/ absolute / metric / decimal}
; #@! TF.CreationDate,2026-02-16T18:05:01-06:00
; #@! TF.GenerationSoftware,Kicad,Pcbnew,9.0.7
; #@! TF.FileFunction,Plated,1,2,PTH
FMAT,2
METRIC
; #@! TA.AperFunction,Plated,PTH,ViaDrill
T1C0.300
; #@! TA.AperFunction,Plated,PTH,ComponentDrill
T2C1.000
; #@! TA.AperFunction,Plated,PTH,ComponentDrill
T3C1.016
%
G90
G05
T1
X151.48Y-72.27
X153.17Y-74.25
X155.034Y-74.926
X155.07Y-73.93
X156.05Y-57.11
X156.995Y-50.895
X158.05Y-66.61
X159.37Y-47.51
X162.15Y-75.94
X162.82Y-79.98
X163.55Y-84.18
X165.37Y-76.34
X170.33Y-83.72
X170.44Y-89.57
X170.884Y-75.801
X171.81Y-68.53
X172.38Y-62.4
X172.58Y-72.7
X172.62Y-66.89
X173.28Y-49.83
X173.46Y-81.25
X173.75Y-84.0
X173.88Y-59.68
X173.92Y-62.85
X174.09Y-66.31
X174.26Y-48.96
X174.76Y-58.93
X174.89Y-72.71
X174.92Y-67.83
X174.93Y-48.0
X175.7Y-58.47
X175.73Y-47.37
X175.86Y-57.5
X176.56Y-72.25
X176.64Y-46.11
X176.65Y-74.684
X177.68Y-87.44
X177.7Y-92.12
X177.74Y-45.87
X177.75Y-55.25
X177.75Y-66.25
X177.94Y-69.81
X178.47Y-44.8
X178.64Y-69.2
X178.79Y-72.99
X179.5Y-46.73
X179.5Y-53.16
X179.675Y-67.85
X179.75Y-64.5
X179.84Y-88.95
X180.25Y-51.0
X181.05Y-74.61
X181.74Y-89.7
X181.75Y-54.25
X181.795Y-73.222
X182.5Y-51.4
X182.565Y-65.857
X182.579Y-88.841
X183.25Y-52.71
X183.25Y-64.25
X183.8Y-66.7
X184.1Y-52.05
X184.932Y-72.908
X185.25Y-50.15
X185.25Y-55.85
X185.5Y-57.5
X185.75Y-72.75
X186.0Y-56.75
X186.11Y-84.06
X186.824Y-57.5
X187.25Y-61.75
X187.25Y-64.25
X187.4Y-52.75
X187.5Y-68.5
X187.818Y-72.791
X188.15Y-57.85
X188.25Y-58.75
X188.35Y-50.75
X188.65Y-69.25
X188.65Y-72.9
X188.9Y-56.93
X188.93Y-53.51
X189.25Y-62.25
X189.65Y-50.25
X189.701Y-53.951
X190.0Y-52.0
X190.25Y-59.0
X190.276Y-55.876
X190.5Y-66.75
X190.53Y-85.84
X191.0Y-63.75
X191.049Y-59.049
X191.75Y-60.5
X192.031Y-53.469
X192.4Y-80.6
X192.5Y-56.6
X192.5Y-71.0
X192.5Y-72.75
X192.75Y-47.1
X193.725Y-56.18
X194.25Y-59.25
X194.25Y-65.5
X194.79Y-68.15
X194.9Y-61.5
X195.49Y-83.31
X195.5Y-54.75
X195.5Y-57.75
X195.75Y-52.75
X195.75Y-64.85
X195.75Y-67.75
X196.45Y-78.8
X196.6Y-62.8
X197.5Y-70.25
X198.5Y-50.25
T2
X154.38Y-77.5
X154.38Y-80.25
X156.92Y-77.5
X156.92Y-80.25
X159.46Y-77.5
X159.46Y-80.25
X184.19Y-89.31
X184.19Y-92.08
X186.73Y-89.31
X186.73Y-92.08
X189.27Y-89.31
X189.27Y-92.08
X197.5Y-64.485
X197.5Y-67.025
T3
X167.71Y-85.25
X172.79Y-85.25
X175.96Y-85.25
X181.04Y-85.25
X184.21Y-84.5
X189.29Y-84.5
X191.96Y-84.4
X197.04Y-84.4
M30
