%TF.GenerationSoftware,KiCad,Pcbnew,9.0.7*%
%TF.CreationDate,2026-02-16T18:04:32-06:00*%
%TF.ProjectId,326pcb,33323670-6362-42e6-9b69-6361645f7063,rev?*%
%TF.SameCoordinates,Original*%
%TF.FileFunction,Legend,Top*%
%TF.FilePolarity,Positive*%
%FSLAX46Y46*%
G04 Gerber Fmt 4.6, Leading zero omitted, Abs format (unit mm)*
G04 Created by KiCad (PCBNEW 9.0.7) date 2026-02-16 18:04:32*
%MOMM*%
%LPD*%
G01*
G04 APERTURE LIST*
%ADD10C,0.150000*%
%ADD11C,0.300000*%
%ADD12C,0.120000*%
%ADD13C,0.127000*%
%ADD14C,0.200000*%
%ADD15C,0.100000*%
G04 APERTURE END LIST*
D10*
X177066667Y-74054819D02*
X177066667Y-73054819D01*
X177066667Y-73054819D02*
X177447619Y-73054819D01*
X177447619Y-73054819D02*
X177542857Y-73102438D01*
X177542857Y-73102438D02*
X177590476Y-73150057D01*
X177590476Y-73150057D02*
X177638095Y-73245295D01*
X177638095Y-73245295D02*
X177638095Y-73388152D01*
X177638095Y-73388152D02*
X177590476Y-73483390D01*
X177590476Y-73483390D02*
X177542857Y-73531009D01*
X177542857Y-73531009D02*
X177447619Y-73578628D01*
X177447619Y-73578628D02*
X177066667Y-73578628D01*
X177971429Y-73054819D02*
X178209524Y-74054819D01*
X178209524Y-74054819D02*
X178400000Y-73340533D01*
X178400000Y-73340533D02*
X178590476Y-74054819D01*
X178590476Y-74054819D02*
X178828572Y-73054819D01*
X179780952Y-74054819D02*
X179447619Y-73578628D01*
X179209524Y-74054819D02*
X179209524Y-73054819D01*
X179209524Y-73054819D02*
X179590476Y-73054819D01*
X179590476Y-73054819D02*
X179685714Y-73102438D01*
X179685714Y-73102438D02*
X179733333Y-73150057D01*
X179733333Y-73150057D02*
X179780952Y-73245295D01*
X179780952Y-73245295D02*
X179780952Y-73388152D01*
X179780952Y-73388152D02*
X179733333Y-73483390D01*
X179733333Y-73483390D02*
X179685714Y-73531009D01*
X179685714Y-73531009D02*
X179590476Y-73578628D01*
X179590476Y-73578628D02*
X179209524Y-73578628D01*
D11*
X157921653Y-45095912D02*
X158850225Y-45095912D01*
X158850225Y-45095912D02*
X158350225Y-45667341D01*
X158350225Y-45667341D02*
X158564510Y-45667341D01*
X158564510Y-45667341D02*
X158707368Y-45738769D01*
X158707368Y-45738769D02*
X158778796Y-45810198D01*
X158778796Y-45810198D02*
X158850225Y-45953055D01*
X158850225Y-45953055D02*
X158850225Y-46310198D01*
X158850225Y-46310198D02*
X158778796Y-46453055D01*
X158778796Y-46453055D02*
X158707368Y-46524484D01*
X158707368Y-46524484D02*
X158564510Y-46595912D01*
X158564510Y-46595912D02*
X158135939Y-46595912D01*
X158135939Y-46595912D02*
X157993082Y-46524484D01*
X157993082Y-46524484D02*
X157921653Y-46453055D01*
X159421653Y-45238769D02*
X159493081Y-45167341D01*
X159493081Y-45167341D02*
X159635939Y-45095912D01*
X159635939Y-45095912D02*
X159993081Y-45095912D01*
X159993081Y-45095912D02*
X160135939Y-45167341D01*
X160135939Y-45167341D02*
X160207367Y-45238769D01*
X160207367Y-45238769D02*
X160278796Y-45381626D01*
X160278796Y-45381626D02*
X160278796Y-45524484D01*
X160278796Y-45524484D02*
X160207367Y-45738769D01*
X160207367Y-45738769D02*
X159350224Y-46595912D01*
X159350224Y-46595912D02*
X160278796Y-46595912D01*
X161564510Y-45095912D02*
X161278795Y-45095912D01*
X161278795Y-45095912D02*
X161135938Y-45167341D01*
X161135938Y-45167341D02*
X161064510Y-45238769D01*
X161064510Y-45238769D02*
X160921652Y-45453055D01*
X160921652Y-45453055D02*
X160850224Y-45738769D01*
X160850224Y-45738769D02*
X160850224Y-46310198D01*
X160850224Y-46310198D02*
X160921652Y-46453055D01*
X160921652Y-46453055D02*
X160993081Y-46524484D01*
X160993081Y-46524484D02*
X161135938Y-46595912D01*
X161135938Y-46595912D02*
X161421652Y-46595912D01*
X161421652Y-46595912D02*
X161564510Y-46524484D01*
X161564510Y-46524484D02*
X161635938Y-46453055D01*
X161635938Y-46453055D02*
X161707367Y-46310198D01*
X161707367Y-46310198D02*
X161707367Y-45953055D01*
X161707367Y-45953055D02*
X161635938Y-45810198D01*
X161635938Y-45810198D02*
X161564510Y-45738769D01*
X161564510Y-45738769D02*
X161421652Y-45667341D01*
X161421652Y-45667341D02*
X161135938Y-45667341D01*
X161135938Y-45667341D02*
X160993081Y-45738769D01*
X160993081Y-45738769D02*
X160921652Y-45810198D01*
X160921652Y-45810198D02*
X160850224Y-45953055D01*
X163350223Y-45095912D02*
X163707366Y-46595912D01*
X163707366Y-46595912D02*
X163993080Y-45524484D01*
X163993080Y-45524484D02*
X164278795Y-46595912D01*
X164278795Y-46595912D02*
X164635938Y-45095912D01*
X165778795Y-46524484D02*
X165635938Y-46595912D01*
X165635938Y-46595912D02*
X165350224Y-46595912D01*
X165350224Y-46595912D02*
X165207366Y-46524484D01*
X165207366Y-46524484D02*
X165135938Y-46381626D01*
X165135938Y-46381626D02*
X165135938Y-45810198D01*
X165135938Y-45810198D02*
X165207366Y-45667341D01*
X165207366Y-45667341D02*
X165350224Y-45595912D01*
X165350224Y-45595912D02*
X165635938Y-45595912D01*
X165635938Y-45595912D02*
X165778795Y-45667341D01*
X165778795Y-45667341D02*
X165850224Y-45810198D01*
X165850224Y-45810198D02*
X165850224Y-45953055D01*
X165850224Y-45953055D02*
X165135938Y-46095912D01*
X166493080Y-46595912D02*
X166493080Y-45095912D01*
X166493080Y-45667341D02*
X166635938Y-45595912D01*
X166635938Y-45595912D02*
X166921652Y-45595912D01*
X166921652Y-45595912D02*
X167064509Y-45667341D01*
X167064509Y-45667341D02*
X167135938Y-45738769D01*
X167135938Y-45738769D02*
X167207366Y-45881626D01*
X167207366Y-45881626D02*
X167207366Y-46310198D01*
X167207366Y-46310198D02*
X167135938Y-46453055D01*
X167135938Y-46453055D02*
X167064509Y-46524484D01*
X167064509Y-46524484D02*
X166921652Y-46595912D01*
X166921652Y-46595912D02*
X166635938Y-46595912D01*
X166635938Y-46595912D02*
X166493080Y-46524484D01*
X168493081Y-46524484D02*
X168350223Y-46595912D01*
X168350223Y-46595912D02*
X168064509Y-46595912D01*
X168064509Y-46595912D02*
X167921652Y-46524484D01*
X167921652Y-46524484D02*
X167850223Y-46453055D01*
X167850223Y-46453055D02*
X167778795Y-46310198D01*
X167778795Y-46310198D02*
X167778795Y-45881626D01*
X167778795Y-45881626D02*
X167850223Y-45738769D01*
X167850223Y-45738769D02*
X167921652Y-45667341D01*
X167921652Y-45667341D02*
X168064509Y-45595912D01*
X168064509Y-45595912D02*
X168350223Y-45595912D01*
X168350223Y-45595912D02*
X168493081Y-45667341D01*
X169778795Y-46595912D02*
X169778795Y-45810198D01*
X169778795Y-45810198D02*
X169707366Y-45667341D01*
X169707366Y-45667341D02*
X169564509Y-45595912D01*
X169564509Y-45595912D02*
X169278795Y-45595912D01*
X169278795Y-45595912D02*
X169135937Y-45667341D01*
X169778795Y-46524484D02*
X169635937Y-46595912D01*
X169635937Y-46595912D02*
X169278795Y-46595912D01*
X169278795Y-46595912D02*
X169135937Y-46524484D01*
X169135937Y-46524484D02*
X169064509Y-46381626D01*
X169064509Y-46381626D02*
X169064509Y-46238769D01*
X169064509Y-46238769D02*
X169135937Y-46095912D01*
X169135937Y-46095912D02*
X169278795Y-46024484D01*
X169278795Y-46024484D02*
X169635937Y-46024484D01*
X169635937Y-46024484D02*
X169778795Y-45953055D01*
X170493080Y-46595912D02*
X170493080Y-45595912D01*
X170493080Y-45738769D02*
X170564509Y-45667341D01*
X170564509Y-45667341D02*
X170707366Y-45595912D01*
X170707366Y-45595912D02*
X170921652Y-45595912D01*
X170921652Y-45595912D02*
X171064509Y-45667341D01*
X171064509Y-45667341D02*
X171135938Y-45810198D01*
X171135938Y-45810198D02*
X171135938Y-46595912D01*
X171135938Y-45810198D02*
X171207366Y-45667341D01*
X171207366Y-45667341D02*
X171350223Y-45595912D01*
X171350223Y-45595912D02*
X171564509Y-45595912D01*
X171564509Y-45595912D02*
X171707366Y-45667341D01*
X171707366Y-45667341D02*
X171778795Y-45810198D01*
X171778795Y-45810198D02*
X171778795Y-46595912D01*
X173421652Y-45095912D02*
X173921652Y-46595912D01*
X173921652Y-46595912D02*
X174421652Y-45095912D01*
X175707366Y-46595912D02*
X174850223Y-46595912D01*
X175278794Y-46595912D02*
X175278794Y-45095912D01*
X175278794Y-45095912D02*
X175135937Y-45310198D01*
X175135937Y-45310198D02*
X174993080Y-45453055D01*
X174993080Y-45453055D02*
X174850223Y-45524484D01*
X176350222Y-46453055D02*
X176421651Y-46524484D01*
X176421651Y-46524484D02*
X176350222Y-46595912D01*
X176350222Y-46595912D02*
X176278794Y-46524484D01*
X176278794Y-46524484D02*
X176350222Y-46453055D01*
X176350222Y-46453055D02*
X176350222Y-46595912D01*
X177350223Y-45095912D02*
X177493080Y-45095912D01*
X177493080Y-45095912D02*
X177635937Y-45167341D01*
X177635937Y-45167341D02*
X177707366Y-45238769D01*
X177707366Y-45238769D02*
X177778794Y-45381626D01*
X177778794Y-45381626D02*
X177850223Y-45667341D01*
X177850223Y-45667341D02*
X177850223Y-46024484D01*
X177850223Y-46024484D02*
X177778794Y-46310198D01*
X177778794Y-46310198D02*
X177707366Y-46453055D01*
X177707366Y-46453055D02*
X177635937Y-46524484D01*
X177635937Y-46524484D02*
X177493080Y-46595912D01*
X177493080Y-46595912D02*
X177350223Y-46595912D01*
X177350223Y-46595912D02*
X177207366Y-46524484D01*
X177207366Y-46524484D02*
X177135937Y-46453055D01*
X177135937Y-46453055D02*
X177064508Y-46310198D01*
X177064508Y-46310198D02*
X176993080Y-46024484D01*
X176993080Y-46024484D02*
X176993080Y-45667341D01*
X176993080Y-45667341D02*
X177064508Y-45381626D01*
X177064508Y-45381626D02*
X177135937Y-45238769D01*
X177135937Y-45238769D02*
X177207366Y-45167341D01*
X177207366Y-45167341D02*
X177350223Y-45095912D01*
X157993082Y-47653685D02*
X158064510Y-47582257D01*
X158064510Y-47582257D02*
X158207368Y-47510828D01*
X158207368Y-47510828D02*
X158564510Y-47510828D01*
X158564510Y-47510828D02*
X158707368Y-47582257D01*
X158707368Y-47582257D02*
X158778796Y-47653685D01*
X158778796Y-47653685D02*
X158850225Y-47796542D01*
X158850225Y-47796542D02*
X158850225Y-47939400D01*
X158850225Y-47939400D02*
X158778796Y-48153685D01*
X158778796Y-48153685D02*
X157921653Y-49010828D01*
X157921653Y-49010828D02*
X158850225Y-49010828D01*
X160564510Y-47439400D02*
X159278796Y-49367971D01*
X161850225Y-49010828D02*
X160993082Y-49010828D01*
X161421653Y-49010828D02*
X161421653Y-47510828D01*
X161421653Y-47510828D02*
X161278796Y-47725114D01*
X161278796Y-47725114D02*
X161135939Y-47867971D01*
X161135939Y-47867971D02*
X160993082Y-47939400D01*
X163135939Y-47510828D02*
X162850224Y-47510828D01*
X162850224Y-47510828D02*
X162707367Y-47582257D01*
X162707367Y-47582257D02*
X162635939Y-47653685D01*
X162635939Y-47653685D02*
X162493081Y-47867971D01*
X162493081Y-47867971D02*
X162421653Y-48153685D01*
X162421653Y-48153685D02*
X162421653Y-48725114D01*
X162421653Y-48725114D02*
X162493081Y-48867971D01*
X162493081Y-48867971D02*
X162564510Y-48939400D01*
X162564510Y-48939400D02*
X162707367Y-49010828D01*
X162707367Y-49010828D02*
X162993081Y-49010828D01*
X162993081Y-49010828D02*
X163135939Y-48939400D01*
X163135939Y-48939400D02*
X163207367Y-48867971D01*
X163207367Y-48867971D02*
X163278796Y-48725114D01*
X163278796Y-48725114D02*
X163278796Y-48367971D01*
X163278796Y-48367971D02*
X163207367Y-48225114D01*
X163207367Y-48225114D02*
X163135939Y-48153685D01*
X163135939Y-48153685D02*
X162993081Y-48082257D01*
X162993081Y-48082257D02*
X162707367Y-48082257D01*
X162707367Y-48082257D02*
X162564510Y-48153685D01*
X162564510Y-48153685D02*
X162493081Y-48225114D01*
X162493081Y-48225114D02*
X162421653Y-48367971D01*
X164993081Y-47439400D02*
X163707367Y-49367971D01*
X165421653Y-47653685D02*
X165493081Y-47582257D01*
X165493081Y-47582257D02*
X165635939Y-47510828D01*
X165635939Y-47510828D02*
X165993081Y-47510828D01*
X165993081Y-47510828D02*
X166135939Y-47582257D01*
X166135939Y-47582257D02*
X166207367Y-47653685D01*
X166207367Y-47653685D02*
X166278796Y-47796542D01*
X166278796Y-47796542D02*
X166278796Y-47939400D01*
X166278796Y-47939400D02*
X166207367Y-48153685D01*
X166207367Y-48153685D02*
X165350224Y-49010828D01*
X165350224Y-49010828D02*
X166278796Y-49010828D01*
X167564510Y-47510828D02*
X167278795Y-47510828D01*
X167278795Y-47510828D02*
X167135938Y-47582257D01*
X167135938Y-47582257D02*
X167064510Y-47653685D01*
X167064510Y-47653685D02*
X166921652Y-47867971D01*
X166921652Y-47867971D02*
X166850224Y-48153685D01*
X166850224Y-48153685D02*
X166850224Y-48725114D01*
X166850224Y-48725114D02*
X166921652Y-48867971D01*
X166921652Y-48867971D02*
X166993081Y-48939400D01*
X166993081Y-48939400D02*
X167135938Y-49010828D01*
X167135938Y-49010828D02*
X167421652Y-49010828D01*
X167421652Y-49010828D02*
X167564510Y-48939400D01*
X167564510Y-48939400D02*
X167635938Y-48867971D01*
X167635938Y-48867971D02*
X167707367Y-48725114D01*
X167707367Y-48725114D02*
X167707367Y-48367971D01*
X167707367Y-48367971D02*
X167635938Y-48225114D01*
X167635938Y-48225114D02*
X167564510Y-48153685D01*
X167564510Y-48153685D02*
X167421652Y-48082257D01*
X167421652Y-48082257D02*
X167135938Y-48082257D01*
X167135938Y-48082257D02*
X166993081Y-48153685D01*
X166993081Y-48153685D02*
X166921652Y-48225114D01*
X166921652Y-48225114D02*
X166850224Y-48367971D01*
D10*
X163265238Y-71022319D02*
X163503333Y-72022319D01*
X163503333Y-72022319D02*
X163693809Y-71308033D01*
X163693809Y-71308033D02*
X163884285Y-72022319D01*
X163884285Y-72022319D02*
X164122381Y-71022319D01*
X164455714Y-71974700D02*
X164598571Y-72022319D01*
X164598571Y-72022319D02*
X164836666Y-72022319D01*
X164836666Y-72022319D02*
X164931904Y-71974700D01*
X164931904Y-71974700D02*
X164979523Y-71927080D01*
X164979523Y-71927080D02*
X165027142Y-71831842D01*
X165027142Y-71831842D02*
X165027142Y-71736604D01*
X165027142Y-71736604D02*
X164979523Y-71641366D01*
X164979523Y-71641366D02*
X164931904Y-71593747D01*
X164931904Y-71593747D02*
X164836666Y-71546128D01*
X164836666Y-71546128D02*
X164646190Y-71498509D01*
X164646190Y-71498509D02*
X164550952Y-71450890D01*
X164550952Y-71450890D02*
X164503333Y-71403271D01*
X164503333Y-71403271D02*
X164455714Y-71308033D01*
X164455714Y-71308033D02*
X164455714Y-71212795D01*
X164455714Y-71212795D02*
X164503333Y-71117557D01*
X164503333Y-71117557D02*
X164550952Y-71069938D01*
X164550952Y-71069938D02*
X164646190Y-71022319D01*
X164646190Y-71022319D02*
X164884285Y-71022319D01*
X164884285Y-71022319D02*
X165027142Y-71069938D01*
X169951905Y-71199104D02*
X170428095Y-71199104D01*
X169856667Y-71484819D02*
X170190000Y-70484819D01*
X170190000Y-70484819D02*
X170523333Y-71484819D01*
X170856667Y-71484819D02*
X170856667Y-70484819D01*
X170856667Y-70484819D02*
X171237619Y-70484819D01*
X171237619Y-70484819D02*
X171332857Y-70532438D01*
X171332857Y-70532438D02*
X171380476Y-70580057D01*
X171380476Y-70580057D02*
X171428095Y-70675295D01*
X171428095Y-70675295D02*
X171428095Y-70818152D01*
X171428095Y-70818152D02*
X171380476Y-70913390D01*
X171380476Y-70913390D02*
X171332857Y-70961009D01*
X171332857Y-70961009D02*
X171237619Y-71008628D01*
X171237619Y-71008628D02*
X170856667Y-71008628D01*
X151214819Y-80011904D02*
X152024342Y-80011904D01*
X152024342Y-80011904D02*
X152119580Y-79964285D01*
X152119580Y-79964285D02*
X152167200Y-79916666D01*
X152167200Y-79916666D02*
X152214819Y-79821428D01*
X152214819Y-79821428D02*
X152214819Y-79630952D01*
X152214819Y-79630952D02*
X152167200Y-79535714D01*
X152167200Y-79535714D02*
X152119580Y-79488095D01*
X152119580Y-79488095D02*
X152024342Y-79440476D01*
X152024342Y-79440476D02*
X151214819Y-79440476D01*
X152167200Y-79011904D02*
X152214819Y-78869047D01*
X152214819Y-78869047D02*
X152214819Y-78630952D01*
X152214819Y-78630952D02*
X152167200Y-78535714D01*
X152167200Y-78535714D02*
X152119580Y-78488095D01*
X152119580Y-78488095D02*
X152024342Y-78440476D01*
X152024342Y-78440476D02*
X151929104Y-78440476D01*
X151929104Y-78440476D02*
X151833866Y-78488095D01*
X151833866Y-78488095D02*
X151786247Y-78535714D01*
X151786247Y-78535714D02*
X151738628Y-78630952D01*
X151738628Y-78630952D02*
X151691009Y-78821428D01*
X151691009Y-78821428D02*
X151643390Y-78916666D01*
X151643390Y-78916666D02*
X151595771Y-78964285D01*
X151595771Y-78964285D02*
X151500533Y-79011904D01*
X151500533Y-79011904D02*
X151405295Y-79011904D01*
X151405295Y-79011904D02*
X151310057Y-78964285D01*
X151310057Y-78964285D02*
X151262438Y-78916666D01*
X151262438Y-78916666D02*
X151214819Y-78821428D01*
X151214819Y-78821428D02*
X151214819Y-78583333D01*
X151214819Y-78583333D02*
X151262438Y-78440476D01*
X151691009Y-77678571D02*
X151738628Y-77535714D01*
X151738628Y-77535714D02*
X151786247Y-77488095D01*
X151786247Y-77488095D02*
X151881485Y-77440476D01*
X151881485Y-77440476D02*
X152024342Y-77440476D01*
X152024342Y-77440476D02*
X152119580Y-77488095D01*
X152119580Y-77488095D02*
X152167200Y-77535714D01*
X152167200Y-77535714D02*
X152214819Y-77630952D01*
X152214819Y-77630952D02*
X152214819Y-78011904D01*
X152214819Y-78011904D02*
X151214819Y-78011904D01*
X151214819Y-78011904D02*
X151214819Y-77678571D01*
X151214819Y-77678571D02*
X151262438Y-77583333D01*
X151262438Y-77583333D02*
X151310057Y-77535714D01*
X151310057Y-77535714D02*
X151405295Y-77488095D01*
X151405295Y-77488095D02*
X151500533Y-77488095D01*
X151500533Y-77488095D02*
X151595771Y-77535714D01*
X151595771Y-77535714D02*
X151643390Y-77583333D01*
X151643390Y-77583333D02*
X151691009Y-77678571D01*
X151691009Y-77678571D02*
X151691009Y-78011904D01*
X159200000Y-72022319D02*
X159200000Y-71022319D01*
X159200000Y-71022319D02*
X159771428Y-72022319D01*
X159771428Y-72022319D02*
X159771428Y-71022319D01*
X160628571Y-71974700D02*
X160533333Y-72022319D01*
X160533333Y-72022319D02*
X160342857Y-72022319D01*
X160342857Y-72022319D02*
X160247619Y-71974700D01*
X160247619Y-71974700D02*
X160200000Y-71879461D01*
X160200000Y-71879461D02*
X160200000Y-71498509D01*
X160200000Y-71498509D02*
X160247619Y-71403271D01*
X160247619Y-71403271D02*
X160342857Y-71355652D01*
X160342857Y-71355652D02*
X160533333Y-71355652D01*
X160533333Y-71355652D02*
X160628571Y-71403271D01*
X160628571Y-71403271D02*
X160676190Y-71498509D01*
X160676190Y-71498509D02*
X160676190Y-71593747D01*
X160676190Y-71593747D02*
X160200000Y-71688985D01*
X160961905Y-71355652D02*
X161342857Y-71355652D01*
X161104762Y-71022319D02*
X161104762Y-71879461D01*
X161104762Y-71879461D02*
X161152381Y-71974700D01*
X161152381Y-71974700D02*
X161247619Y-72022319D01*
X161247619Y-72022319D02*
X161342857Y-72022319D01*
X183124819Y-87250475D02*
X182124819Y-87250475D01*
X182124819Y-87250475D02*
X182124819Y-86869523D01*
X182124819Y-86869523D02*
X182172438Y-86774285D01*
X182172438Y-86774285D02*
X182220057Y-86726666D01*
X182220057Y-86726666D02*
X182315295Y-86679047D01*
X182315295Y-86679047D02*
X182458152Y-86679047D01*
X182458152Y-86679047D02*
X182553390Y-86726666D01*
X182553390Y-86726666D02*
X182601009Y-86774285D01*
X182601009Y-86774285D02*
X182648628Y-86869523D01*
X182648628Y-86869523D02*
X182648628Y-87250475D01*
X183124819Y-85679047D02*
X182648628Y-86012380D01*
X183124819Y-86250475D02*
X182124819Y-86250475D01*
X182124819Y-86250475D02*
X182124819Y-85869523D01*
X182124819Y-85869523D02*
X182172438Y-85774285D01*
X182172438Y-85774285D02*
X182220057Y-85726666D01*
X182220057Y-85726666D02*
X182315295Y-85679047D01*
X182315295Y-85679047D02*
X182458152Y-85679047D01*
X182458152Y-85679047D02*
X182553390Y-85726666D01*
X182553390Y-85726666D02*
X182601009Y-85774285D01*
X182601009Y-85774285D02*
X182648628Y-85869523D01*
X182648628Y-85869523D02*
X182648628Y-86250475D01*
X182124819Y-85393332D02*
X183124819Y-85059999D01*
X183124819Y-85059999D02*
X182124819Y-84726666D01*
X183077200Y-84440951D02*
X183124819Y-84298094D01*
X183124819Y-84298094D02*
X183124819Y-84059999D01*
X183124819Y-84059999D02*
X183077200Y-83964761D01*
X183077200Y-83964761D02*
X183029580Y-83917142D01*
X183029580Y-83917142D02*
X182934342Y-83869523D01*
X182934342Y-83869523D02*
X182839104Y-83869523D01*
X182839104Y-83869523D02*
X182743866Y-83917142D01*
X182743866Y-83917142D02*
X182696247Y-83964761D01*
X182696247Y-83964761D02*
X182648628Y-84059999D01*
X182648628Y-84059999D02*
X182601009Y-84250475D01*
X182601009Y-84250475D02*
X182553390Y-84345713D01*
X182553390Y-84345713D02*
X182505771Y-84393332D01*
X182505771Y-84393332D02*
X182410533Y-84440951D01*
X182410533Y-84440951D02*
X182315295Y-84440951D01*
X182315295Y-84440951D02*
X182220057Y-84393332D01*
X182220057Y-84393332D02*
X182172438Y-84345713D01*
X182172438Y-84345713D02*
X182124819Y-84250475D01*
X182124819Y-84250475D02*
X182124819Y-84012380D01*
X182124819Y-84012380D02*
X182172438Y-83869523D01*
X183124819Y-83440951D02*
X182124819Y-83440951D01*
X182124819Y-83440951D02*
X183124819Y-82869523D01*
X183124819Y-82869523D02*
X182124819Y-82869523D01*
X194454819Y-66728571D02*
X195169104Y-66728571D01*
X195169104Y-66728571D02*
X195311961Y-66776190D01*
X195311961Y-66776190D02*
X195407200Y-66871428D01*
X195407200Y-66871428D02*
X195454819Y-67014285D01*
X195454819Y-67014285D02*
X195454819Y-67109523D01*
X195454819Y-66252380D02*
X194454819Y-66252380D01*
X194454819Y-66252380D02*
X195169104Y-65919047D01*
X195169104Y-65919047D02*
X194454819Y-65585714D01*
X194454819Y-65585714D02*
X195454819Y-65585714D01*
X195454819Y-65109523D02*
X194454819Y-65109523D01*
X194454819Y-65109523D02*
X194454819Y-64728571D01*
X194454819Y-64728571D02*
X194502438Y-64633333D01*
X194502438Y-64633333D02*
X194550057Y-64585714D01*
X194550057Y-64585714D02*
X194645295Y-64538095D01*
X194645295Y-64538095D02*
X194788152Y-64538095D01*
X194788152Y-64538095D02*
X194883390Y-64585714D01*
X194883390Y-64585714D02*
X194931009Y-64633333D01*
X194931009Y-64633333D02*
X194978628Y-64728571D01*
X194978628Y-64728571D02*
X194978628Y-65109523D01*
X177500000Y-89454819D02*
X177500000Y-88454819D01*
X178166666Y-88454819D02*
X178357142Y-88454819D01*
X178357142Y-88454819D02*
X178452380Y-88502438D01*
X178452380Y-88502438D02*
X178547618Y-88597676D01*
X178547618Y-88597676D02*
X178595237Y-88788152D01*
X178595237Y-88788152D02*
X178595237Y-89121485D01*
X178595237Y-89121485D02*
X178547618Y-89311961D01*
X178547618Y-89311961D02*
X178452380Y-89407200D01*
X178452380Y-89407200D02*
X178357142Y-89454819D01*
X178357142Y-89454819D02*
X178166666Y-89454819D01*
X178166666Y-89454819D02*
X178071428Y-89407200D01*
X178071428Y-89407200D02*
X177976190Y-89311961D01*
X177976190Y-89311961D02*
X177928571Y-89121485D01*
X177928571Y-89121485D02*
X177928571Y-88788152D01*
X177928571Y-88788152D02*
X177976190Y-88597676D01*
X177976190Y-88597676D02*
X178071428Y-88502438D01*
X178071428Y-88502438D02*
X178166666Y-88454819D01*
X179214285Y-88454819D02*
X179309523Y-88454819D01*
X179309523Y-88454819D02*
X179404761Y-88502438D01*
X179404761Y-88502438D02*
X179452380Y-88550057D01*
X179452380Y-88550057D02*
X179499999Y-88645295D01*
X179499999Y-88645295D02*
X179547618Y-88835771D01*
X179547618Y-88835771D02*
X179547618Y-89073866D01*
X179547618Y-89073866D02*
X179499999Y-89264342D01*
X179499999Y-89264342D02*
X179452380Y-89359580D01*
X179452380Y-89359580D02*
X179404761Y-89407200D01*
X179404761Y-89407200D02*
X179309523Y-89454819D01*
X179309523Y-89454819D02*
X179214285Y-89454819D01*
X179214285Y-89454819D02*
X179119047Y-89407200D01*
X179119047Y-89407200D02*
X179071428Y-89359580D01*
X179071428Y-89359580D02*
X179023809Y-89264342D01*
X179023809Y-89264342D02*
X178976190Y-89073866D01*
X178976190Y-89073866D02*
X178976190Y-88835771D01*
X178976190Y-88835771D02*
X179023809Y-88645295D01*
X179023809Y-88645295D02*
X179071428Y-88550057D01*
X179071428Y-88550057D02*
X179119047Y-88502438D01*
X179119047Y-88502438D02*
X179214285Y-88454819D01*
X199254819Y-87295237D02*
X198254819Y-87295237D01*
X198254819Y-87295237D02*
X198969104Y-86961904D01*
X198969104Y-86961904D02*
X198254819Y-86628571D01*
X198254819Y-86628571D02*
X199254819Y-86628571D01*
X199159580Y-85580952D02*
X199207200Y-85628571D01*
X199207200Y-85628571D02*
X199254819Y-85771428D01*
X199254819Y-85771428D02*
X199254819Y-85866666D01*
X199254819Y-85866666D02*
X199207200Y-86009523D01*
X199207200Y-86009523D02*
X199111961Y-86104761D01*
X199111961Y-86104761D02*
X199016723Y-86152380D01*
X199016723Y-86152380D02*
X198826247Y-86199999D01*
X198826247Y-86199999D02*
X198683390Y-86199999D01*
X198683390Y-86199999D02*
X198492914Y-86152380D01*
X198492914Y-86152380D02*
X198397676Y-86104761D01*
X198397676Y-86104761D02*
X198302438Y-86009523D01*
X198302438Y-86009523D02*
X198254819Y-85866666D01*
X198254819Y-85866666D02*
X198254819Y-85771428D01*
X198254819Y-85771428D02*
X198302438Y-85628571D01*
X198302438Y-85628571D02*
X198350057Y-85580952D01*
X198254819Y-85152380D02*
X199064342Y-85152380D01*
X199064342Y-85152380D02*
X199159580Y-85104761D01*
X199159580Y-85104761D02*
X199207200Y-85057142D01*
X199207200Y-85057142D02*
X199254819Y-84961904D01*
X199254819Y-84961904D02*
X199254819Y-84771428D01*
X199254819Y-84771428D02*
X199207200Y-84676190D01*
X199207200Y-84676190D02*
X199159580Y-84628571D01*
X199159580Y-84628571D02*
X199064342Y-84580952D01*
X199064342Y-84580952D02*
X198254819Y-84580952D01*
X199254819Y-82771428D02*
X198778628Y-83104761D01*
X199254819Y-83342856D02*
X198254819Y-83342856D01*
X198254819Y-83342856D02*
X198254819Y-82961904D01*
X198254819Y-82961904D02*
X198302438Y-82866666D01*
X198302438Y-82866666D02*
X198350057Y-82819047D01*
X198350057Y-82819047D02*
X198445295Y-82771428D01*
X198445295Y-82771428D02*
X198588152Y-82771428D01*
X198588152Y-82771428D02*
X198683390Y-82819047D01*
X198683390Y-82819047D02*
X198731009Y-82866666D01*
X198731009Y-82866666D02*
X198778628Y-82961904D01*
X198778628Y-82961904D02*
X198778628Y-83342856D01*
X199207200Y-82390475D02*
X199254819Y-82247618D01*
X199254819Y-82247618D02*
X199254819Y-82009523D01*
X199254819Y-82009523D02*
X199207200Y-81914285D01*
X199207200Y-81914285D02*
X199159580Y-81866666D01*
X199159580Y-81866666D02*
X199064342Y-81819047D01*
X199064342Y-81819047D02*
X198969104Y-81819047D01*
X198969104Y-81819047D02*
X198873866Y-81866666D01*
X198873866Y-81866666D02*
X198826247Y-81914285D01*
X198826247Y-81914285D02*
X198778628Y-82009523D01*
X198778628Y-82009523D02*
X198731009Y-82199999D01*
X198731009Y-82199999D02*
X198683390Y-82295237D01*
X198683390Y-82295237D02*
X198635771Y-82342856D01*
X198635771Y-82342856D02*
X198540533Y-82390475D01*
X198540533Y-82390475D02*
X198445295Y-82390475D01*
X198445295Y-82390475D02*
X198350057Y-82342856D01*
X198350057Y-82342856D02*
X198302438Y-82295237D01*
X198302438Y-82295237D02*
X198254819Y-82199999D01*
X198254819Y-82199999D02*
X198254819Y-81961904D01*
X198254819Y-81961904D02*
X198302438Y-81819047D01*
X198254819Y-81533332D02*
X198254819Y-80961904D01*
X199254819Y-81247618D02*
X198254819Y-81247618D01*
X182094819Y-92893332D02*
X181094819Y-92893332D01*
X181094819Y-92893332D02*
X181094819Y-92512380D01*
X181094819Y-92512380D02*
X181142438Y-92417142D01*
X181142438Y-92417142D02*
X181190057Y-92369523D01*
X181190057Y-92369523D02*
X181285295Y-92321904D01*
X181285295Y-92321904D02*
X181428152Y-92321904D01*
X181428152Y-92321904D02*
X181523390Y-92369523D01*
X181523390Y-92369523D02*
X181571009Y-92417142D01*
X181571009Y-92417142D02*
X181618628Y-92512380D01*
X181618628Y-92512380D02*
X181618628Y-92893332D01*
X182094819Y-91321904D02*
X181618628Y-91655237D01*
X182094819Y-91893332D02*
X181094819Y-91893332D01*
X181094819Y-91893332D02*
X181094819Y-91512380D01*
X181094819Y-91512380D02*
X181142438Y-91417142D01*
X181142438Y-91417142D02*
X181190057Y-91369523D01*
X181190057Y-91369523D02*
X181285295Y-91321904D01*
X181285295Y-91321904D02*
X181428152Y-91321904D01*
X181428152Y-91321904D02*
X181523390Y-91369523D01*
X181523390Y-91369523D02*
X181571009Y-91417142D01*
X181571009Y-91417142D02*
X181618628Y-91512380D01*
X181618628Y-91512380D02*
X181618628Y-91893332D01*
X181142438Y-90369523D02*
X181094819Y-90464761D01*
X181094819Y-90464761D02*
X181094819Y-90607618D01*
X181094819Y-90607618D02*
X181142438Y-90750475D01*
X181142438Y-90750475D02*
X181237676Y-90845713D01*
X181237676Y-90845713D02*
X181332914Y-90893332D01*
X181332914Y-90893332D02*
X181523390Y-90940951D01*
X181523390Y-90940951D02*
X181666247Y-90940951D01*
X181666247Y-90940951D02*
X181856723Y-90893332D01*
X181856723Y-90893332D02*
X181951961Y-90845713D01*
X181951961Y-90845713D02*
X182047200Y-90750475D01*
X182047200Y-90750475D02*
X182094819Y-90607618D01*
X182094819Y-90607618D02*
X182094819Y-90512380D01*
X182094819Y-90512380D02*
X182047200Y-90369523D01*
X182047200Y-90369523D02*
X181999580Y-90321904D01*
X181999580Y-90321904D02*
X181666247Y-90321904D01*
X181666247Y-90321904D02*
X181666247Y-90512380D01*
X182094819Y-89893332D02*
X181094819Y-89893332D01*
X181094819Y-89893332D02*
X181809104Y-89559999D01*
X181809104Y-89559999D02*
X181094819Y-89226666D01*
X181094819Y-89226666D02*
X182094819Y-89226666D01*
X155154819Y-92464285D02*
X155154819Y-93035713D01*
X155154819Y-92749999D02*
X154154819Y-92749999D01*
X154154819Y-92749999D02*
X154297676Y-92845237D01*
X154297676Y-92845237D02*
X154392914Y-92940475D01*
X154392914Y-92940475D02*
X154440533Y-93035713D01*
X167428572Y-88454819D02*
X167666667Y-89454819D01*
X167666667Y-89454819D02*
X167857143Y-88740533D01*
X167857143Y-88740533D02*
X168047619Y-89454819D01*
X168047619Y-89454819D02*
X168285715Y-88454819D01*
X168666667Y-89454819D02*
X168666667Y-88788152D01*
X168666667Y-88454819D02*
X168619048Y-88502438D01*
X168619048Y-88502438D02*
X168666667Y-88550057D01*
X168666667Y-88550057D02*
X168714286Y-88502438D01*
X168714286Y-88502438D02*
X168666667Y-88454819D01*
X168666667Y-88454819D02*
X168666667Y-88550057D01*
X169476190Y-88931009D02*
X169142857Y-88931009D01*
X169142857Y-89454819D02*
X169142857Y-88454819D01*
X169142857Y-88454819D02*
X169619047Y-88454819D01*
X170000000Y-89454819D02*
X170000000Y-88788152D01*
X170000000Y-88454819D02*
X169952381Y-88502438D01*
X169952381Y-88502438D02*
X170000000Y-88550057D01*
X170000000Y-88550057D02*
X170047619Y-88502438D01*
X170047619Y-88502438D02*
X170000000Y-88454819D01*
X170000000Y-88454819D02*
X170000000Y-88550057D01*
X171809523Y-89454819D02*
X171476190Y-88978628D01*
X171238095Y-89454819D02*
X171238095Y-88454819D01*
X171238095Y-88454819D02*
X171619047Y-88454819D01*
X171619047Y-88454819D02*
X171714285Y-88502438D01*
X171714285Y-88502438D02*
X171761904Y-88550057D01*
X171761904Y-88550057D02*
X171809523Y-88645295D01*
X171809523Y-88645295D02*
X171809523Y-88788152D01*
X171809523Y-88788152D02*
X171761904Y-88883390D01*
X171761904Y-88883390D02*
X171714285Y-88931009D01*
X171714285Y-88931009D02*
X171619047Y-88978628D01*
X171619047Y-88978628D02*
X171238095Y-88978628D01*
X172190476Y-89407200D02*
X172333333Y-89454819D01*
X172333333Y-89454819D02*
X172571428Y-89454819D01*
X172571428Y-89454819D02*
X172666666Y-89407200D01*
X172666666Y-89407200D02*
X172714285Y-89359580D01*
X172714285Y-89359580D02*
X172761904Y-89264342D01*
X172761904Y-89264342D02*
X172761904Y-89169104D01*
X172761904Y-89169104D02*
X172714285Y-89073866D01*
X172714285Y-89073866D02*
X172666666Y-89026247D01*
X172666666Y-89026247D02*
X172571428Y-88978628D01*
X172571428Y-88978628D02*
X172380952Y-88931009D01*
X172380952Y-88931009D02*
X172285714Y-88883390D01*
X172285714Y-88883390D02*
X172238095Y-88835771D01*
X172238095Y-88835771D02*
X172190476Y-88740533D01*
X172190476Y-88740533D02*
X172190476Y-88645295D01*
X172190476Y-88645295D02*
X172238095Y-88550057D01*
X172238095Y-88550057D02*
X172285714Y-88502438D01*
X172285714Y-88502438D02*
X172380952Y-88454819D01*
X172380952Y-88454819D02*
X172619047Y-88454819D01*
X172619047Y-88454819D02*
X172761904Y-88502438D01*
X173047619Y-88454819D02*
X173619047Y-88454819D01*
X173333333Y-89454819D02*
X173333333Y-88454819D01*
D12*
%TO.C,U2*%
X150520000Y-70770000D02*
X150020000Y-70270000D01*
X150520000Y-70270000D01*
X150520000Y-70770000D01*
G36*
X150520000Y-70770000D02*
G01*
X150020000Y-70270000D01*
X150520000Y-70270000D01*
X150520000Y-70770000D01*
G37*
X169470000Y-70270000D02*
X168520000Y-70270000D01*
X169470000Y-68870000D02*
X169470000Y-70270000D01*
X169470000Y-53270000D02*
X169470000Y-51870000D01*
X169470000Y-51870000D02*
X168520000Y-51870000D01*
%TO.C,R8*%
X167785000Y-73142936D02*
X167785000Y-73597064D01*
X169255000Y-73142936D02*
X169255000Y-73597064D01*
%TO.C,WS*%
X163435000Y-72582500D02*
X163435000Y-74867500D01*
X164905000Y-72582500D02*
X163435000Y-72582500D01*
X164905000Y-74867500D02*
X164905000Y-72582500D01*
%TO.C,AP*%
X169955000Y-72045000D02*
X169955000Y-74330000D01*
X171425000Y-72045000D02*
X169955000Y-72045000D01*
X171425000Y-74330000D02*
X171425000Y-72045000D01*
%TO.C,USB*%
X153000000Y-81630000D02*
X153000000Y-80250000D01*
X154380000Y-81630000D02*
X153000000Y-81630000D01*
X155650000Y-78870000D02*
X160840000Y-78870000D01*
X155650000Y-81630000D02*
X155650000Y-78870000D01*
X155650000Y-81630000D02*
X160840000Y-81630000D01*
X160840000Y-81630000D02*
X160840000Y-78870000D01*
%TO.C,C10*%
X154438748Y-71615000D02*
X154961252Y-71615000D01*
X154438748Y-73085000D02*
X154961252Y-73085000D01*
%TO.C,C12*%
X174985000Y-80198748D02*
X174985000Y-80721252D01*
X176455000Y-80198748D02*
X176455000Y-80721252D01*
%TO.C,R6*%
X161465000Y-73122936D02*
X161465000Y-73577064D01*
X162935000Y-73122936D02*
X162935000Y-73577064D01*
%TO.C,D4*%
X179300000Y-74265000D02*
X177015000Y-74265000D01*
X177015000Y-75735000D02*
X179300000Y-75735000D01*
X177015000Y-74265000D02*
X177015000Y-75735000D01*
%TO.C,R7*%
X165465000Y-73122936D02*
X165465000Y-73577064D01*
X166935000Y-73122936D02*
X166935000Y-73577064D01*
%TO.C,C11*%
X163475000Y-78988748D02*
X163475000Y-79511252D01*
X164945000Y-78988748D02*
X164945000Y-79511252D01*
%TO.C,R10*%
X178272936Y-78735000D02*
X178727064Y-78735000D01*
X178272936Y-77265000D02*
X178727064Y-77265000D01*
%TO.C,R3*%
X177522936Y-66765000D02*
X177977064Y-66765000D01*
X177522936Y-68235000D02*
X177977064Y-68235000D01*
%TO.C,C9*%
X178761252Y-71985000D02*
X178238748Y-71985000D01*
X178761252Y-70515000D02*
X178238748Y-70515000D01*
%TO.C,C14*%
X150705000Y-74756248D02*
X150705000Y-75278752D01*
X152175000Y-74756248D02*
X152175000Y-75278752D01*
%TO.C,J6*%
X153000000Y-78880000D02*
X153000000Y-77500000D01*
X154380000Y-78880000D02*
X153000000Y-78880000D01*
X155650000Y-76120000D02*
X160840000Y-76120000D01*
X155650000Y-78880000D02*
X155650000Y-76120000D01*
X155650000Y-78880000D02*
X160840000Y-78880000D01*
X160840000Y-78880000D02*
X160840000Y-76120000D01*
%TO.C,Net*%
X159465000Y-72582500D02*
X159465000Y-74867500D01*
X160935000Y-72582500D02*
X159465000Y-72582500D01*
X160935000Y-74867500D02*
X160935000Y-72582500D01*
D13*
%TO.C,U3*%
X168370000Y-75390000D02*
X168370000Y-75555000D01*
X168370000Y-81890000D02*
X168370000Y-81725000D01*
X168370000Y-81890000D02*
X171870000Y-81890000D01*
X171870000Y-75390000D02*
X168370000Y-75390000D01*
X171870000Y-76705000D02*
X171870000Y-75390000D01*
X171870000Y-81890000D02*
X171870000Y-80575000D01*
D14*
X165215000Y-76340000D02*
G75*
G02*
X165015000Y-76340000I-100000J0D01*
G01*
X165015000Y-76340000D02*
G75*
G02*
X165215000Y-76340000I100000J0D01*
G01*
D12*
%TO.C,R2*%
X193477064Y-54265000D02*
X193022936Y-54265000D01*
X193477064Y-55735000D02*
X193022936Y-55735000D01*
%TO.C,C16*%
X186765000Y-55511252D02*
X186765000Y-54988748D01*
X188235000Y-55511252D02*
X188235000Y-54988748D01*
%TO.C,R1*%
X196727064Y-75765000D02*
X196272936Y-75765000D01*
X196727064Y-77235000D02*
X196272936Y-77235000D01*
%TO.C,C15*%
X183761252Y-74765000D02*
X183238748Y-74765000D01*
X183761252Y-76235000D02*
X183238748Y-76235000D01*
%TO.C,C6*%
X196761252Y-78015000D02*
X196238748Y-78015000D01*
X196761252Y-79485000D02*
X196238748Y-79485000D01*
%TO.C,C5*%
X192265000Y-75011252D02*
X192265000Y-74488748D01*
X193735000Y-75011252D02*
X193735000Y-74488748D01*
D15*
%TO.C,PRVSN*%
X189290000Y-84500000D02*
G75*
G02*
X184210000Y-84500000I-2540000J0D01*
G01*
X184210000Y-84500000D02*
G75*
G02*
X189290000Y-84500000I2540000J0D01*
G01*
D12*
%TO.C,C4*%
X197761252Y-58265000D02*
X197238748Y-58265000D01*
X197761252Y-59735000D02*
X197238748Y-59735000D01*
D13*
%TO.C,U1*%
X182000000Y-61000000D02*
X182929999Y-61000000D01*
X182000000Y-61929999D02*
X182000000Y-61000000D01*
X182000000Y-71000000D02*
X182000000Y-70070001D01*
X182929999Y-71000000D02*
X182000000Y-71000000D01*
X191070001Y-71000000D02*
X192000000Y-71000000D01*
X192000000Y-61000000D02*
X191070001Y-61000000D01*
X192000000Y-61929999D02*
X192000000Y-61000000D01*
X192000000Y-71000000D02*
X192000000Y-70070001D01*
D14*
X194009998Y-69740000D02*
G75*
G02*
X193810000Y-69740000I-99999J0D01*
G01*
X193810000Y-69740000D02*
G75*
G02*
X194009998Y-69740000I99999J0D01*
G01*
D12*
%TO.C,JMP*%
X196120000Y-65755000D02*
X196120000Y-63105000D01*
X198880000Y-63105000D02*
X196120000Y-63105000D01*
X198880000Y-65755000D02*
X196120000Y-65755000D01*
X198880000Y-65755000D02*
X198880000Y-63105000D01*
X198880000Y-67025000D02*
X198880000Y-68405000D01*
X198880000Y-68405000D02*
X197500000Y-68405000D01*
%TO.C,C2*%
X195515000Y-71511252D02*
X195515000Y-70988748D01*
X196985000Y-71511252D02*
X196985000Y-70988748D01*
%TO.C,C7*%
X193015000Y-78738748D02*
X193015000Y-79261252D01*
X194485000Y-78738748D02*
X194485000Y-79261252D01*
%TO.C,C3*%
X197238748Y-60765000D02*
X197761252Y-60765000D01*
X197238748Y-62235000D02*
X197761252Y-62235000D01*
%TO.C,C1*%
X187261252Y-73765000D02*
X186738748Y-73765000D01*
X187261252Y-75235000D02*
X186738748Y-75235000D01*
D15*
%TO.C,IO0*%
X181040000Y-85250000D02*
G75*
G02*
X175960000Y-85250000I-2540000J0D01*
G01*
X175960000Y-85250000D02*
G75*
G02*
X181040000Y-85250000I2540000J0D01*
G01*
D12*
%TO.C,L1*%
X196100378Y-73940000D02*
X196899622Y-73940000D01*
X196100378Y-75060000D02*
X196899622Y-75060000D01*
D15*
%TO.C,MCU RST*%
X197040000Y-84400000D02*
G75*
G02*
X191960000Y-84400000I-2540000J0D01*
G01*
X191960000Y-84400000D02*
G75*
G02*
X197040000Y-84400000I2540000J0D01*
G01*
D12*
%TO.C,R5*%
X164765000Y-85022936D02*
X164765000Y-85477064D01*
X166235000Y-85022936D02*
X166235000Y-85477064D01*
%TO.C,J4*%
X182810000Y-90690000D02*
X182810000Y-89310000D01*
X184190000Y-90690000D02*
X182810000Y-90690000D01*
X185460000Y-87930000D02*
X190650000Y-87930000D01*
X185460000Y-90690000D02*
X185460000Y-87930000D01*
X185460000Y-90690000D02*
X190650000Y-90690000D01*
X190650000Y-90690000D02*
X190650000Y-87930000D01*
%TO.C,PRGM*%
X182810000Y-93460000D02*
X182810000Y-92080000D01*
X184190000Y-93460000D02*
X182810000Y-93460000D01*
X185460000Y-90700000D02*
X190650000Y-90700000D01*
X185460000Y-93460000D02*
X185460000Y-90700000D01*
X185460000Y-93460000D02*
X190650000Y-93460000D01*
X190650000Y-93460000D02*
X190650000Y-90700000D01*
D14*
%TO.C,J7*%
X152900000Y-82450000D02*
X162100000Y-82450000D01*
X152900000Y-84800000D02*
X152900000Y-82450000D01*
X152900000Y-90900000D02*
X152900000Y-87400000D01*
X152900000Y-93600000D02*
X152900000Y-97350000D01*
X152900000Y-97350000D02*
X162100000Y-97350000D01*
X162100000Y-82450000D02*
X162100000Y-84800000D01*
X162100000Y-90900000D02*
X162100000Y-87400000D01*
X162100000Y-97350000D02*
X162100000Y-93600000D01*
D12*
%TO.C,C8*%
X182015000Y-78738748D02*
X182015000Y-79261252D01*
X183485000Y-78738748D02*
X183485000Y-79261252D01*
%TO.C,R4*%
X174722936Y-91225000D02*
X175177064Y-91225000D01*
X174722936Y-92695000D02*
X175177064Y-92695000D01*
%TO.C,C13*%
X192988748Y-57265000D02*
X193511252Y-57265000D01*
X192988748Y-58735000D02*
X193511252Y-58735000D01*
%TO.C,R9*%
X174722936Y-88975000D02*
X175177064Y-88975000D01*
X174722936Y-90445000D02*
X175177064Y-90445000D01*
D13*
%TO.C,Y1*%
X191500000Y-77250000D02*
X185500000Y-77250000D01*
X191500000Y-80750000D02*
X185500000Y-80750000D01*
D15*
%TO.C,WiFi RST*%
X172790000Y-85250000D02*
G75*
G02*
X167710000Y-85250000I-2540000J0D01*
G01*
X167710000Y-85250000D02*
G75*
G02*
X172790000Y-85250000I2540000J0D01*
G01*
%TD*%
M02*
