%TF.GenerationSoftware,KiCad,Pcbnew,9.0.7*%
%TF.CreationDate,2026-02-16T18:04:32-06:00*%
%TF.ProjectId,326pcb,33323670-6362-42e6-9b69-6361645f7063,rev?*%
%TF.SameCoordinates,Original*%
%TF.FileFunction,Copper,L2,Bot*%
%TF.FilePolarity,Positive*%
%FSLAX46Y46*%
G04 Gerber Fmt 4.6, Leading zero omitted, Abs format (unit mm)*
G04 Created by KiCad (PCBNEW 9.0.7) date 2026-02-16 18:04:32*
%MOMM*%
%LPD*%
G01*
G04 APERTURE LIST*
%TA.AperFunction,ComponentPad*%
%ADD10R,1.700000X1.700000*%
%TD*%
%TA.AperFunction,ComponentPad*%
%ADD11C,1.700000*%
%TD*%
%TA.AperFunction,ComponentPad*%
%ADD12C,1.930400*%
%TD*%
%TA.AperFunction,SMDPad,CuDef*%
%ADD13R,0.300000X1.100000*%
%TD*%
%TA.AperFunction,SMDPad,CuDef*%
%ADD14R,2.300000X3.100000*%
%TD*%
%TA.AperFunction,ViaPad*%
%ADD15C,0.600000*%
%TD*%
%TA.AperFunction,Conductor*%
%ADD16C,0.200000*%
%TD*%
%TA.AperFunction,Conductor*%
%ADD17C,0.500000*%
%TD*%
G04 APERTURE END LIST*
D10*
%TO.P,USB,1,Pin_1*%
%TO.N,+5V*%
X154380000Y-80250000D03*
D11*
%TO.P,USB,2,Pin_2*%
%TO.N,MCU_TX*%
X156920000Y-80250000D03*
%TO.P,USB,3,Pin_3*%
%TO.N,MCU_RX*%
X159460000Y-80250000D03*
%TD*%
D10*
%TO.P,J6,1,Pin_1*%
%TO.N,GND*%
X154380000Y-77500000D03*
D11*
%TO.P,J6,2,Pin_2*%
%TO.N,ESP32_RX*%
X156920000Y-77500000D03*
%TO.P,J6,3,Pin_3*%
%TO.N,ESP32_TX*%
X159460000Y-77500000D03*
%TD*%
D12*
%TO.P,PRVSN,1,1*%
%TO.N,PROVISION*%
X184210000Y-84500000D03*
%TO.P,PRVSN,2,2*%
%TO.N,GND*%
X189290000Y-84500000D03*
%TD*%
D10*
%TO.P,JMP,1,Pin_1*%
%TO.N,Net-(J1-Pin_1)*%
X197500000Y-67025000D03*
D11*
%TO.P,JMP,2,Pin_2*%
%TO.N,VDD1V2*%
X197500000Y-64485000D03*
%TD*%
D12*
%TO.P,IO0,1,1*%
%TO.N,IO0*%
X175960000Y-85250000D03*
%TO.P,IO0,2,2*%
%TO.N,GND*%
X181040000Y-85250000D03*
%TD*%
%TO.P,MCU RST,1,1*%
%TO.N,GND*%
X191960000Y-84400000D03*
%TO.P,MCU RST,2,2*%
%TO.N,NRST*%
X197040000Y-84400000D03*
%TD*%
D10*
%TO.P,J4,1,Pin_1*%
%TO.N,GND*%
X184190000Y-89310000D03*
D11*
%TO.P,J4,2,Pin_2*%
%TO.N,+3V0*%
X186730000Y-89310000D03*
%TO.P,J4,3,Pin_3*%
%TO.N,NRST*%
X189270000Y-89310000D03*
%TD*%
D10*
%TO.P,PRGM,1,Pin_1*%
%TO.N,SWDCLK*%
X184190000Y-92080000D03*
D11*
%TO.P,PRGM,2,Pin_2*%
%TO.N,SWDIO*%
X186730000Y-92080000D03*
%TO.P,PRGM,3,Pin_3*%
%TO.N,SWO*%
X189270000Y-92080000D03*
%TD*%
D12*
%TO.P,WiFi RST,1,1*%
%TO.N,EN*%
X167710000Y-85250000D03*
%TO.P,WiFi RST,2,2*%
%TO.N,GND*%
X172790000Y-85250000D03*
%TD*%
D13*
%TO.P,J2,1,1*%
%TO.N,unconnected-(J2-Pad1)*%
X185250000Y-48962500D03*
%TO.P,J2,2,2*%
%TO.N,unconnected-(J2-Pad2)*%
X185750000Y-48962500D03*
%TO.P,J2,3,3*%
%TO.N,D2*%
X186250000Y-48962500D03*
%TO.P,J2,4,4*%
%TO.N,D1*%
X186750000Y-48962500D03*
%TO.P,J2,5,5*%
%TO.N,D3*%
X187250000Y-48962500D03*
%TO.P,J2,6,6*%
%TO.N,D0*%
X187750000Y-48962500D03*
%TO.P,J2,7,7*%
%TO.N,D4*%
X188250000Y-48962500D03*
%TO.P,J2,8,8*%
%TO.N,PCLK*%
X188750000Y-48962500D03*
%TO.P,J2,9,9*%
%TO.N,D5*%
X189250000Y-48962500D03*
%TO.P,J2,10,10*%
%TO.N,GND*%
X189750000Y-48962500D03*
%TO.P,J2,11,11*%
%TO.N,D6*%
X190250000Y-48962500D03*
%TO.P,J2,12,12*%
%TO.N,XCLK*%
X190750000Y-48962500D03*
%TO.P,J2,13,13*%
%TO.N,D7*%
X191250000Y-48962500D03*
%TO.P,J2,14,14*%
%TO.N,+3V0*%
X191750000Y-48962500D03*
%TO.P,J2,15,15*%
%TO.N,VDD1V2*%
X192250000Y-48962500D03*
%TO.P,J2,16,16*%
%TO.N,HREF*%
X192750000Y-48962500D03*
%TO.P,J2,17,17*%
%TO.N,unconnected-(J2-Pad17)*%
X193250000Y-48962500D03*
%TO.P,J2,18,18*%
%TO.N,VSYNC*%
X193750000Y-48962500D03*
%TO.P,J2,19,19*%
%TO.N,RST_CAM*%
X194250000Y-48962500D03*
%TO.P,J2,20,20*%
%TO.N,SCL*%
X194750000Y-48962500D03*
%TO.P,J2,21,21*%
%TO.N,+3V0*%
X195250000Y-48962500D03*
%TO.P,J2,22,22*%
%TO.N,SDA*%
X195750000Y-48962500D03*
%TO.P,J2,23,23*%
%TO.N,unconnected-(J2-Pad23)*%
X196250000Y-48962500D03*
%TO.P,J2,24,24*%
%TO.N,GND*%
X196750000Y-48962500D03*
D14*
%TO.P,J2,S1,SHIELD*%
X183580000Y-47262500D03*
%TO.P,J2,S2,SHIELD*%
X198420000Y-47262500D03*
%TD*%
D15*
%TO.N,GND*%
X190530000Y-85840000D03*
X195490000Y-83310000D03*
X155034265Y-74925735D03*
X151480000Y-72270000D03*
X162820000Y-79980000D03*
X165370000Y-76340000D03*
X172580000Y-72700000D03*
X172620000Y-66890000D03*
%TO.N,PROVISION*%
X194790000Y-68150000D03*
X186110000Y-84060000D03*
%TO.N,GND*%
X182579236Y-88840764D03*
%TO.N,NRST*%
X177680000Y-87440000D03*
%TO.N,SWO*%
X181794845Y-73221701D03*
X179840000Y-88950000D03*
%TO.N,SWDIO*%
X181050000Y-74610000D03*
%TO.N,SWDCLK*%
X178790000Y-72990000D03*
%TO.N,+3V0*%
X170330000Y-83720000D03*
X170440000Y-89570000D03*
%TO.N,PROVISION*%
X181740000Y-89700000D03*
%TO.N,NRST*%
X177700000Y-92120000D03*
X174090000Y-66310000D03*
%TO.N,+3V0*%
X174920000Y-67830000D03*
X174890000Y-72710000D03*
X155070000Y-73930000D03*
X153170000Y-74250000D03*
%TO.N,MCU_RX*%
X158050000Y-66610000D03*
%TO.N,MCU_TX*%
X156050000Y-57110000D03*
%TO.N,ESP32_RX*%
X156995000Y-50895000D03*
%TO.N,ESP32_TX*%
X159370000Y-47510000D03*
%TO.N,EN*%
X163550000Y-84180000D03*
X162150000Y-75940000D03*
%TO.N,MCU_TX*%
X173920000Y-62850000D03*
X173880000Y-59680000D03*
%TO.N,IO0*%
X173280000Y-49830000D03*
%TO.N,CS*%
X174760000Y-58930000D03*
X174260000Y-48960000D03*
%TO.N,MISO*%
X175700000Y-58470000D03*
X174930000Y-48000000D03*
%TO.N,SCK*%
X188900000Y-56930000D03*
X188930000Y-53510000D03*
X179500000Y-53160000D03*
X179500000Y-46730000D03*
%TO.N,CTRL0*%
X176640000Y-46110000D03*
X177940000Y-69810000D03*
%TO.N,CTRL1*%
X178640000Y-69200000D03*
X177740000Y-45870000D03*
%TO.N,CTRL2*%
X179675000Y-67850001D03*
X178470000Y-44800000D03*
%TO.N,CTRL3*%
X172380000Y-62400000D03*
X171810000Y-68530000D03*
%TO.N,GND*%
X173460000Y-81250000D03*
X170883800Y-75801000D03*
X176650000Y-74684000D03*
X176560000Y-72250000D03*
%TO.N,SDA*%
X177750000Y-55250000D03*
X177750000Y-66250000D03*
%TO.N,GND*%
X196600000Y-62800000D03*
X188650000Y-72900000D03*
X192400000Y-80600000D03*
X192500000Y-71000000D03*
X189700735Y-53950735D03*
X198500000Y-50250000D03*
X189250000Y-62250000D03*
X196450000Y-78800000D03*
X192500000Y-72750000D03*
X181750000Y-54250000D03*
X173750000Y-84000000D03*
X188650000Y-69250000D03*
%TO.N,+3V0*%
X190250000Y-59000000D03*
X187817848Y-72790571D03*
X190275735Y-55875735D03*
X187500000Y-68500000D03*
X190500000Y-66750001D03*
X195750000Y-67750000D03*
X192031196Y-53468804D03*
X197500000Y-70250000D03*
%TO.N,VDD1V2*%
X185250000Y-50150000D03*
X185250000Y-55850000D03*
X185750000Y-72750000D03*
X192750000Y-47100000D03*
X187250000Y-61750000D03*
X187250000Y-64250000D03*
%TO.N,VSYNC*%
X193725494Y-56179983D03*
%TO.N,D1*%
X186824000Y-57500000D03*
%TO.N,PCLK*%
X194250000Y-59250000D03*
X194900000Y-61500000D03*
X191049265Y-59049265D03*
%TO.N,D5*%
X182500000Y-51400000D03*
X182564994Y-65857181D03*
X189650000Y-50250000D03*
%TO.N,RST_CAM*%
X195750000Y-64850001D03*
%TO.N,HREF*%
X192500000Y-56600000D03*
%TO.N,D2*%
X186000000Y-56750000D03*
%TO.N,D4*%
X179750000Y-64500000D03*
X180250000Y-51000000D03*
X188350000Y-50750000D03*
%TO.N,D3*%
X187400000Y-52750000D03*
X183250000Y-52710000D03*
X183250000Y-64250000D03*
%TO.N,D6*%
X190000000Y-52000000D03*
X184100000Y-52050000D03*
X183800000Y-66700000D03*
%TO.N,D0*%
X188150000Y-57850000D03*
%TO.N,XCLK*%
X194250000Y-65500000D03*
%TO.N,D7*%
X184931520Y-72908480D03*
%TO.N,SCL*%
X191750000Y-60500000D03*
X195500000Y-57750000D03*
X191000000Y-63750000D03*
X195500000Y-54750000D03*
%TO.N,SDA*%
X195750000Y-52750000D03*
%TO.N,MOSI*%
X188250000Y-58750000D03*
X185500000Y-57500000D03*
X175860000Y-57500000D03*
X175730000Y-47370000D03*
%TD*%
D16*
%TO.N,CTRL1*%
X178351000Y-68911000D02*
X178640000Y-69200000D01*
X178351000Y-46481000D02*
X178351000Y-68911000D01*
X177740000Y-45870000D02*
X178351000Y-46481000D01*
%TO.N,GND*%
X190530000Y-85830000D02*
X190530000Y-85840000D01*
X191960000Y-84400000D02*
X190530000Y-85830000D01*
X193050000Y-83310000D02*
X195490000Y-83310000D01*
X191960000Y-84400000D02*
X193050000Y-83310000D01*
X154380000Y-75580000D02*
X154380000Y-77500000D01*
X155034265Y-74925735D02*
X154380000Y-75580000D01*
X151480000Y-72270000D02*
X151480000Y-74600000D01*
X151480000Y-74600000D02*
X154380000Y-77500000D01*
X162820000Y-79980000D02*
X162820000Y-78890000D01*
X162820000Y-78890000D02*
X165370000Y-76340000D01*
X172580000Y-66930000D02*
X172580000Y-72700000D01*
X172620000Y-66890000D02*
X172580000Y-66930000D01*
%TO.N,PROVISION*%
X194910000Y-68270000D02*
X194790000Y-68150000D01*
X194910000Y-82160000D02*
X194910000Y-68270000D01*
X194430000Y-82730000D02*
X194910000Y-82250000D01*
X186110000Y-84060000D02*
X187440000Y-82730000D01*
X187440000Y-82730000D02*
X194430000Y-82730000D01*
X194910000Y-82250000D02*
X194910000Y-82160000D01*
%TO.N,GND*%
X186920000Y-84500000D02*
X189290000Y-84500000D01*
X182579236Y-88840764D02*
X186920000Y-84500000D01*
%TO.N,SWO*%
X181794845Y-74715098D02*
X181794845Y-73221701D01*
X179750000Y-88860000D02*
X179750000Y-76759943D01*
X179840000Y-88950000D02*
X179750000Y-88860000D01*
X179750000Y-76759943D02*
X181794845Y-74715098D01*
%TO.N,SWDIO*%
X178800000Y-76860000D02*
X181050000Y-74610000D01*
X178800000Y-89880000D02*
X178800000Y-76860000D01*
X179381000Y-90461000D02*
X178800000Y-89880000D01*
X185111000Y-90461000D02*
X179381000Y-90461000D01*
X186730000Y-92080000D02*
X185111000Y-90461000D01*
%TO.N,SWDCLK*%
X178760000Y-72990000D02*
X178790000Y-72990000D01*
X178630000Y-73120000D02*
X178760000Y-72990000D01*
X178280000Y-91320000D02*
X178280000Y-73470000D01*
X178280000Y-73470000D02*
X178630000Y-73120000D01*
X184190000Y-92080000D02*
X179040000Y-92080000D01*
X179040000Y-92080000D02*
X178280000Y-91320000D01*
%TO.N,D7*%
X191250000Y-53536138D02*
X191250000Y-48962500D01*
X191899000Y-54185138D02*
X191250000Y-53536138D01*
X191899000Y-58585195D02*
X191899000Y-54185138D01*
X194299000Y-60985195D02*
X191899000Y-58585195D01*
X194299000Y-64699057D02*
X194299000Y-60985195D01*
X194851000Y-66799057D02*
X194851000Y-65251057D01*
X194000000Y-67650057D02*
X194851000Y-66799057D01*
X193000000Y-73500000D02*
X194000000Y-72500000D01*
X185523041Y-73500000D02*
X193000000Y-73500000D01*
X194851000Y-65251057D02*
X194299000Y-64699057D01*
X194000000Y-72500000D02*
X194000000Y-67650057D01*
X184931520Y-72908480D02*
X185523041Y-73500000D01*
%TO.N,NRST*%
X194180000Y-84400000D02*
X197040000Y-84400000D01*
X189270000Y-89310000D02*
X194180000Y-84400000D01*
%TO.N,+3V0*%
X170330000Y-83720000D02*
X170330000Y-89460000D01*
X170330000Y-89460000D02*
X170440000Y-89570000D01*
%TO.N,PROVISION*%
X181740000Y-86970000D02*
X184210000Y-84500000D01*
X181740000Y-89700000D02*
X181740000Y-86970000D01*
%TO.N,NRST*%
X174090000Y-66310000D02*
X174090000Y-73906138D01*
X177700000Y-77516138D02*
X177700000Y-92120000D01*
X174090000Y-73906138D02*
X177700000Y-77516138D01*
%TO.N,+3V0*%
X174890000Y-67860000D02*
X174920000Y-67830000D01*
X174890000Y-72710000D02*
X174890000Y-67860000D01*
X153490000Y-73930000D02*
X153170000Y-74250000D01*
X155070000Y-73930000D02*
X153490000Y-73930000D01*
%TO.N,MCU_RX*%
X158050000Y-66610000D02*
X158071000Y-66631000D01*
X158071000Y-66631000D02*
X158071000Y-78861000D01*
X158071000Y-78861000D02*
X159460000Y-80250000D01*
%TO.N,MCU_TX*%
X156050000Y-57110000D02*
X155769000Y-57391000D01*
X155769000Y-79099000D02*
X156920000Y-80250000D01*
X155769000Y-57391000D02*
X155769000Y-79099000D01*
%TO.N,ESP32_RX*%
X156920000Y-50970000D02*
X156920000Y-77500000D01*
X156995000Y-50895000D02*
X156920000Y-50970000D01*
%TO.N,ESP32_TX*%
X159460000Y-47600000D02*
X159460000Y-77500000D01*
X159370000Y-47510000D02*
X159460000Y-47600000D01*
%TO.N,EN*%
X163550000Y-84180000D02*
X162150000Y-82780000D01*
X162150000Y-82780000D02*
X162150000Y-75940000D01*
%TO.N,MCU_TX*%
X173880000Y-62810000D02*
X173920000Y-62850000D01*
X173880000Y-59680000D02*
X173880000Y-62810000D01*
%TO.N,IO0*%
X174730000Y-84020000D02*
X175960000Y-85250000D01*
X174730000Y-75010000D02*
X174730000Y-84020000D01*
X173280000Y-49830000D02*
X173280000Y-73560000D01*
X173280000Y-73560000D02*
X174730000Y-75010000D01*
%TO.N,CS*%
X174260000Y-58430000D02*
X174260000Y-48960000D01*
X174760000Y-58930000D02*
X174260000Y-58430000D01*
%TO.N,MISO*%
X174930000Y-48000000D02*
X174930000Y-57700000D01*
X174930000Y-57700000D02*
X175700000Y-58470000D01*
%TO.N,SCK*%
X179490000Y-46740000D02*
X179500000Y-46730000D01*
X179490000Y-53150000D02*
X179490000Y-46740000D01*
X179500000Y-53160000D02*
X179490000Y-53150000D01*
X188930000Y-53510000D02*
X188930000Y-56900000D01*
X188930000Y-56900000D02*
X188900000Y-56930000D01*
%TO.N,CTRL0*%
X176640000Y-68510000D02*
X177940000Y-69810000D01*
X176640000Y-46110000D02*
X176640000Y-68510000D01*
%TO.N,CTRL2*%
X178900000Y-45200000D02*
X178900000Y-65730000D01*
X178900000Y-65730000D02*
X179550000Y-66380000D01*
X179550000Y-66380000D02*
X179550000Y-67725001D01*
X178500000Y-44800000D02*
X178900000Y-45200000D01*
X179550000Y-67725001D02*
X179675000Y-67850001D01*
X178470000Y-44800000D02*
X178500000Y-44800000D01*
%TO.N,CTRL3*%
X171810000Y-62970000D02*
X172380000Y-62400000D01*
X171810000Y-68530000D02*
X171810000Y-62970000D01*
%TO.N,GND*%
X170883800Y-78673800D02*
X173460000Y-81250000D01*
X170883800Y-75801000D02*
X170883800Y-78673800D01*
D17*
X172750000Y-81960000D02*
X173460000Y-81250000D01*
D16*
X176560000Y-74594000D02*
X176650000Y-74684000D01*
X170883800Y-72673800D02*
X170883800Y-75801000D01*
D17*
X172750000Y-86000000D02*
X172750000Y-81960000D01*
D16*
X176560000Y-72250000D02*
X176560000Y-74594000D01*
%TO.N,SDA*%
X177750000Y-66250000D02*
X177750000Y-55250000D01*
D17*
%TO.N,GND*%
X172790000Y-85250000D02*
X172790000Y-84960000D01*
D16*
X196400000Y-77600000D02*
X196400000Y-78750000D01*
X189700735Y-53950735D02*
X189500000Y-54151470D01*
X183580000Y-47262500D02*
X188852000Y-47262500D01*
X189750000Y-48962500D02*
X189750000Y-47250000D01*
X189250000Y-62250000D02*
X188650000Y-62850000D01*
X181750000Y-54250000D02*
X181750000Y-48500000D01*
X189750000Y-48160500D02*
X189750000Y-48962500D01*
X198420000Y-47292500D02*
X196750000Y-48962500D01*
X194500000Y-45750000D02*
X196750000Y-48000000D01*
X181750000Y-48500000D02*
X182987500Y-47262500D01*
D17*
X198500000Y-50250000D02*
X198500000Y-47342500D01*
D16*
X196400000Y-78750000D02*
X196450000Y-78800000D01*
X188650000Y-62850000D02*
X188650000Y-69250000D01*
D17*
X198500000Y-47342500D02*
X198420000Y-47262500D01*
D16*
X188852000Y-47262500D02*
X189750000Y-48160500D01*
X196750000Y-48000000D02*
X196750000Y-48962500D01*
D17*
X172790000Y-84960000D02*
X173750000Y-84000000D01*
D16*
X189500000Y-62000000D02*
X189250000Y-62250000D01*
D17*
X192500000Y-72750000D02*
X192500000Y-71000000D01*
D16*
X189750000Y-47250000D02*
X191250000Y-45750000D01*
X182987500Y-47262500D02*
X183580000Y-47262500D01*
X189500000Y-54151470D02*
X189500000Y-62000000D01*
X189290000Y-84500000D02*
X192170000Y-84500000D01*
X191250000Y-45750000D02*
X194500000Y-45750000D01*
X188650000Y-69250000D02*
X188650000Y-72900000D01*
X198420000Y-47262500D02*
X198420000Y-47292500D01*
%TO.N,+3V0*%
X190250000Y-66500001D02*
X190500000Y-66750001D01*
X191750000Y-48962500D02*
X191750000Y-53187608D01*
X191750000Y-48962500D02*
X191750000Y-47000000D01*
X192250000Y-46500000D02*
X194500000Y-46500000D01*
X197500000Y-69500000D02*
X197500000Y-70250000D01*
X190250000Y-59000000D02*
X190250000Y-66500001D01*
X195250000Y-47250000D02*
X195250000Y-48962500D01*
X194500000Y-46500000D02*
X195250000Y-47250000D01*
X187817848Y-68817848D02*
X187817848Y-72790571D01*
X187500000Y-68500000D02*
X187817848Y-68817848D01*
X190275735Y-55875735D02*
X190250000Y-55901470D01*
X191750000Y-47000000D02*
X192250000Y-46500000D01*
X195750000Y-67750000D02*
X197500000Y-69500000D01*
X190250000Y-55901470D02*
X190250000Y-59000000D01*
X191750000Y-53187608D02*
X192031196Y-53468804D01*
%TO.N,VDD1V2*%
X192250000Y-48962500D02*
X192250000Y-47600000D01*
X185250000Y-50150000D02*
X185250000Y-55850000D01*
X187250000Y-61750000D02*
X187250000Y-64250000D01*
X192250000Y-47600000D02*
X192750000Y-47100000D01*
X187250000Y-64250000D02*
X185750000Y-65750000D01*
X185750000Y-65750000D02*
X185750000Y-72750000D01*
%TO.N,VSYNC*%
X193725494Y-56125156D02*
X193725494Y-56179983D01*
X193750000Y-56100650D02*
X193725494Y-56125156D01*
X193750000Y-48962500D02*
X193750000Y-56100650D01*
%TO.N,D1*%
X186750000Y-57426000D02*
X186824000Y-57500000D01*
X186750000Y-48962500D02*
X186750000Y-57426000D01*
%TO.N,PCLK*%
X195250000Y-60250000D02*
X194250000Y-59250000D01*
X188750000Y-50300057D02*
X189250000Y-50800057D01*
X194900000Y-61500000D02*
X195250000Y-61150000D01*
X195250000Y-61150000D02*
X195250000Y-60250000D01*
X189250000Y-50800057D02*
X189250000Y-52500000D01*
X188750000Y-48962500D02*
X188750000Y-50300057D01*
X191049265Y-54299265D02*
X191049265Y-59049265D01*
X189250000Y-52500000D02*
X191049265Y-54299265D01*
%TO.N,D5*%
X182500000Y-65792187D02*
X182500000Y-51400000D01*
X189250000Y-49850000D02*
X189250000Y-48962500D01*
X189650000Y-50250000D02*
X189250000Y-49850000D01*
X182564994Y-65857181D02*
X182500000Y-65792187D01*
%TO.N,RST_CAM*%
X194250000Y-49737006D02*
X194250000Y-48962500D01*
X194326494Y-49813500D02*
X194250000Y-49737006D01*
X194326494Y-58476551D02*
X194326494Y-49813500D01*
X195750000Y-59900057D02*
X194326494Y-58476551D01*
X195750000Y-64850001D02*
X195750000Y-59900057D01*
%TO.N,HREF*%
X192500000Y-54000000D02*
X193422000Y-53078000D01*
X193422000Y-50750000D02*
X192750000Y-50078000D01*
X192500000Y-56600000D02*
X192500000Y-54000000D01*
X193422000Y-53078000D02*
X193422000Y-50750000D01*
X192750000Y-50078000D02*
X192750000Y-48962500D01*
%TO.N,D2*%
X186250000Y-55750000D02*
X186250000Y-48962500D01*
X186000000Y-56750000D02*
X186000000Y-56000000D01*
X186000000Y-56000000D02*
X186250000Y-55750000D01*
%TO.N,D4*%
X180149000Y-51101000D02*
X180250000Y-51000000D01*
X180149000Y-64101000D02*
X180149000Y-51101000D01*
X188250000Y-50650000D02*
X188250000Y-48962500D01*
X188350000Y-50750000D02*
X188250000Y-50650000D01*
X179750000Y-64500000D02*
X180149000Y-64101000D01*
%TO.N,D3*%
X187250000Y-52600000D02*
X187400000Y-52750000D01*
X187250000Y-48962500D02*
X187250000Y-52600000D01*
X183250000Y-52710000D02*
X183250000Y-64250000D01*
%TO.N,D6*%
X184100000Y-52050000D02*
X184100000Y-66400000D01*
X190000000Y-52000000D02*
X190250000Y-51750000D01*
X184100000Y-66400000D02*
X183800000Y-66700000D01*
X190250000Y-51750000D02*
X190250000Y-48962500D01*
%TO.N,D0*%
X188000000Y-57500000D02*
X188000000Y-51249943D01*
X187799000Y-49813500D02*
X187799000Y-49011500D01*
X188000000Y-51249943D02*
X187749000Y-50998943D01*
X187922000Y-49813500D02*
X187799000Y-49813500D01*
X187749000Y-50501057D02*
X187922000Y-50328057D01*
X187922000Y-50328057D02*
X187922000Y-49813500D01*
X188150000Y-57850000D02*
X188150000Y-57650000D01*
X187799000Y-49011500D02*
X187750000Y-48962500D01*
X187749000Y-50998943D02*
X187749000Y-50501057D01*
X188150000Y-57650000D02*
X188000000Y-57500000D01*
%TO.N,XCLK*%
X193750000Y-60900057D02*
X191377265Y-58527322D01*
X191377265Y-58527322D02*
X191377265Y-54127265D01*
X191377265Y-54127265D02*
X190750000Y-53500000D01*
X193750000Y-65000000D02*
X193750000Y-60900057D01*
X190750000Y-53500000D02*
X190750000Y-48962500D01*
X194250000Y-65500000D02*
X193750000Y-65000000D01*
%TO.N,SCL*%
X194750000Y-48962500D02*
X194750000Y-54000000D01*
X191000000Y-63750000D02*
X191000000Y-61250000D01*
X194750000Y-54000000D02*
X195500000Y-54750000D01*
X191000000Y-61250000D02*
X191750000Y-60500000D01*
X195500000Y-57750000D02*
X195500000Y-54750000D01*
%TO.N,SDA*%
X195750000Y-48962500D02*
X195750000Y-52750000D01*
%TO.N,MOSI*%
X175730000Y-57370000D02*
X175860000Y-57500000D01*
X175730000Y-47370000D02*
X175730000Y-57370000D01*
X186400000Y-58400000D02*
X185500000Y-57500000D01*
X188250000Y-58750000D02*
X187900000Y-58400000D01*
X187900000Y-58400000D02*
X186400000Y-58400000D01*
%TD*%
%TA.AperFunction,Conductor*%
%TO.N,GND*%
G36*
X191000000Y-77000000D02*
G01*
X194309500Y-77000000D01*
X194309500Y-81250000D01*
X181250000Y-81250000D01*
X181250000Y-77000000D01*
X188750000Y-77000000D01*
X188750000Y-74100500D01*
X191000000Y-74100500D01*
X191000000Y-77000000D01*
G37*
%TD.AperFunction*%
%TA.AperFunction,Conductor*%
G36*
X191000000Y-72899500D02*
G01*
X188750000Y-72899500D01*
X188750000Y-72800000D01*
X191000000Y-72750000D01*
X191000000Y-72899500D01*
G37*
%TD.AperFunction*%
%TD*%
%TA.AperFunction,Conductor*%
%TO.N,GND*%
G36*
X177629336Y-44520185D02*
G01*
X177675091Y-44572989D01*
X177685035Y-44642147D01*
X177683914Y-44648691D01*
X177669500Y-44721153D01*
X177669500Y-44878841D01*
X177681472Y-44939031D01*
X177675244Y-45008622D01*
X177632380Y-45063799D01*
X177584046Y-45084838D01*
X177506508Y-45100261D01*
X177506498Y-45100264D01*
X177360827Y-45160602D01*
X177360814Y-45160609D01*
X177229711Y-45248210D01*
X177118874Y-45359047D01*
X177057551Y-45392531D01*
X176987859Y-45387547D01*
X176983741Y-45385927D01*
X176965544Y-45378390D01*
X176873497Y-45340263D01*
X176873492Y-45340262D01*
X176873489Y-45340261D01*
X176718845Y-45309500D01*
X176718842Y-45309500D01*
X176561158Y-45309500D01*
X176561155Y-45309500D01*
X176406510Y-45340261D01*
X176406498Y-45340264D01*
X176260827Y-45400602D01*
X176260814Y-45400609D01*
X176129711Y-45488210D01*
X176129707Y-45488213D01*
X176018213Y-45599707D01*
X176018210Y-45599711D01*
X175930609Y-45730814D01*
X175930602Y-45730827D01*
X175870264Y-45876498D01*
X175870261Y-45876510D01*
X175839500Y-46031153D01*
X175839500Y-46188846D01*
X175870261Y-46343489D01*
X175870264Y-46343501D01*
X175892858Y-46398048D01*
X175900327Y-46467518D01*
X175869051Y-46529997D01*
X175808962Y-46565648D01*
X175778297Y-46569500D01*
X175651155Y-46569500D01*
X175496510Y-46600261D01*
X175496498Y-46600264D01*
X175350827Y-46660602D01*
X175350814Y-46660609D01*
X175219711Y-46748210D01*
X175219707Y-46748213D01*
X175108213Y-46859707D01*
X175108210Y-46859711D01*
X175020609Y-46990814D01*
X175020602Y-46990827D01*
X174965876Y-47122952D01*
X174922036Y-47177356D01*
X174855742Y-47199421D01*
X174851315Y-47199500D01*
X174851155Y-47199500D01*
X174696510Y-47230261D01*
X174696498Y-47230264D01*
X174550827Y-47290602D01*
X174550814Y-47290609D01*
X174419711Y-47378210D01*
X174419707Y-47378213D01*
X174308213Y-47489707D01*
X174308210Y-47489711D01*
X174220609Y-47620814D01*
X174220602Y-47620827D01*
X174160264Y-47766498D01*
X174160261Y-47766510D01*
X174129500Y-47921153D01*
X174129500Y-48068011D01*
X174109815Y-48135050D01*
X174057011Y-48180805D01*
X174029696Y-48189627D01*
X174026512Y-48190260D01*
X174026498Y-48190264D01*
X173880827Y-48250602D01*
X173880814Y-48250609D01*
X173749711Y-48338210D01*
X173749707Y-48338213D01*
X173638213Y-48449707D01*
X173638210Y-48449711D01*
X173550609Y-48580814D01*
X173550602Y-48580827D01*
X173490264Y-48726498D01*
X173490261Y-48726510D01*
X173459500Y-48881153D01*
X173459500Y-48905500D01*
X173439815Y-48972539D01*
X173387011Y-49018294D01*
X173335500Y-49029500D01*
X173201155Y-49029500D01*
X173046510Y-49060261D01*
X173046498Y-49060264D01*
X172900827Y-49120602D01*
X172900814Y-49120609D01*
X172769711Y-49208210D01*
X172769707Y-49208213D01*
X172658213Y-49319707D01*
X172658210Y-49319711D01*
X172570609Y-49450814D01*
X172570602Y-49450827D01*
X172510264Y-49596498D01*
X172510261Y-49596510D01*
X172479500Y-49751153D01*
X172479500Y-49908846D01*
X172510261Y-50063489D01*
X172510264Y-50063501D01*
X172570602Y-50209172D01*
X172570609Y-50209185D01*
X172658602Y-50340874D01*
X172679480Y-50407551D01*
X172679500Y-50409765D01*
X172679500Y-61492297D01*
X172659815Y-61559336D01*
X172607011Y-61605091D01*
X172537853Y-61615035D01*
X172531309Y-61613914D01*
X172458845Y-61599500D01*
X172458842Y-61599500D01*
X172301158Y-61599500D01*
X172301155Y-61599500D01*
X172146510Y-61630261D01*
X172146498Y-61630264D01*
X172000827Y-61690602D01*
X172000814Y-61690609D01*
X171869711Y-61778210D01*
X171869707Y-61778213D01*
X171758213Y-61889707D01*
X171758210Y-61889711D01*
X171670609Y-62020814D01*
X171670602Y-62020827D01*
X171610264Y-62166498D01*
X171610261Y-62166508D01*
X171579362Y-62321847D01*
X171570596Y-62338604D01*
X171566577Y-62357081D01*
X171547832Y-62382122D01*
X171546977Y-62383758D01*
X171545427Y-62385336D01*
X171498993Y-62431769D01*
X171441285Y-62489478D01*
X171441284Y-62489479D01*
X171434218Y-62496546D01*
X171434215Y-62496547D01*
X171434214Y-62496548D01*
X171434215Y-62496549D01*
X171329480Y-62601284D01*
X171295433Y-62660256D01*
X171250423Y-62738215D01*
X171209499Y-62890943D01*
X171209499Y-62890945D01*
X171209499Y-63059046D01*
X171209500Y-63059059D01*
X171209500Y-67950234D01*
X171189815Y-68017273D01*
X171188602Y-68019125D01*
X171100609Y-68150814D01*
X171100602Y-68150827D01*
X171040264Y-68296498D01*
X171040261Y-68296510D01*
X171009500Y-68451153D01*
X171009500Y-68608846D01*
X171040261Y-68763489D01*
X171040264Y-68763501D01*
X171100602Y-68909172D01*
X171100609Y-68909185D01*
X171188210Y-69040288D01*
X171188213Y-69040292D01*
X171299707Y-69151786D01*
X171299711Y-69151789D01*
X171430814Y-69239390D01*
X171430827Y-69239397D01*
X171526062Y-69278844D01*
X171576503Y-69299737D01*
X171731153Y-69330499D01*
X171731156Y-69330500D01*
X171731158Y-69330500D01*
X171888844Y-69330500D01*
X171888845Y-69330499D01*
X172043497Y-69299737D01*
X172189179Y-69239394D01*
X172320289Y-69151789D01*
X172431789Y-69040289D01*
X172445406Y-69019908D01*
X172452398Y-69009446D01*
X172506010Y-68964641D01*
X172575335Y-68955934D01*
X172638363Y-68986088D01*
X172675082Y-69045531D01*
X172679500Y-69078337D01*
X172679500Y-73473330D01*
X172679499Y-73473348D01*
X172679499Y-73639054D01*
X172679498Y-73639054D01*
X172706470Y-73739711D01*
X172720423Y-73791785D01*
X172726012Y-73801466D01*
X172745563Y-73835327D01*
X172745564Y-73835331D01*
X172745565Y-73835331D01*
X172799479Y-73928714D01*
X172799481Y-73928717D01*
X172918349Y-74047585D01*
X172918355Y-74047590D01*
X174093181Y-75222416D01*
X174126666Y-75283739D01*
X174129500Y-75310097D01*
X174129500Y-83933330D01*
X174129499Y-83933348D01*
X174129499Y-83940943D01*
X174129499Y-84099057D01*
X174137958Y-84130625D01*
X174171105Y-84254334D01*
X174169442Y-84324184D01*
X174130279Y-84382046D01*
X174066051Y-84409550D01*
X174041602Y-84410045D01*
X173987744Y-84405806D01*
X173279494Y-85114056D01*
X173263381Y-85053919D01*
X173196502Y-84938080D01*
X173101920Y-84843498D01*
X172986081Y-84776619D01*
X172925941Y-84760504D01*
X173634192Y-84052254D01*
X173634191Y-84052253D01*
X173557935Y-83996850D01*
X173352446Y-83892147D01*
X173133102Y-83820877D01*
X172905319Y-83784800D01*
X172674681Y-83784800D01*
X172446897Y-83820877D01*
X172227553Y-83892147D01*
X172022069Y-83996847D01*
X171945807Y-84052254D01*
X172654058Y-84760504D01*
X172593919Y-84776619D01*
X172478080Y-84843498D01*
X172383498Y-84938080D01*
X172316619Y-85053919D01*
X172300504Y-85114057D01*
X171592254Y-84405807D01*
X171536847Y-84482069D01*
X171432147Y-84687553D01*
X171360877Y-84906897D01*
X171324800Y-85134680D01*
X171324800Y-85365319D01*
X171360877Y-85593102D01*
X171432147Y-85812446D01*
X171536850Y-86017935D01*
X171592253Y-86094191D01*
X171592254Y-86094192D01*
X172300504Y-85385941D01*
X172316619Y-85446081D01*
X172383498Y-85561920D01*
X172478080Y-85656502D01*
X172593919Y-85723381D01*
X172654057Y-85739494D01*
X171945806Y-86447744D01*
X172022067Y-86503151D01*
X172227553Y-86607852D01*
X172446897Y-86679122D01*
X172674681Y-86715200D01*
X172905319Y-86715200D01*
X173133102Y-86679122D01*
X173352446Y-86607852D01*
X173557924Y-86503155D01*
X173557930Y-86503151D01*
X173634191Y-86447744D01*
X173634192Y-86447744D01*
X172925942Y-85739495D01*
X172986081Y-85723381D01*
X173101920Y-85656502D01*
X173196502Y-85561920D01*
X173263381Y-85446081D01*
X173279494Y-85385942D01*
X173987744Y-86094192D01*
X173987744Y-86094191D01*
X174043151Y-86017930D01*
X174043155Y-86017924D01*
X174147852Y-85812446D01*
X174219122Y-85593102D01*
X174252274Y-85383790D01*
X174282203Y-85320655D01*
X174341515Y-85283724D01*
X174411377Y-85284722D01*
X174469610Y-85323332D01*
X174497220Y-85383790D01*
X174530390Y-85593219D01*
X174564353Y-85697744D01*
X174601683Y-85812633D01*
X174601684Y-85812636D01*
X174601685Y-85812637D01*
X174624960Y-85858317D01*
X174706421Y-86018194D01*
X174842027Y-86204839D01*
X175005161Y-86367973D01*
X175191806Y-86503579D01*
X175397367Y-86608317D01*
X175574850Y-86665984D01*
X175616780Y-86679609D01*
X175730714Y-86697654D01*
X175844647Y-86715700D01*
X175844648Y-86715700D01*
X176075352Y-86715700D01*
X176075353Y-86715700D01*
X176303219Y-86679609D01*
X176522633Y-86608317D01*
X176728194Y-86503579D01*
X176902616Y-86376853D01*
X176968420Y-86353374D01*
X177036474Y-86369199D01*
X177085169Y-86419305D01*
X177099500Y-86477172D01*
X177099500Y-86837059D01*
X177079815Y-86904098D01*
X177063181Y-86924740D01*
X177058213Y-86929707D01*
X177058210Y-86929711D01*
X176970609Y-87060814D01*
X176970602Y-87060827D01*
X176910264Y-87206498D01*
X176910261Y-87206510D01*
X176879500Y-87361153D01*
X176879500Y-87518846D01*
X176910261Y-87673489D01*
X176910264Y-87673501D01*
X176970602Y-87819172D01*
X176970609Y-87819185D01*
X177057816Y-87949699D01*
X177058211Y-87950289D01*
X177063178Y-87955256D01*
X177096665Y-88016575D01*
X177099500Y-88042940D01*
X177099500Y-91540234D01*
X177079815Y-91607273D01*
X177078602Y-91609125D01*
X176990609Y-91740814D01*
X176990602Y-91740827D01*
X176930264Y-91886498D01*
X176930261Y-91886510D01*
X176899500Y-92041153D01*
X176899500Y-92198846D01*
X176930261Y-92353489D01*
X176930264Y-92353501D01*
X176990602Y-92499172D01*
X176990609Y-92499185D01*
X177078210Y-92630288D01*
X177078213Y-92630292D01*
X177189707Y-92741786D01*
X177189711Y-92741789D01*
X177320814Y-92829390D01*
X177320827Y-92829397D01*
X177466498Y-92889735D01*
X177466503Y-92889737D01*
X177616910Y-92919655D01*
X177621153Y-92920499D01*
X177621156Y-92920500D01*
X177621158Y-92920500D01*
X177778844Y-92920500D01*
X177778845Y-92920499D01*
X177933497Y-92889737D01*
X178079179Y-92829394D01*
X178210289Y-92741789D01*
X178321789Y-92630289D01*
X178405779Y-92504588D01*
X178416562Y-92495577D01*
X178423632Y-92483432D01*
X178442839Y-92473616D01*
X178459391Y-92459784D01*
X178473335Y-92458032D01*
X178485849Y-92451638D01*
X178507313Y-92453765D01*
X178528716Y-92451077D01*
X178542782Y-92457279D01*
X178555378Y-92458528D01*
X178574844Y-92471417D01*
X178585880Y-92476284D01*
X178591500Y-92480736D01*
X178671284Y-92560520D01*
X178740567Y-92600520D01*
X178782180Y-92624545D01*
X178808212Y-92639576D01*
X178808214Y-92639576D01*
X178808215Y-92639577D01*
X178960942Y-92680500D01*
X178960943Y-92680500D01*
X182715501Y-92680500D01*
X182782540Y-92700185D01*
X182828295Y-92752989D01*
X182839501Y-92804500D01*
X182839501Y-92977876D01*
X182845908Y-93037483D01*
X182896202Y-93172328D01*
X182896206Y-93172335D01*
X182982452Y-93287544D01*
X182982727Y-93287819D01*
X182982912Y-93288159D01*
X182987768Y-93294645D01*
X182986835Y-93295343D01*
X183016212Y-93349142D01*
X183011228Y-93418834D01*
X182969356Y-93474767D01*
X182903892Y-93499184D01*
X182895046Y-93499500D01*
X157851919Y-93499500D01*
X157784880Y-93479815D01*
X157739125Y-93427011D01*
X157729181Y-93357853D01*
X157758206Y-93294297D01*
X157804466Y-93260939D01*
X157806418Y-93260130D01*
X157806420Y-93260130D01*
X157997598Y-93180941D01*
X158169655Y-93065977D01*
X158315977Y-92919655D01*
X158430941Y-92747598D01*
X158510130Y-92556420D01*
X158550500Y-92353465D01*
X158550500Y-92146535D01*
X158510130Y-91943580D01*
X158430941Y-91752402D01*
X158315977Y-91580345D01*
X158315975Y-91580342D01*
X158169657Y-91434024D01*
X158052136Y-91355500D01*
X157997598Y-91319059D01*
X157806420Y-91239870D01*
X157806412Y-91239868D01*
X157603469Y-91199500D01*
X157603465Y-91199500D01*
X157396535Y-91199500D01*
X157396530Y-91199500D01*
X157193587Y-91239868D01*
X157193579Y-91239870D01*
X157002403Y-91319058D01*
X156830342Y-91434024D01*
X156684024Y-91580342D01*
X156569058Y-91752403D01*
X156489870Y-91943579D01*
X156489868Y-91943587D01*
X156449500Y-92146530D01*
X156449500Y-92353469D01*
X156489868Y-92556412D01*
X156489870Y-92556420D01*
X156566651Y-92741786D01*
X156569059Y-92747598D01*
X156623710Y-92829390D01*
X156684024Y-92919657D01*
X156830342Y-93065975D01*
X156830345Y-93065977D01*
X157002402Y-93180941D01*
X157193580Y-93260130D01*
X157193581Y-93260130D01*
X157195534Y-93260939D01*
X157249937Y-93304780D01*
X157272002Y-93371074D01*
X157254723Y-93438773D01*
X157203586Y-93486384D01*
X157148081Y-93499500D01*
X150824500Y-93499500D01*
X150757461Y-93479815D01*
X150711706Y-93427011D01*
X150700500Y-93375500D01*
X150700500Y-87659448D01*
X156349500Y-87659448D01*
X156349500Y-87840551D01*
X156377829Y-88019410D01*
X156433787Y-88191636D01*
X156433788Y-88191639D01*
X156447176Y-88217913D01*
X156515813Y-88352620D01*
X156516006Y-88352997D01*
X156622441Y-88499494D01*
X156622445Y-88499499D01*
X156750500Y-88627554D01*
X156750505Y-88627558D01*
X156789650Y-88655998D01*
X156897006Y-88733996D01*
X156985021Y-88778842D01*
X157058360Y-88816211D01*
X157058363Y-88816212D01*
X157144119Y-88844075D01*
X157230591Y-88872171D01*
X157313429Y-88885291D01*
X157409449Y-88900500D01*
X157409454Y-88900500D01*
X157590551Y-88900500D01*
X157677259Y-88886765D01*
X157769409Y-88872171D01*
X157941639Y-88816211D01*
X158102994Y-88733996D01*
X158249501Y-88627553D01*
X158377553Y-88499501D01*
X158483996Y-88352994D01*
X158566211Y-88191639D01*
X158622171Y-88019409D01*
X158636765Y-87927259D01*
X158650500Y-87840551D01*
X158650500Y-87659448D01*
X158628229Y-87518842D01*
X158622171Y-87480591D01*
X158566211Y-87308361D01*
X158566211Y-87308360D01*
X158514311Y-87206503D01*
X158483996Y-87147006D01*
X158421384Y-87060827D01*
X158377558Y-87000505D01*
X158377554Y-87000500D01*
X158249499Y-86872445D01*
X158249494Y-86872441D01*
X158102997Y-86766006D01*
X158102996Y-86766005D01*
X158102994Y-86766004D01*
X158041920Y-86734885D01*
X157941639Y-86683788D01*
X157941636Y-86683787D01*
X157769410Y-86627829D01*
X157590551Y-86599500D01*
X157590546Y-86599500D01*
X157409454Y-86599500D01*
X157409449Y-86599500D01*
X157230589Y-86627829D01*
X157058363Y-86683787D01*
X157058360Y-86683788D01*
X156897002Y-86766006D01*
X156750505Y-86872441D01*
X156750500Y-86872445D01*
X156622445Y-87000500D01*
X156622441Y-87000505D01*
X156516006Y-87147002D01*
X156433788Y-87308360D01*
X156433787Y-87308363D01*
X156377829Y-87480589D01*
X156349500Y-87659448D01*
X150700500Y-87659448D01*
X150700500Y-85134647D01*
X166244300Y-85134647D01*
X166244300Y-85365352D01*
X166280390Y-85593219D01*
X166314353Y-85697744D01*
X166351683Y-85812633D01*
X166351684Y-85812636D01*
X166351685Y-85812637D01*
X166374960Y-85858317D01*
X166456421Y-86018194D01*
X166592027Y-86204839D01*
X166755161Y-86367973D01*
X166941806Y-86503579D01*
X167147367Y-86608317D01*
X167324850Y-86665984D01*
X167366780Y-86679609D01*
X167480714Y-86697654D01*
X167594647Y-86715700D01*
X167594648Y-86715700D01*
X167825352Y-86715700D01*
X167825353Y-86715700D01*
X168053219Y-86679609D01*
X168272633Y-86608317D01*
X168478194Y-86503579D01*
X168664839Y-86367973D01*
X168827973Y-86204839D01*
X168963579Y-86018194D01*
X169068317Y-85812633D01*
X169139609Y-85593219D01*
X169175700Y-85365353D01*
X169175700Y-85134647D01*
X169165461Y-85070000D01*
X169139609Y-84906780D01*
X169114576Y-84829737D01*
X169068317Y-84687367D01*
X168963579Y-84481806D01*
X168827973Y-84295161D01*
X168664839Y-84132027D01*
X168478194Y-83996421D01*
X168272633Y-83891683D01*
X168166084Y-83857063D01*
X168053219Y-83820390D01*
X167856508Y-83789234D01*
X167825353Y-83784300D01*
X167594647Y-83784300D01*
X167567239Y-83788641D01*
X167366780Y-83820390D01*
X167195805Y-83875944D01*
X167147367Y-83891683D01*
X167147364Y-83891684D01*
X167147362Y-83891685D01*
X166941805Y-83996421D01*
X166858729Y-84056780D01*
X166755161Y-84132027D01*
X166755159Y-84132029D01*
X166755158Y-84132029D01*
X166592029Y-84295158D01*
X166592029Y-84295159D01*
X166592027Y-84295161D01*
X166564448Y-84333120D01*
X166456421Y-84481805D01*
X166351685Y-84687362D01*
X166280390Y-84906780D01*
X166244300Y-85134647D01*
X150700500Y-85134647D01*
X150700500Y-74171153D01*
X152369500Y-74171153D01*
X152369500Y-74328846D01*
X152400261Y-74483489D01*
X152400264Y-74483501D01*
X152460602Y-74629172D01*
X152460609Y-74629185D01*
X152548210Y-74760288D01*
X152548213Y-74760292D01*
X152659707Y-74871786D01*
X152659711Y-74871789D01*
X152790814Y-74959390D01*
X152790827Y-74959397D01*
X152936498Y-75019735D01*
X152936503Y-75019737D01*
X153091153Y-75050499D01*
X153091156Y-75050500D01*
X153091158Y-75050500D01*
X153248844Y-75050500D01*
X153248845Y-75050499D01*
X153403497Y-75019737D01*
X153549179Y-74959394D01*
X153680289Y-74871789D01*
X153791789Y-74760289D01*
X153879394Y-74629179D01*
X153888561Y-74607047D01*
X153932400Y-74552645D01*
X153998694Y-74530579D01*
X154003122Y-74530500D01*
X154490234Y-74530500D01*
X154557273Y-74550185D01*
X154559125Y-74551398D01*
X154690814Y-74639390D01*
X154690827Y-74639397D01*
X154836498Y-74699735D01*
X154836503Y-74699737D01*
X154971496Y-74726589D01*
X154991153Y-74730499D01*
X154991156Y-74730500D01*
X155044500Y-74730500D01*
X155111539Y-74750185D01*
X155157294Y-74802989D01*
X155168500Y-74854500D01*
X155168500Y-76026000D01*
X155148815Y-76093039D01*
X155096011Y-76138794D01*
X155044500Y-76150000D01*
X154630000Y-76150000D01*
X154630000Y-77066988D01*
X154572993Y-77034075D01*
X154445826Y-77000000D01*
X154314174Y-77000000D01*
X154187007Y-77034075D01*
X154130000Y-77066988D01*
X154130000Y-76150000D01*
X153482155Y-76150000D01*
X153422627Y-76156401D01*
X153422620Y-76156403D01*
X153287913Y-76206645D01*
X153287906Y-76206649D01*
X153172812Y-76292809D01*
X153172809Y-76292812D01*
X153086649Y-76407906D01*
X153086645Y-76407913D01*
X153036403Y-76542620D01*
X153036401Y-76542627D01*
X153030000Y-76602155D01*
X153030000Y-77250000D01*
X153946988Y-77250000D01*
X153914075Y-77307007D01*
X153880000Y-77434174D01*
X153880000Y-77565826D01*
X153914075Y-77692993D01*
X153946988Y-77750000D01*
X153030000Y-77750000D01*
X153030000Y-78397844D01*
X153036401Y-78457372D01*
X153036403Y-78457379D01*
X153086645Y-78592086D01*
X153086649Y-78592093D01*
X153172808Y-78707186D01*
X153263957Y-78775420D01*
X153305828Y-78831354D01*
X153310812Y-78901046D01*
X153277327Y-78962369D01*
X153263958Y-78973953D01*
X153172452Y-79042455D01*
X153086206Y-79157664D01*
X153086202Y-79157671D01*
X153035908Y-79292517D01*
X153029501Y-79352116D01*
X153029500Y-79352135D01*
X153029500Y-81147870D01*
X153029501Y-81147876D01*
X153035908Y-81207483D01*
X153086202Y-81342328D01*
X153086206Y-81342335D01*
X153172452Y-81457544D01*
X153172455Y-81457547D01*
X153287664Y-81543793D01*
X153287671Y-81543797D01*
X153422517Y-81594091D01*
X153422516Y-81594091D01*
X153429444Y-81594835D01*
X153482127Y-81600500D01*
X155277872Y-81600499D01*
X155337483Y-81594091D01*
X155472331Y-81543796D01*
X155587546Y-81457546D01*
X155673796Y-81342331D01*
X155722810Y-81210916D01*
X155764681Y-81154984D01*
X155830145Y-81130566D01*
X155898418Y-81145417D01*
X155926673Y-81166569D01*
X156040213Y-81280109D01*
X156212179Y-81405048D01*
X156212181Y-81405049D01*
X156212184Y-81405051D01*
X156401588Y-81501557D01*
X156603757Y-81567246D01*
X156813713Y-81600500D01*
X156813714Y-81600500D01*
X157026286Y-81600500D01*
X157026287Y-81600500D01*
X157236243Y-81567246D01*
X157438412Y-81501557D01*
X157627816Y-81405051D01*
X157714138Y-81342335D01*
X157799786Y-81280109D01*
X157799788Y-81280106D01*
X157799792Y-81280104D01*
X157950104Y-81129792D01*
X157950106Y-81129788D01*
X157950109Y-81129786D01*
X158075048Y-80957820D01*
X158075047Y-80957820D01*
X158075051Y-80957816D01*
X158079514Y-80949054D01*
X158127488Y-80898259D01*
X158195308Y-80881463D01*
X158261444Y-80903999D01*
X158300486Y-80949056D01*
X158304951Y-80957820D01*
X158429890Y-81129786D01*
X158580213Y-81280109D01*
X158752179Y-81405048D01*
X158752181Y-81405049D01*
X158752184Y-81405051D01*
X158941588Y-81501557D01*
X159143757Y-81567246D01*
X159353713Y-81600500D01*
X159353714Y-81600500D01*
X159566286Y-81600500D01*
X159566287Y-81600500D01*
X159776243Y-81567246D01*
X159978412Y-81501557D01*
X160167816Y-81405051D01*
X160254138Y-81342335D01*
X160339786Y-81280109D01*
X160339788Y-81280106D01*
X160339792Y-81280104D01*
X160490104Y-81129792D01*
X160490106Y-81129788D01*
X160490109Y-81129786D01*
X160615048Y-80957820D01*
X160615047Y-80957820D01*
X160615051Y-80957816D01*
X160711557Y-80768412D01*
X160777246Y-80566243D01*
X160810500Y-80356287D01*
X160810500Y-80143713D01*
X160777246Y-79933757D01*
X160711557Y-79731588D01*
X160615051Y-79542184D01*
X160615049Y-79542181D01*
X160615048Y-79542179D01*
X160490109Y-79370213D01*
X160339786Y-79219890D01*
X160167820Y-79094951D01*
X159978413Y-78998443D01*
X159969428Y-78995524D01*
X159961446Y-78992930D01*
X159903771Y-78953495D01*
X159876572Y-78889136D01*
X159888486Y-78820290D01*
X159935730Y-78768813D01*
X159961444Y-78757070D01*
X159978412Y-78751557D01*
X160167816Y-78655051D01*
X160254471Y-78592093D01*
X160339786Y-78530109D01*
X160339788Y-78530106D01*
X160339792Y-78530104D01*
X160490104Y-78379792D01*
X160490106Y-78379788D01*
X160490109Y-78379786D01*
X160615048Y-78207820D01*
X160615047Y-78207820D01*
X160615051Y-78207816D01*
X160711557Y-78018412D01*
X160777246Y-77816243D01*
X160810500Y-77606287D01*
X160810500Y-77393713D01*
X160777246Y-77183757D01*
X160711557Y-76981588D01*
X160615051Y-76792184D01*
X160615049Y-76792181D01*
X160615048Y-76792179D01*
X160490109Y-76620213D01*
X160339786Y-76469890D01*
X160167815Y-76344948D01*
X160167814Y-76344947D01*
X160128205Y-76324765D01*
X160077409Y-76276791D01*
X160060500Y-76214281D01*
X160060500Y-75861153D01*
X161349500Y-75861153D01*
X161349500Y-76018846D01*
X161380261Y-76173489D01*
X161380264Y-76173501D01*
X161440602Y-76319172D01*
X161440609Y-76319185D01*
X161528602Y-76450874D01*
X161549480Y-76517551D01*
X161549500Y-76519765D01*
X161549500Y-82693330D01*
X161549499Y-82693348D01*
X161549499Y-82859054D01*
X161549498Y-82859054D01*
X161590423Y-83011786D01*
X161590424Y-83011787D01*
X161603422Y-83034300D01*
X161640611Y-83098714D01*
X161669481Y-83148717D01*
X161788349Y-83267585D01*
X161788355Y-83267590D01*
X162715425Y-84194660D01*
X162748910Y-84255983D01*
X162749361Y-84258149D01*
X162780261Y-84413491D01*
X162780264Y-84413501D01*
X162840602Y-84559172D01*
X162840609Y-84559185D01*
X162928210Y-84690288D01*
X162928213Y-84690292D01*
X163039707Y-84801786D01*
X163039711Y-84801789D01*
X163170814Y-84889390D01*
X163170827Y-84889397D01*
X163288360Y-84938080D01*
X163316503Y-84949737D01*
X163471153Y-84980499D01*
X163471156Y-84980500D01*
X163471158Y-84980500D01*
X163628844Y-84980500D01*
X163628845Y-84980499D01*
X163783497Y-84949737D01*
X163929179Y-84889394D01*
X164060289Y-84801789D01*
X164171789Y-84690289D01*
X164259394Y-84559179D01*
X164319737Y-84413497D01*
X164350500Y-84258842D01*
X164350500Y-84101158D01*
X164350500Y-84101155D01*
X164350499Y-84101153D01*
X164341673Y-84056781D01*
X164319737Y-83946503D01*
X164297222Y-83892147D01*
X164259397Y-83800827D01*
X164259390Y-83800814D01*
X164194672Y-83703957D01*
X164171789Y-83669711D01*
X164171786Y-83669707D01*
X164143232Y-83641153D01*
X169529500Y-83641153D01*
X169529500Y-83798846D01*
X169560261Y-83953489D01*
X169560264Y-83953501D01*
X169620602Y-84099172D01*
X169620609Y-84099185D01*
X169708602Y-84230874D01*
X169729480Y-84297551D01*
X169729500Y-84299765D01*
X169729500Y-89168827D01*
X169720061Y-89216279D01*
X169670263Y-89336501D01*
X169670260Y-89336511D01*
X169639500Y-89491153D01*
X169639500Y-89648846D01*
X169670261Y-89803489D01*
X169670264Y-89803501D01*
X169730602Y-89949172D01*
X169730609Y-89949185D01*
X169818210Y-90080288D01*
X169818213Y-90080292D01*
X169929707Y-90191786D01*
X169929711Y-90191789D01*
X170060814Y-90279390D01*
X170060827Y-90279397D01*
X170171581Y-90325272D01*
X170206503Y-90339737D01*
X170361153Y-90370499D01*
X170361156Y-90370500D01*
X170361158Y-90370500D01*
X170518844Y-90370500D01*
X170518845Y-90370499D01*
X170673497Y-90339737D01*
X170819179Y-90279394D01*
X170950289Y-90191789D01*
X171061789Y-90080289D01*
X171149394Y-89949179D01*
X171209737Y-89803497D01*
X171240500Y-89648842D01*
X171240500Y-89491158D01*
X171240500Y-89491155D01*
X171240499Y-89491153D01*
X171234360Y-89460289D01*
X171209737Y-89336503D01*
X171206703Y-89329179D01*
X171149397Y-89190827D01*
X171149390Y-89190814D01*
X171061789Y-89059711D01*
X171061786Y-89059707D01*
X170966819Y-88964740D01*
X170933334Y-88903417D01*
X170930500Y-88877059D01*
X170930500Y-84299765D01*
X170950185Y-84232726D01*
X170951398Y-84230874D01*
X170975596Y-84194660D01*
X171039394Y-84099179D01*
X171039395Y-84099176D01*
X171039397Y-84099173D01*
X171058911Y-84052061D01*
X171099735Y-83953501D01*
X171099737Y-83953497D01*
X171130500Y-83798842D01*
X171130500Y-83641158D01*
X171130500Y-83641155D01*
X171130499Y-83641153D01*
X171128640Y-83631805D01*
X171099737Y-83486503D01*
X171082612Y-83445159D01*
X171039397Y-83340827D01*
X171039390Y-83340814D01*
X170951789Y-83209711D01*
X170951786Y-83209707D01*
X170840292Y-83098213D01*
X170840288Y-83098210D01*
X170709185Y-83010609D01*
X170709172Y-83010602D01*
X170563501Y-82950264D01*
X170563489Y-82950261D01*
X170408845Y-82919500D01*
X170408842Y-82919500D01*
X170251158Y-82919500D01*
X170251155Y-82919500D01*
X170096510Y-82950261D01*
X170096498Y-82950264D01*
X169950827Y-83010602D01*
X169950814Y-83010609D01*
X169819711Y-83098210D01*
X169819707Y-83098213D01*
X169708213Y-83209707D01*
X169708210Y-83209711D01*
X169620609Y-83340814D01*
X169620602Y-83340827D01*
X169560264Y-83486498D01*
X169560261Y-83486510D01*
X169529500Y-83641153D01*
X164143232Y-83641153D01*
X164060292Y-83558213D01*
X164060288Y-83558210D01*
X163929185Y-83470609D01*
X163929172Y-83470602D01*
X163783501Y-83410264D01*
X163783491Y-83410261D01*
X163628149Y-83379361D01*
X163566238Y-83346976D01*
X163564660Y-83345425D01*
X162786819Y-82567584D01*
X162753334Y-82506261D01*
X162750500Y-82479903D01*
X162750500Y-76519765D01*
X162770185Y-76452726D01*
X162771398Y-76450874D01*
X162782191Y-76434722D01*
X162859394Y-76319179D01*
X162870316Y-76292812D01*
X162906007Y-76206645D01*
X162919737Y-76173497D01*
X162950500Y-76018842D01*
X162950500Y-75861158D01*
X162950500Y-75861155D01*
X162950499Y-75861153D01*
X162919737Y-75706503D01*
X162919202Y-75705212D01*
X162859397Y-75560827D01*
X162859390Y-75560814D01*
X162771789Y-75429711D01*
X162771786Y-75429707D01*
X162660292Y-75318213D01*
X162660288Y-75318210D01*
X162529185Y-75230609D01*
X162529172Y-75230602D01*
X162383501Y-75170264D01*
X162383489Y-75170261D01*
X162228845Y-75139500D01*
X162228842Y-75139500D01*
X162071158Y-75139500D01*
X162071155Y-75139500D01*
X161916510Y-75170261D01*
X161916498Y-75170264D01*
X161770827Y-75230602D01*
X161770814Y-75230609D01*
X161639711Y-75318210D01*
X161639707Y-75318213D01*
X161528213Y-75429707D01*
X161528210Y-75429711D01*
X161440609Y-75560814D01*
X161440602Y-75560827D01*
X161380264Y-75706498D01*
X161380261Y-75706510D01*
X161349500Y-75861153D01*
X160060500Y-75861153D01*
X160060500Y-47955071D01*
X160078033Y-47895359D01*
X160076522Y-47894552D01*
X160079390Y-47889184D01*
X160079394Y-47889179D01*
X160139737Y-47743497D01*
X160170500Y-47588842D01*
X160170500Y-47431158D01*
X160170500Y-47431155D01*
X160170499Y-47431153D01*
X160139737Y-47276503D01*
X160137697Y-47271578D01*
X160079397Y-47130827D01*
X160079390Y-47130814D01*
X159991789Y-46999711D01*
X159991786Y-46999707D01*
X159880292Y-46888213D01*
X159880288Y-46888210D01*
X159749185Y-46800609D01*
X159749172Y-46800602D01*
X159603501Y-46740264D01*
X159603489Y-46740261D01*
X159448845Y-46709500D01*
X159448842Y-46709500D01*
X159291158Y-46709500D01*
X159291155Y-46709500D01*
X159136510Y-46740261D01*
X159136498Y-46740264D01*
X158990827Y-46800602D01*
X158990814Y-46800609D01*
X158859711Y-46888210D01*
X158859707Y-46888213D01*
X158748213Y-46999707D01*
X158748210Y-46999711D01*
X158660609Y-47130814D01*
X158660602Y-47130827D01*
X158600264Y-47276498D01*
X158600261Y-47276510D01*
X158569500Y-47431153D01*
X158569500Y-47588846D01*
X158600261Y-47743489D01*
X158600264Y-47743501D01*
X158660602Y-47889172D01*
X158660609Y-47889185D01*
X158748209Y-48020287D01*
X158748210Y-48020288D01*
X158748211Y-48020289D01*
X158823182Y-48095260D01*
X158856666Y-48156581D01*
X158859500Y-48182940D01*
X158859500Y-65988059D01*
X158839815Y-66055098D01*
X158787011Y-66100853D01*
X158717853Y-66110797D01*
X158654297Y-66081772D01*
X158647819Y-66075740D01*
X158560292Y-65988213D01*
X158560288Y-65988210D01*
X158429185Y-65900609D01*
X158429172Y-65900602D01*
X158283501Y-65840264D01*
X158283489Y-65840261D01*
X158128845Y-65809500D01*
X158128842Y-65809500D01*
X157971158Y-65809500D01*
X157971155Y-65809500D01*
X157816510Y-65840261D01*
X157816507Y-65840262D01*
X157816506Y-65840262D01*
X157816503Y-65840263D01*
X157749431Y-65868045D01*
X157691952Y-65891853D01*
X157622482Y-65899321D01*
X157560003Y-65868045D01*
X157524351Y-65807956D01*
X157520500Y-65777291D01*
X157520500Y-51552940D01*
X157540185Y-51485901D01*
X157556814Y-51465263D01*
X157616789Y-51405289D01*
X157704394Y-51274179D01*
X157764737Y-51128497D01*
X157795500Y-50973842D01*
X157795500Y-50816158D01*
X157795500Y-50816155D01*
X157795499Y-50816153D01*
X157777875Y-50727551D01*
X157764737Y-50661503D01*
X157764735Y-50661498D01*
X157704397Y-50515827D01*
X157704390Y-50515814D01*
X157616789Y-50384711D01*
X157616786Y-50384707D01*
X157505292Y-50273213D01*
X157505288Y-50273210D01*
X157374185Y-50185609D01*
X157374172Y-50185602D01*
X157228501Y-50125264D01*
X157228489Y-50125261D01*
X157073845Y-50094500D01*
X157073842Y-50094500D01*
X156916158Y-50094500D01*
X156916155Y-50094500D01*
X156761510Y-50125261D01*
X156761498Y-50125264D01*
X156615827Y-50185602D01*
X156615814Y-50185609D01*
X156484711Y-50273210D01*
X156484707Y-50273213D01*
X156373213Y-50384707D01*
X156373210Y-50384711D01*
X156285609Y-50515814D01*
X156285602Y-50515827D01*
X156225264Y-50661498D01*
X156225261Y-50661510D01*
X156194500Y-50816153D01*
X156194500Y-50973846D01*
X156225261Y-51128489D01*
X156225264Y-51128501D01*
X156285603Y-51274174D01*
X156285604Y-51274175D01*
X156285606Y-51274179D01*
X156297924Y-51292614D01*
X156298602Y-51293628D01*
X156319480Y-51360305D01*
X156319500Y-51362519D01*
X156319500Y-56196329D01*
X156299815Y-56263368D01*
X156247011Y-56309123D01*
X156177853Y-56319067D01*
X156171310Y-56317947D01*
X156128842Y-56309500D01*
X155971158Y-56309500D01*
X155971155Y-56309500D01*
X155816510Y-56340261D01*
X155816498Y-56340264D01*
X155670827Y-56400602D01*
X155670814Y-56400609D01*
X155539711Y-56488210D01*
X155539707Y-56488213D01*
X155428213Y-56599707D01*
X155428210Y-56599711D01*
X155340609Y-56730814D01*
X155340602Y-56730827D01*
X155280264Y-56876498D01*
X155280261Y-56876510D01*
X155249500Y-57031153D01*
X155249500Y-57056573D01*
X155232887Y-57118573D01*
X155209424Y-57159211D01*
X155209423Y-57159215D01*
X155168499Y-57311943D01*
X155168499Y-57311945D01*
X155168499Y-57480046D01*
X155168500Y-57480059D01*
X155168500Y-73005500D01*
X155148815Y-73072539D01*
X155096011Y-73118294D01*
X155044500Y-73129500D01*
X154991155Y-73129500D01*
X154836510Y-73160261D01*
X154836498Y-73160264D01*
X154690827Y-73220602D01*
X154690814Y-73220609D01*
X154559125Y-73308602D01*
X154492447Y-73329480D01*
X154490234Y-73329500D01*
X153410940Y-73329500D01*
X153370019Y-73340464D01*
X153370019Y-73340465D01*
X153332751Y-73350451D01*
X153258214Y-73370423D01*
X153258213Y-73370424D01*
X153150024Y-73432887D01*
X153097038Y-73447084D01*
X153097218Y-73448903D01*
X153091153Y-73449500D01*
X152936510Y-73480261D01*
X152936498Y-73480264D01*
X152790827Y-73540602D01*
X152790814Y-73540609D01*
X152659711Y-73628210D01*
X152659707Y-73628213D01*
X152548213Y-73739707D01*
X152548210Y-73739711D01*
X152460609Y-73870814D01*
X152460602Y-73870827D01*
X152400264Y-74016498D01*
X152400261Y-74016510D01*
X152369500Y-74171153D01*
X150700500Y-74171153D01*
X150700500Y-47535258D01*
X152089500Y-47535258D01*
X152089500Y-47764741D01*
X152109606Y-47917455D01*
X152119452Y-47992238D01*
X152134743Y-48049305D01*
X152178842Y-48213887D01*
X152266650Y-48425876D01*
X152266657Y-48425890D01*
X152381392Y-48624617D01*
X152521081Y-48806661D01*
X152521089Y-48806670D01*
X152683330Y-48968911D01*
X152683338Y-48968918D01*
X152865382Y-49108607D01*
X152865385Y-49108608D01*
X152865388Y-49108611D01*
X153064112Y-49223344D01*
X153064117Y-49223346D01*
X153064123Y-49223349D01*
X153142588Y-49255850D01*
X153276113Y-49311158D01*
X153497762Y-49370548D01*
X153725266Y-49400500D01*
X153725273Y-49400500D01*
X153954727Y-49400500D01*
X153954734Y-49400500D01*
X154182238Y-49370548D01*
X154403887Y-49311158D01*
X154615888Y-49223344D01*
X154814612Y-49108611D01*
X154996661Y-48968919D01*
X154996665Y-48968914D01*
X154996670Y-48968911D01*
X155158911Y-48806670D01*
X155158914Y-48806665D01*
X155158919Y-48806661D01*
X155298611Y-48624612D01*
X155413344Y-48425888D01*
X155501158Y-48213887D01*
X155560548Y-47992238D01*
X155590500Y-47764734D01*
X155590500Y-47535266D01*
X155560548Y-47307762D01*
X155501158Y-47086113D01*
X155413344Y-46874112D01*
X155298611Y-46675388D01*
X155298608Y-46675385D01*
X155298607Y-46675382D01*
X155158918Y-46493338D01*
X155158911Y-46493330D01*
X154996670Y-46331089D01*
X154996661Y-46331081D01*
X154814617Y-46191392D01*
X154615890Y-46076657D01*
X154615876Y-46076650D01*
X154403887Y-45988842D01*
X154331178Y-45969360D01*
X154182238Y-45929452D01*
X154144215Y-45924446D01*
X153954741Y-45899500D01*
X153954734Y-45899500D01*
X153725266Y-45899500D01*
X153725258Y-45899500D01*
X153508715Y-45928009D01*
X153497762Y-45929452D01*
X153456806Y-45940426D01*
X153276112Y-45988842D01*
X153064123Y-46076650D01*
X153064109Y-46076657D01*
X152865382Y-46191392D01*
X152683338Y-46331081D01*
X152521081Y-46493338D01*
X152381392Y-46675382D01*
X152266657Y-46874109D01*
X152266650Y-46874123D01*
X152178842Y-47086112D01*
X152119453Y-47307759D01*
X152119451Y-47307770D01*
X152089500Y-47535258D01*
X150700500Y-47535258D01*
X150700500Y-44624500D01*
X150720185Y-44557461D01*
X150772989Y-44511706D01*
X150824500Y-44500500D01*
X177562297Y-44500500D01*
X177629336Y-44520185D01*
G37*
%TD.AperFunction*%
%TA.AperFunction,Conductor*%
G36*
X199642539Y-44520185D02*
G01*
X199688294Y-44572989D01*
X199699500Y-44624500D01*
X199699500Y-45088500D01*
X199679815Y-45155539D01*
X199627011Y-45201294D01*
X199575500Y-45212500D01*
X198670000Y-45212500D01*
X198670000Y-49312500D01*
X199575500Y-49312500D01*
X199642539Y-49332185D01*
X199688294Y-49384989D01*
X199699500Y-49436500D01*
X199699500Y-93375500D01*
X199679815Y-93442539D01*
X199627011Y-93488294D01*
X199575500Y-93499500D01*
X189975303Y-93499500D01*
X189908264Y-93479815D01*
X189862509Y-93427011D01*
X189852565Y-93357853D01*
X189881590Y-93294297D01*
X189919008Y-93265015D01*
X189977816Y-93235051D01*
X190064138Y-93172335D01*
X190149786Y-93110109D01*
X190149788Y-93110106D01*
X190149792Y-93110104D01*
X190300104Y-92959792D01*
X190300106Y-92959788D01*
X190300109Y-92959786D01*
X190425048Y-92787820D01*
X190425047Y-92787820D01*
X190425051Y-92787816D01*
X190521557Y-92598412D01*
X190587246Y-92396243D01*
X190620500Y-92186287D01*
X190620500Y-91973713D01*
X190587246Y-91763757D01*
X190521557Y-91561588D01*
X190425051Y-91372184D01*
X190425049Y-91372181D01*
X190425048Y-91372179D01*
X190300109Y-91200213D01*
X190149786Y-91049890D01*
X189977820Y-90924951D01*
X189788414Y-90828444D01*
X189788413Y-90828443D01*
X189788412Y-90828443D01*
X189740668Y-90812930D01*
X189682994Y-90773494D01*
X189655796Y-90709135D01*
X189667711Y-90640289D01*
X189714955Y-90588813D01*
X189740667Y-90577070D01*
X189788412Y-90561557D01*
X189977816Y-90465051D01*
X189999789Y-90449086D01*
X190149786Y-90340109D01*
X190149788Y-90340106D01*
X190149792Y-90340104D01*
X190164638Y-90325258D01*
X194779500Y-90325258D01*
X194779500Y-90554741D01*
X194802509Y-90729500D01*
X194809452Y-90782238D01*
X194852131Y-90941520D01*
X194868842Y-91003887D01*
X194956650Y-91215876D01*
X194956657Y-91215890D01*
X195071392Y-91414617D01*
X195211081Y-91596661D01*
X195211089Y-91596670D01*
X195373330Y-91758911D01*
X195373338Y-91758918D01*
X195555382Y-91898607D01*
X195555385Y-91898608D01*
X195555388Y-91898611D01*
X195754112Y-92013344D01*
X195754117Y-92013346D01*
X195754123Y-92013349D01*
X195845480Y-92051190D01*
X195966113Y-92101158D01*
X196187762Y-92160548D01*
X196415266Y-92190500D01*
X196415273Y-92190500D01*
X196644727Y-92190500D01*
X196644734Y-92190500D01*
X196872238Y-92160548D01*
X197093887Y-92101158D01*
X197305888Y-92013344D01*
X197504612Y-91898611D01*
X197686661Y-91758919D01*
X197686665Y-91758914D01*
X197686670Y-91758911D01*
X197848911Y-91596670D01*
X197848914Y-91596665D01*
X197848919Y-91596661D01*
X197988611Y-91414612D01*
X198103344Y-91215888D01*
X198191158Y-91003887D01*
X198250548Y-90782238D01*
X198280500Y-90554734D01*
X198280500Y-90325266D01*
X198250548Y-90097762D01*
X198191158Y-89876113D01*
X198103344Y-89664112D01*
X197988611Y-89465388D01*
X197988608Y-89465385D01*
X197988607Y-89465382D01*
X197848918Y-89283338D01*
X197848911Y-89283330D01*
X197686670Y-89121089D01*
X197686661Y-89121081D01*
X197504617Y-88981392D01*
X197305890Y-88866657D01*
X197305876Y-88866650D01*
X197093887Y-88778842D01*
X196872238Y-88719452D01*
X196834215Y-88714446D01*
X196644741Y-88689500D01*
X196644734Y-88689500D01*
X196415266Y-88689500D01*
X196415258Y-88689500D01*
X196210199Y-88716498D01*
X196187762Y-88719452D01*
X196094076Y-88744554D01*
X195966112Y-88778842D01*
X195754123Y-88866650D01*
X195754109Y-88866657D01*
X195555382Y-88981392D01*
X195373338Y-89121081D01*
X195211081Y-89283338D01*
X195071392Y-89465382D01*
X194956657Y-89664109D01*
X194956650Y-89664123D01*
X194868842Y-89876112D01*
X194809453Y-90097759D01*
X194809451Y-90097770D01*
X194779500Y-90325258D01*
X190164638Y-90325258D01*
X190300104Y-90189792D01*
X190300106Y-90189788D01*
X190300109Y-90189786D01*
X190425048Y-90017820D01*
X190425047Y-90017820D01*
X190425051Y-90017816D01*
X190521557Y-89828412D01*
X190587246Y-89626243D01*
X190620500Y-89416287D01*
X190620500Y-89203713D01*
X190587246Y-88993757D01*
X190573506Y-88951473D01*
X190571512Y-88881635D01*
X190603755Y-88825478D01*
X194392417Y-85036819D01*
X194453740Y-85003334D01*
X194480098Y-85000500D01*
X195624989Y-85000500D01*
X195692028Y-85020185D01*
X195735474Y-85068205D01*
X195751461Y-85099581D01*
X195786421Y-85168194D01*
X195922027Y-85354839D01*
X196085161Y-85517973D01*
X196271806Y-85653579D01*
X196477367Y-85758317D01*
X196644547Y-85812637D01*
X196696780Y-85829609D01*
X196810714Y-85847654D01*
X196924647Y-85865700D01*
X196924648Y-85865700D01*
X197155352Y-85865700D01*
X197155353Y-85865700D01*
X197383219Y-85829609D01*
X197602633Y-85758317D01*
X197808194Y-85653579D01*
X197994839Y-85517973D01*
X198157973Y-85354839D01*
X198293579Y-85168194D01*
X198398317Y-84962633D01*
X198469609Y-84743219D01*
X198505700Y-84515353D01*
X198505700Y-84284647D01*
X198476305Y-84099056D01*
X198469609Y-84056780D01*
X198436051Y-83953501D01*
X198398317Y-83837367D01*
X198293579Y-83631806D01*
X198157973Y-83445161D01*
X197994839Y-83282027D01*
X197808194Y-83146421D01*
X197602633Y-83041683D01*
X197506976Y-83010602D01*
X197383219Y-82970390D01*
X197186508Y-82939234D01*
X197155353Y-82934300D01*
X196924647Y-82934300D01*
X196897239Y-82938641D01*
X196696780Y-82970390D01*
X196525805Y-83025944D01*
X196477367Y-83041683D01*
X196477364Y-83041684D01*
X196477362Y-83041685D01*
X196271805Y-83146421D01*
X196165317Y-83223789D01*
X196085161Y-83282027D01*
X196085159Y-83282029D01*
X196085158Y-83282029D01*
X195922029Y-83445158D01*
X195922029Y-83445159D01*
X195922027Y-83445161D01*
X195891994Y-83486498D01*
X195786421Y-83631805D01*
X195735474Y-83731795D01*
X195687499Y-83782591D01*
X195624989Y-83799500D01*
X194266670Y-83799500D01*
X194266662Y-83799497D01*
X194266662Y-83799499D01*
X194259058Y-83799499D01*
X194100943Y-83799499D01*
X194024579Y-83819961D01*
X193948214Y-83840423D01*
X193948209Y-83840426D01*
X193811290Y-83919475D01*
X193811282Y-83919481D01*
X193600138Y-84130625D01*
X193538815Y-84164110D01*
X193469123Y-84159126D01*
X193413190Y-84117254D01*
X193389983Y-84062337D01*
X193389121Y-84056894D01*
X193317852Y-83837553D01*
X193213149Y-83632064D01*
X193137096Y-83527385D01*
X193113616Y-83461579D01*
X193129441Y-83393525D01*
X193179547Y-83344830D01*
X193237414Y-83330500D01*
X194343331Y-83330500D01*
X194343347Y-83330501D01*
X194350943Y-83330501D01*
X194509054Y-83330501D01*
X194509057Y-83330501D01*
X194661785Y-83289577D01*
X194748555Y-83239480D01*
X194798716Y-83210520D01*
X194910520Y-83098716D01*
X194910521Y-83098714D01*
X195390520Y-82618716D01*
X195469577Y-82481784D01*
X195510501Y-82329057D01*
X195510501Y-82170942D01*
X195510501Y-82163347D01*
X195510500Y-82163329D01*
X195510500Y-68669637D01*
X195516436Y-68649421D01*
X195517565Y-68628378D01*
X195526083Y-68616566D01*
X195530185Y-68602598D01*
X195546107Y-68588800D01*
X195558435Y-68571708D01*
X195571986Y-68566377D01*
X195582989Y-68556843D01*
X195603844Y-68553844D01*
X195623454Y-68546130D01*
X195648244Y-68547460D01*
X195652147Y-68546899D01*
X195658678Y-68548017D01*
X195668853Y-68550041D01*
X195671856Y-68550639D01*
X195733765Y-68583027D01*
X195735339Y-68584574D01*
X196811165Y-69660400D01*
X196844650Y-69721723D01*
X196839666Y-69791415D01*
X196826586Y-69816972D01*
X196790609Y-69870814D01*
X196790602Y-69870827D01*
X196730264Y-70016498D01*
X196730261Y-70016510D01*
X196699500Y-70171153D01*
X196699500Y-70328846D01*
X196730261Y-70483489D01*
X196730264Y-70483501D01*
X196790602Y-70629172D01*
X196790609Y-70629185D01*
X196878210Y-70760288D01*
X196878213Y-70760292D01*
X196989707Y-70871786D01*
X196989711Y-70871789D01*
X197120814Y-70959390D01*
X197120827Y-70959397D01*
X197266498Y-71019735D01*
X197266503Y-71019737D01*
X197421153Y-71050499D01*
X197421156Y-71050500D01*
X197421158Y-71050500D01*
X197578844Y-71050500D01*
X197578845Y-71050499D01*
X197733497Y-71019737D01*
X197879179Y-70959394D01*
X198010289Y-70871789D01*
X198121789Y-70760289D01*
X198209394Y-70629179D01*
X198269737Y-70483497D01*
X198300500Y-70328842D01*
X198300500Y-70171158D01*
X198300500Y-70171155D01*
X198300499Y-70171153D01*
X198269738Y-70016510D01*
X198269737Y-70016503D01*
X198265156Y-70005444D01*
X198209397Y-69870827D01*
X198209390Y-69870814D01*
X198121398Y-69739125D01*
X198115747Y-69721078D01*
X198105523Y-69705169D01*
X198101071Y-69674207D01*
X198100520Y-69672447D01*
X198100500Y-69670234D01*
X198100500Y-69589060D01*
X198100501Y-69589047D01*
X198100501Y-69420944D01*
X198068023Y-69299737D01*
X198059577Y-69268216D01*
X198048700Y-69249376D01*
X197980524Y-69131290D01*
X197980518Y-69131282D01*
X197436416Y-68587180D01*
X197402931Y-68525857D01*
X197407915Y-68456165D01*
X197449787Y-68400232D01*
X197515251Y-68375815D01*
X197524097Y-68375499D01*
X198397871Y-68375499D01*
X198397872Y-68375499D01*
X198457483Y-68369091D01*
X198592331Y-68318796D01*
X198707546Y-68232546D01*
X198793796Y-68117331D01*
X198844091Y-67982483D01*
X198850500Y-67922873D01*
X198850499Y-66127128D01*
X198844091Y-66067517D01*
X198834427Y-66041607D01*
X198793797Y-65932671D01*
X198793793Y-65932664D01*
X198707547Y-65817455D01*
X198707544Y-65817452D01*
X198592335Y-65731206D01*
X198592328Y-65731202D01*
X198460917Y-65682189D01*
X198404983Y-65640318D01*
X198380566Y-65574853D01*
X198395418Y-65506580D01*
X198416563Y-65478332D01*
X198530104Y-65364792D01*
X198540409Y-65350609D01*
X198655048Y-65192820D01*
X198655047Y-65192820D01*
X198655051Y-65192816D01*
X198751557Y-65003412D01*
X198817246Y-64801243D01*
X198850500Y-64591287D01*
X198850500Y-64378713D01*
X198817246Y-64168757D01*
X198751557Y-63966588D01*
X198655051Y-63777184D01*
X198655049Y-63777181D01*
X198655048Y-63777179D01*
X198530109Y-63605213D01*
X198379786Y-63454890D01*
X198207820Y-63329951D01*
X198018414Y-63233444D01*
X198018413Y-63233443D01*
X198018412Y-63233443D01*
X197816243Y-63167754D01*
X197816241Y-63167753D01*
X197816240Y-63167753D01*
X197654957Y-63142208D01*
X197606287Y-63134500D01*
X197393713Y-63134500D01*
X197345042Y-63142208D01*
X197183760Y-63167753D01*
X196981585Y-63233444D01*
X196792179Y-63329951D01*
X196620213Y-63454890D01*
X196620209Y-63454894D01*
X196562181Y-63512923D01*
X196500858Y-63546408D01*
X196431166Y-63541424D01*
X196375233Y-63499552D01*
X196350816Y-63434088D01*
X196350500Y-63425242D01*
X196350500Y-59821002D01*
X196350500Y-59821000D01*
X196309577Y-59668273D01*
X196278791Y-59614950D01*
X196230524Y-59531347D01*
X196230521Y-59531343D01*
X196230520Y-59531341D01*
X196118716Y-59419537D01*
X196118715Y-59419536D01*
X196114385Y-59415206D01*
X196114374Y-59415196D01*
X195461359Y-58762181D01*
X195427874Y-58700858D01*
X195432858Y-58631166D01*
X195474730Y-58575233D01*
X195540194Y-58550816D01*
X195549040Y-58550500D01*
X195578844Y-58550500D01*
X195578845Y-58550499D01*
X195733497Y-58519737D01*
X195879179Y-58459394D01*
X196010289Y-58371789D01*
X196121789Y-58260289D01*
X196209394Y-58129179D01*
X196269737Y-57983497D01*
X196300500Y-57828842D01*
X196300500Y-57671158D01*
X196300500Y-57671155D01*
X196300499Y-57671153D01*
X196276755Y-57551786D01*
X196269737Y-57516503D01*
X196242608Y-57451007D01*
X196209397Y-57370827D01*
X196209390Y-57370814D01*
X196121398Y-57239125D01*
X196100520Y-57172447D01*
X196100500Y-57170234D01*
X196100500Y-55329765D01*
X196120185Y-55262726D01*
X196121398Y-55260874D01*
X196209390Y-55129185D01*
X196209390Y-55129184D01*
X196209394Y-55129179D01*
X196269737Y-54983497D01*
X196300500Y-54828842D01*
X196300500Y-54671158D01*
X196300500Y-54671155D01*
X196300499Y-54671153D01*
X196272628Y-54531037D01*
X196269737Y-54516503D01*
X196254725Y-54480261D01*
X196209397Y-54370827D01*
X196209390Y-54370814D01*
X196121789Y-54239711D01*
X196121786Y-54239707D01*
X196010292Y-54128213D01*
X196010288Y-54128210D01*
X195879185Y-54040609D01*
X195879172Y-54040602D01*
X195733501Y-53980264D01*
X195733491Y-53980261D01*
X195578149Y-53949361D01*
X195561392Y-53940595D01*
X195542914Y-53936576D01*
X195517877Y-53917833D01*
X195516238Y-53916976D01*
X195514660Y-53915425D01*
X195386819Y-53787584D01*
X195353334Y-53726261D01*
X195350500Y-53699903D01*
X195350500Y-53636555D01*
X195370185Y-53569516D01*
X195422989Y-53523761D01*
X195492147Y-53513817D01*
X195510411Y-53518840D01*
X195510676Y-53517969D01*
X195516492Y-53519732D01*
X195516503Y-53519737D01*
X195671153Y-53550499D01*
X195671156Y-53550500D01*
X195671158Y-53550500D01*
X195828844Y-53550500D01*
X195828845Y-53550499D01*
X195983497Y-53519737D01*
X196129179Y-53459394D01*
X196260289Y-53371789D01*
X196371789Y-53260289D01*
X196459394Y-53129179D01*
X196519737Y-52983497D01*
X196550500Y-52828842D01*
X196550500Y-52671158D01*
X196550500Y-52671155D01*
X196550499Y-52671153D01*
X196519738Y-52516510D01*
X196519737Y-52516503D01*
X196480155Y-52420943D01*
X196459397Y-52370827D01*
X196459390Y-52370814D01*
X196371398Y-52239125D01*
X196350520Y-52172447D01*
X196350500Y-52170234D01*
X196350500Y-50134851D01*
X196351146Y-50132648D01*
X196350579Y-50130425D01*
X196360942Y-50099286D01*
X196370185Y-50067812D01*
X196371918Y-50066309D01*
X196372644Y-50064131D01*
X196398198Y-50043538D01*
X196422989Y-50022057D01*
X196425818Y-50021280D01*
X196427048Y-50020290D01*
X196461241Y-50011561D01*
X196489101Y-50008567D01*
X196515606Y-50008568D01*
X196552166Y-50012499D01*
X196552182Y-50012500D01*
X196600000Y-50012500D01*
X196615611Y-49996888D01*
X196619685Y-49983015D01*
X196623582Y-49978828D01*
X196624733Y-49975744D01*
X196649685Y-49950790D01*
X196701690Y-49911859D01*
X196767154Y-49887443D01*
X196835426Y-49902295D01*
X196884832Y-49951700D01*
X196900000Y-50011127D01*
X196900000Y-50012500D01*
X196947828Y-50012500D01*
X196947844Y-50012499D01*
X197007372Y-50006098D01*
X197007379Y-50006096D01*
X197142086Y-49955854D01*
X197142093Y-49955850D01*
X197257187Y-49869690D01*
X197257190Y-49869687D01*
X197343350Y-49754593D01*
X197343354Y-49754586D01*
X197393596Y-49619879D01*
X197393598Y-49619872D01*
X197399999Y-49560344D01*
X197400000Y-49560327D01*
X197400000Y-49436500D01*
X197419685Y-49369461D01*
X197472489Y-49323706D01*
X197524000Y-49312500D01*
X198170000Y-49312500D01*
X198170000Y-47512500D01*
X196770000Y-47512500D01*
X196770000Y-47788500D01*
X196768018Y-47795248D01*
X196769244Y-47802175D01*
X196758302Y-47828337D01*
X196750315Y-47855539D01*
X196745000Y-47860144D01*
X196742286Y-47866634D01*
X196718938Y-47882727D01*
X196697511Y-47901294D01*
X196689160Y-47903252D01*
X196684758Y-47906287D01*
X196657777Y-47910612D01*
X196650004Y-47912435D01*
X196506350Y-47917076D01*
X196503858Y-47916431D01*
X196489092Y-47916431D01*
X196447873Y-47912000D01*
X196052130Y-47912000D01*
X196052119Y-47912001D01*
X196013253Y-47916179D01*
X195986746Y-47916178D01*
X195961244Y-47913436D01*
X195896693Y-47886698D01*
X195856845Y-47829305D01*
X195850500Y-47790147D01*
X195850500Y-47170946D01*
X195850499Y-47170939D01*
X195836711Y-47119480D01*
X195809577Y-47018215D01*
X195770437Y-46950423D01*
X195730520Y-46881284D01*
X195618716Y-46769480D01*
X195618715Y-46769479D01*
X195614385Y-46765149D01*
X195614374Y-46765139D01*
X194987590Y-46138355D01*
X194987588Y-46138352D01*
X194868717Y-46019481D01*
X194868716Y-46019480D01*
X194781904Y-45969360D01*
X194781904Y-45969359D01*
X194781900Y-45969358D01*
X194731785Y-45940423D01*
X194579057Y-45899499D01*
X194420943Y-45899499D01*
X194413347Y-45899499D01*
X194413331Y-45899500D01*
X192336670Y-45899500D01*
X192336654Y-45899499D01*
X192329058Y-45899499D01*
X192170943Y-45899499D01*
X192097964Y-45919054D01*
X192018214Y-45940423D01*
X192018209Y-45940426D01*
X191881290Y-46019475D01*
X191881282Y-46019481D01*
X191374217Y-46526546D01*
X191374214Y-46526548D01*
X191374215Y-46526549D01*
X191269479Y-46631285D01*
X191269478Y-46631287D01*
X191224322Y-46709500D01*
X191190424Y-46768212D01*
X191190423Y-46768213D01*
X191181743Y-46800609D01*
X191149499Y-46920943D01*
X191149499Y-46920945D01*
X191149499Y-47089046D01*
X191149500Y-47089059D01*
X191149500Y-47790148D01*
X191148853Y-47792350D01*
X191149421Y-47794575D01*
X191139058Y-47825708D01*
X191129815Y-47857187D01*
X191128080Y-47858690D01*
X191127355Y-47860869D01*
X191101798Y-47881463D01*
X191077011Y-47902942D01*
X191074181Y-47903718D01*
X191072951Y-47904710D01*
X191038753Y-47913438D01*
X191013255Y-47916179D01*
X190986748Y-47916179D01*
X190947874Y-47912000D01*
X190552130Y-47912000D01*
X190552119Y-47912001D01*
X190513253Y-47916179D01*
X190486748Y-47916179D01*
X190447874Y-47912000D01*
X190052132Y-47912000D01*
X190052117Y-47912001D01*
X190026177Y-47914789D01*
X190026170Y-47914791D01*
X189992517Y-47918409D01*
X189857669Y-47968704D01*
X189824308Y-47993677D01*
X189758845Y-48018093D01*
X189690572Y-48003241D01*
X189675694Y-47993679D01*
X189649688Y-47974211D01*
X189613887Y-47926387D01*
X189600000Y-47912500D01*
X189552165Y-47912500D01*
X189515598Y-47916431D01*
X189489092Y-47916431D01*
X189447873Y-47912000D01*
X189052130Y-47912000D01*
X189052119Y-47912001D01*
X189013253Y-47916179D01*
X188986748Y-47916179D01*
X188947874Y-47912000D01*
X188552130Y-47912000D01*
X188552119Y-47912001D01*
X188513253Y-47916179D01*
X188486748Y-47916179D01*
X188447874Y-47912000D01*
X188052130Y-47912000D01*
X188052119Y-47912001D01*
X188013253Y-47916179D01*
X187986748Y-47916179D01*
X187947874Y-47912000D01*
X187552130Y-47912000D01*
X187552119Y-47912001D01*
X187513253Y-47916179D01*
X187486748Y-47916179D01*
X187447874Y-47912000D01*
X187052130Y-47912000D01*
X187052119Y-47912001D01*
X187013253Y-47916179D01*
X186986748Y-47916179D01*
X186947874Y-47912000D01*
X186552130Y-47912000D01*
X186552119Y-47912001D01*
X186513253Y-47916179D01*
X186486748Y-47916179D01*
X186447874Y-47912000D01*
X186052130Y-47912000D01*
X186052119Y-47912001D01*
X186013253Y-47916179D01*
X185986748Y-47916179D01*
X185947874Y-47912000D01*
X185552130Y-47912000D01*
X185552119Y-47912001D01*
X185513253Y-47916179D01*
X185495852Y-47916820D01*
X185491284Y-47916667D01*
X185447873Y-47912000D01*
X185351917Y-47912000D01*
X185349850Y-47911931D01*
X185318559Y-47901593D01*
X185286961Y-47892315D01*
X185285551Y-47890688D01*
X185283507Y-47890013D01*
X185262769Y-47864396D01*
X185241206Y-47839511D01*
X185240685Y-47837116D01*
X185239545Y-47835708D01*
X185238695Y-47827972D01*
X185230000Y-47788000D01*
X185230000Y-47512500D01*
X183830000Y-47512500D01*
X183830000Y-49312500D01*
X184475501Y-49312500D01*
X184481995Y-49314406D01*
X184488654Y-49313200D01*
X184515093Y-49324125D01*
X184542540Y-49332185D01*
X184546971Y-49337298D01*
X184553227Y-49339884D01*
X184569563Y-49363372D01*
X184588295Y-49384989D01*
X184590202Y-49393044D01*
X184593123Y-49397244D01*
X184597337Y-49423184D01*
X184599418Y-49431972D01*
X184599500Y-49434240D01*
X184599501Y-49560372D01*
X184605909Y-49619983D01*
X184606329Y-49621110D01*
X184606644Y-49629720D01*
X184599069Y-49659501D01*
X184593610Y-49689755D01*
X184589634Y-49696593D01*
X184589421Y-49697433D01*
X184588821Y-49697992D01*
X184585830Y-49703138D01*
X184540608Y-49770817D01*
X184540602Y-49770828D01*
X184480264Y-49916498D01*
X184480261Y-49916510D01*
X184449500Y-50071153D01*
X184449500Y-50228846D01*
X184480261Y-50383489D01*
X184480264Y-50383501D01*
X184540602Y-50529172D01*
X184540609Y-50529185D01*
X184628602Y-50660874D01*
X184649480Y-50727551D01*
X184649500Y-50729765D01*
X184649500Y-51225575D01*
X184629815Y-51292614D01*
X184577011Y-51338369D01*
X184507853Y-51348313D01*
X184478048Y-51340137D01*
X184430314Y-51320365D01*
X184333497Y-51280263D01*
X184333492Y-51280262D01*
X184333489Y-51280261D01*
X184178845Y-51249500D01*
X184178842Y-51249500D01*
X184021158Y-51249500D01*
X184021155Y-51249500D01*
X183866510Y-51280261D01*
X183866498Y-51280264D01*
X183720827Y-51340602D01*
X183720814Y-51340609D01*
X183589711Y-51428210D01*
X183589707Y-51428213D01*
X183512181Y-51505740D01*
X183450858Y-51539225D01*
X183381166Y-51534241D01*
X183325233Y-51492369D01*
X183300816Y-51426905D01*
X183300500Y-51418059D01*
X183300500Y-51321155D01*
X183300499Y-51321153D01*
X183269738Y-51166510D01*
X183269737Y-51166503D01*
X183233427Y-51078842D01*
X183209397Y-51020827D01*
X183209390Y-51020814D01*
X183121789Y-50889711D01*
X183121786Y-50889707D01*
X183010292Y-50778213D01*
X183010288Y-50778210D01*
X182879185Y-50690609D01*
X182879172Y-50690602D01*
X182733501Y-50630264D01*
X182733489Y-50630261D01*
X182578845Y-50599500D01*
X182578842Y-50599500D01*
X182421158Y-50599500D01*
X182421155Y-50599500D01*
X182266510Y-50630261D01*
X182266498Y-50630264D01*
X182120827Y-50690602D01*
X182120814Y-50690609D01*
X181989711Y-50778210D01*
X181989707Y-50778213D01*
X181878213Y-50889707D01*
X181878210Y-50889711D01*
X181790609Y-51020814D01*
X181790602Y-51020827D01*
X181730264Y-51166498D01*
X181730261Y-51166510D01*
X181699500Y-51321153D01*
X181699500Y-51478846D01*
X181730261Y-51633489D01*
X181730264Y-51633501D01*
X181790602Y-51779172D01*
X181790609Y-51779185D01*
X181878602Y-51910874D01*
X181899480Y-51977551D01*
X181899500Y-51979765D01*
X181899500Y-65374685D01*
X181879815Y-65441724D01*
X181878602Y-65443576D01*
X181855603Y-65477995D01*
X181855596Y-65478008D01*
X181795258Y-65623679D01*
X181795255Y-65623691D01*
X181764494Y-65778334D01*
X181764494Y-65936027D01*
X181795255Y-66090670D01*
X181795258Y-66090682D01*
X181855596Y-66236353D01*
X181855603Y-66236366D01*
X181943204Y-66367469D01*
X181943207Y-66367473D01*
X182054701Y-66478967D01*
X182054705Y-66478970D01*
X182185808Y-66566571D01*
X182185821Y-66566578D01*
X182317591Y-66621158D01*
X182331497Y-66626918D01*
X182486147Y-66657680D01*
X182486150Y-66657681D01*
X182486152Y-66657681D01*
X182643838Y-66657681D01*
X182643839Y-66657680D01*
X182798491Y-66626918D01*
X182828049Y-66614674D01*
X182897516Y-66607206D01*
X182959995Y-66638480D01*
X182995648Y-66698569D01*
X182999500Y-66729236D01*
X182999500Y-66778846D01*
X183030261Y-66933489D01*
X183030264Y-66933501D01*
X183090602Y-67079172D01*
X183090609Y-67079185D01*
X183178210Y-67210288D01*
X183178213Y-67210292D01*
X183289707Y-67321786D01*
X183289711Y-67321789D01*
X183420814Y-67409390D01*
X183420827Y-67409397D01*
X183541525Y-67459391D01*
X183566503Y-67469737D01*
X183721153Y-67500499D01*
X183721156Y-67500500D01*
X183721158Y-67500500D01*
X183878844Y-67500500D01*
X183878845Y-67500499D01*
X184033497Y-67469737D01*
X184146166Y-67423067D01*
X184179172Y-67409397D01*
X184179172Y-67409396D01*
X184179179Y-67409394D01*
X184310289Y-67321789D01*
X184421789Y-67210289D01*
X184509394Y-67079179D01*
X184569737Y-66933497D01*
X184600500Y-66778842D01*
X184600500Y-66767334D01*
X184604649Y-66751845D01*
X184603995Y-66738102D01*
X184617112Y-66705336D01*
X184621019Y-66698569D01*
X184640591Y-66664669D01*
X184659577Y-66631785D01*
X184700500Y-66479057D01*
X184700500Y-66320943D01*
X184700500Y-58131941D01*
X184720185Y-58064902D01*
X184772989Y-58019147D01*
X184842147Y-58009203D01*
X184905703Y-58038228D01*
X184912181Y-58044260D01*
X184989707Y-58121786D01*
X184989711Y-58121789D01*
X185120814Y-58209390D01*
X185120827Y-58209397D01*
X185266498Y-58269735D01*
X185266503Y-58269737D01*
X185331147Y-58282595D01*
X185421849Y-58300638D01*
X185483760Y-58333023D01*
X185485339Y-58334574D01*
X185915139Y-58764374D01*
X185915149Y-58764385D01*
X185919479Y-58768715D01*
X185919480Y-58768716D01*
X186031284Y-58880520D01*
X186031286Y-58880521D01*
X186031290Y-58880524D01*
X186101667Y-58921156D01*
X186101671Y-58921157D01*
X186101672Y-58921158D01*
X186134943Y-58940367D01*
X186168212Y-58959576D01*
X186168214Y-58959576D01*
X186168215Y-58959577D01*
X186320942Y-59000500D01*
X186320943Y-59000500D01*
X187404452Y-59000500D01*
X187471491Y-59020185D01*
X187517246Y-59072989D01*
X187519013Y-59077048D01*
X187540606Y-59129179D01*
X187540607Y-59129182D01*
X187628210Y-59260288D01*
X187628213Y-59260292D01*
X187739707Y-59371786D01*
X187739711Y-59371789D01*
X187870814Y-59459390D01*
X187870827Y-59459397D01*
X188016498Y-59519735D01*
X188016503Y-59519737D01*
X188171153Y-59550499D01*
X188171156Y-59550500D01*
X188171158Y-59550500D01*
X188328844Y-59550500D01*
X188328845Y-59550499D01*
X188483497Y-59519737D01*
X188629179Y-59459394D01*
X188760289Y-59371789D01*
X188871789Y-59260289D01*
X188959394Y-59129179D01*
X189019737Y-58983497D01*
X189050500Y-58828842D01*
X189050500Y-58671158D01*
X189050500Y-58671155D01*
X189050499Y-58671153D01*
X189041957Y-58628211D01*
X189019737Y-58516503D01*
X189019735Y-58516498D01*
X188959397Y-58370827D01*
X188959390Y-58370814D01*
X188898267Y-58279337D01*
X188877389Y-58212659D01*
X188886808Y-58162993D01*
X188919737Y-58083497D01*
X188950500Y-57928842D01*
X188950500Y-57837901D01*
X188970185Y-57770862D01*
X189022989Y-57725107D01*
X189050301Y-57716285D01*
X189133497Y-57699737D01*
X189279179Y-57639394D01*
X189410289Y-57551789D01*
X189410292Y-57551786D01*
X189437819Y-57524260D01*
X189499142Y-57490775D01*
X189568834Y-57495759D01*
X189624767Y-57537631D01*
X189649184Y-57603095D01*
X189649500Y-57611941D01*
X189649500Y-58420234D01*
X189629815Y-58487273D01*
X189628602Y-58489125D01*
X189540609Y-58620814D01*
X189540602Y-58620827D01*
X189480264Y-58766498D01*
X189480261Y-58766510D01*
X189449500Y-58921153D01*
X189449500Y-59078846D01*
X189480261Y-59233489D01*
X189480264Y-59233501D01*
X189540602Y-59379172D01*
X189540609Y-59379185D01*
X189628602Y-59510874D01*
X189649480Y-59577551D01*
X189649500Y-59579765D01*
X189649500Y-66413331D01*
X189649499Y-66413349D01*
X189649499Y-66579055D01*
X189649498Y-66579055D01*
X189663627Y-66631785D01*
X189681522Y-66698569D01*
X189692527Y-66739637D01*
X189691832Y-66739822D01*
X189699500Y-66778365D01*
X189699500Y-66828847D01*
X189730261Y-66983490D01*
X189730264Y-66983502D01*
X189790602Y-67129173D01*
X189790609Y-67129186D01*
X189878210Y-67260289D01*
X189878213Y-67260293D01*
X189989707Y-67371787D01*
X189989711Y-67371790D01*
X190120814Y-67459391D01*
X190120827Y-67459398D01*
X190266498Y-67519736D01*
X190266503Y-67519738D01*
X190421153Y-67550500D01*
X190421156Y-67550501D01*
X190421158Y-67550501D01*
X190578844Y-67550501D01*
X190578845Y-67550500D01*
X190733497Y-67519738D01*
X190851592Y-67470822D01*
X190879172Y-67459398D01*
X190879172Y-67459397D01*
X190879179Y-67459395D01*
X191010289Y-67371790D01*
X191121789Y-67260290D01*
X191209394Y-67129180D01*
X191212946Y-67120606D01*
X191252068Y-67026154D01*
X191269737Y-66983498D01*
X191300500Y-66828843D01*
X191300500Y-66671159D01*
X191300500Y-66671156D01*
X191300499Y-66671154D01*
X191290554Y-66621158D01*
X191269737Y-66516504D01*
X191250085Y-66469059D01*
X191209397Y-66370828D01*
X191209390Y-66370815D01*
X191121789Y-66239712D01*
X191121786Y-66239708D01*
X191010289Y-66128211D01*
X190905609Y-66058267D01*
X190860804Y-66004655D01*
X190850500Y-65955165D01*
X190850500Y-64674500D01*
X190870185Y-64607461D01*
X190922989Y-64561706D01*
X190974500Y-64550500D01*
X191078844Y-64550500D01*
X191078845Y-64550499D01*
X191233497Y-64519737D01*
X191379179Y-64459394D01*
X191510289Y-64371789D01*
X191621789Y-64260289D01*
X191709394Y-64129179D01*
X191769737Y-63983497D01*
X191800500Y-63828842D01*
X191800500Y-63671158D01*
X191800500Y-63671155D01*
X191800499Y-63671153D01*
X191790271Y-63619735D01*
X191769737Y-63516503D01*
X191744218Y-63454894D01*
X191709397Y-63370827D01*
X191709390Y-63370814D01*
X191621398Y-63239125D01*
X191600520Y-63172447D01*
X191600500Y-63170234D01*
X191600500Y-61550097D01*
X191609145Y-61520653D01*
X191615668Y-61490671D01*
X191619422Y-61485655D01*
X191620185Y-61483058D01*
X191636813Y-61462421D01*
X191764663Y-61334571D01*
X191825982Y-61301089D01*
X191828150Y-61300638D01*
X191886085Y-61289113D01*
X191983497Y-61269737D01*
X192129179Y-61209394D01*
X192260289Y-61121789D01*
X192371789Y-61010289D01*
X192459394Y-60879179D01*
X192459395Y-60879176D01*
X192459397Y-60879173D01*
X192511535Y-60753298D01*
X192555375Y-60698894D01*
X192621669Y-60676829D01*
X192689369Y-60694108D01*
X192713777Y-60713069D01*
X193113181Y-61112473D01*
X193146666Y-61173796D01*
X193149500Y-61200154D01*
X193149500Y-64913330D01*
X193149499Y-64913348D01*
X193149499Y-65079054D01*
X193149498Y-65079054D01*
X193149499Y-65079057D01*
X193190423Y-65231785D01*
X193212335Y-65269737D01*
X193269480Y-65368716D01*
X193381284Y-65480520D01*
X193381285Y-65480521D01*
X193410264Y-65509500D01*
X193415425Y-65514660D01*
X193448911Y-65575983D01*
X193449362Y-65578151D01*
X193480261Y-65733491D01*
X193480264Y-65733501D01*
X193540602Y-65879172D01*
X193540609Y-65879185D01*
X193628210Y-66010288D01*
X193628213Y-66010292D01*
X193739707Y-66121786D01*
X193739711Y-66121789D01*
X193870814Y-66209390D01*
X193870827Y-66209397D01*
X194016498Y-66269735D01*
X194016503Y-66269737D01*
X194110645Y-66288463D01*
X194150691Y-66296429D01*
X194178814Y-66311139D01*
X194207703Y-66324333D01*
X194209560Y-66327222D01*
X194212602Y-66328814D01*
X194228308Y-66356396D01*
X194245477Y-66383111D01*
X194246137Y-66387705D01*
X194247176Y-66389529D01*
X194250500Y-66418046D01*
X194250500Y-66498959D01*
X194230815Y-66565998D01*
X194214181Y-66586640D01*
X193519481Y-67281339D01*
X193519475Y-67281347D01*
X193474855Y-67358633D01*
X193474855Y-67358634D01*
X193440423Y-67418272D01*
X193399499Y-67571000D01*
X193399499Y-67571002D01*
X193399499Y-67739103D01*
X193399500Y-67739116D01*
X193399500Y-72199902D01*
X193379815Y-72266941D01*
X193363181Y-72287583D01*
X192787584Y-72863181D01*
X192726261Y-72896666D01*
X192699903Y-72899500D01*
X191000000Y-72899500D01*
X191000000Y-72750000D01*
X188750000Y-72800000D01*
X188750000Y-72899500D01*
X188742348Y-72899500D01*
X188675309Y-72879815D01*
X188629554Y-72827011D01*
X188618348Y-72775500D01*
X188618348Y-72711726D01*
X188618347Y-72711724D01*
X188598276Y-72610821D01*
X188587585Y-72557074D01*
X188569042Y-72512307D01*
X188527245Y-72411398D01*
X188527238Y-72411385D01*
X188439246Y-72279696D01*
X188418368Y-72213018D01*
X188418348Y-72210805D01*
X188418348Y-68906907D01*
X188418349Y-68906894D01*
X188418349Y-68738793D01*
X188418349Y-68738791D01*
X188377425Y-68586063D01*
X188328767Y-68501785D01*
X188328765Y-68501781D01*
X188317111Y-68481594D01*
X188302504Y-68427079D01*
X188301097Y-68427218D01*
X188300500Y-68421163D01*
X188300500Y-68421158D01*
X188269737Y-68266503D01*
X188254280Y-68229186D01*
X188209397Y-68120827D01*
X188209390Y-68120814D01*
X188121789Y-67989711D01*
X188121786Y-67989707D01*
X188010292Y-67878213D01*
X188010288Y-67878210D01*
X187879185Y-67790609D01*
X187879172Y-67790602D01*
X187733501Y-67730264D01*
X187733489Y-67730261D01*
X187578845Y-67699500D01*
X187578842Y-67699500D01*
X187421158Y-67699500D01*
X187421155Y-67699500D01*
X187266510Y-67730261D01*
X187266498Y-67730264D01*
X187120827Y-67790602D01*
X187120814Y-67790609D01*
X186989711Y-67878210D01*
X186989707Y-67878213D01*
X186878213Y-67989707D01*
X186878210Y-67989711D01*
X186790609Y-68120814D01*
X186790602Y-68120827D01*
X186730264Y-68266498D01*
X186730261Y-68266510D01*
X186699500Y-68421153D01*
X186699500Y-68578846D01*
X186730261Y-68733489D01*
X186730264Y-68733501D01*
X186790602Y-68879172D01*
X186790609Y-68879185D01*
X186878210Y-69010288D01*
X186878213Y-69010292D01*
X186989710Y-69121789D01*
X187120815Y-69209390D01*
X187120821Y-69209394D01*
X187140799Y-69217669D01*
X187195202Y-69261507D01*
X187217269Y-69327801D01*
X187217348Y-69332230D01*
X187217348Y-72210805D01*
X187197663Y-72277844D01*
X187196450Y-72279696D01*
X187108457Y-72411385D01*
X187108450Y-72411398D01*
X187048112Y-72557069D01*
X187048109Y-72557081D01*
X187017348Y-72711724D01*
X187017348Y-72775500D01*
X187014797Y-72784185D01*
X187016086Y-72793147D01*
X187005107Y-72817187D01*
X186997663Y-72842539D01*
X186990822Y-72848466D01*
X186987061Y-72856703D01*
X186964826Y-72870992D01*
X186944859Y-72888294D01*
X186934344Y-72890581D01*
X186928283Y-72894477D01*
X186893348Y-72899500D01*
X186674500Y-72899500D01*
X186607461Y-72879815D01*
X186561706Y-72827011D01*
X186550500Y-72775500D01*
X186550500Y-72671155D01*
X186550499Y-72671153D01*
X186538497Y-72610814D01*
X186519737Y-72516503D01*
X186517997Y-72512303D01*
X186459397Y-72370827D01*
X186459390Y-72370814D01*
X186371398Y-72239125D01*
X186350520Y-72172447D01*
X186350500Y-72170234D01*
X186350500Y-66050097D01*
X186370185Y-65983058D01*
X186386819Y-65962416D01*
X186813746Y-65535489D01*
X187264662Y-65084572D01*
X187325983Y-65051089D01*
X187328150Y-65050638D01*
X187386085Y-65039113D01*
X187483497Y-65019737D01*
X187629179Y-64959394D01*
X187760289Y-64871789D01*
X187871789Y-64760289D01*
X187959394Y-64629179D01*
X188019737Y-64483497D01*
X188050500Y-64328842D01*
X188050500Y-64171158D01*
X188050500Y-64171155D01*
X188050499Y-64171153D01*
X188019738Y-64016510D01*
X188019738Y-64016508D01*
X188019737Y-64016503D01*
X187999062Y-63966588D01*
X187959397Y-63870827D01*
X187959390Y-63870814D01*
X187871398Y-63739125D01*
X187850520Y-63672447D01*
X187850500Y-63670234D01*
X187850500Y-62329765D01*
X187870185Y-62262726D01*
X187871398Y-62260874D01*
X187959390Y-62129185D01*
X187959390Y-62129184D01*
X187959394Y-62129179D01*
X188019737Y-61983497D01*
X188050500Y-61828842D01*
X188050500Y-61671158D01*
X188050500Y-61671155D01*
X188050499Y-61671153D01*
X188019737Y-61516503D01*
X188009037Y-61490671D01*
X187959397Y-61370827D01*
X187959390Y-61370814D01*
X187871789Y-61239711D01*
X187871786Y-61239707D01*
X187760292Y-61128213D01*
X187760288Y-61128210D01*
X187629185Y-61040609D01*
X187629172Y-61040602D01*
X187483501Y-60980264D01*
X187483489Y-60980261D01*
X187328845Y-60949500D01*
X187328842Y-60949500D01*
X187171158Y-60949500D01*
X187171155Y-60949500D01*
X187016510Y-60980261D01*
X187016498Y-60980264D01*
X186870827Y-61040602D01*
X186870814Y-61040609D01*
X186739711Y-61128210D01*
X186739707Y-61128213D01*
X186628213Y-61239707D01*
X186628210Y-61239711D01*
X186540609Y-61370814D01*
X186540602Y-61370827D01*
X186480264Y-61516498D01*
X186480261Y-61516510D01*
X186449500Y-61671153D01*
X186449500Y-61828846D01*
X186480261Y-61983489D01*
X186480264Y-61983501D01*
X186540602Y-62129172D01*
X186540609Y-62129185D01*
X186628602Y-62260874D01*
X186649480Y-62327551D01*
X186649500Y-62329765D01*
X186649500Y-63670234D01*
X186629815Y-63737273D01*
X186628602Y-63739125D01*
X186540609Y-63870814D01*
X186540602Y-63870827D01*
X186480264Y-64016498D01*
X186480261Y-64016508D01*
X186449361Y-64171850D01*
X186416976Y-64233761D01*
X186415425Y-64235339D01*
X185269481Y-65381282D01*
X185269477Y-65381287D01*
X185231510Y-65447050D01*
X185190424Y-65518211D01*
X185190423Y-65518212D01*
X185174944Y-65575983D01*
X185149499Y-65670943D01*
X185149499Y-65670945D01*
X185149499Y-65839046D01*
X185149500Y-65839059D01*
X185149500Y-71984870D01*
X185129815Y-72051909D01*
X185077011Y-72097664D01*
X185016454Y-72107758D01*
X185016454Y-72107980D01*
X185015123Y-72107980D01*
X185013359Y-72108274D01*
X185010371Y-72107980D01*
X185010362Y-72107980D01*
X184852678Y-72107980D01*
X184852675Y-72107980D01*
X184698030Y-72138741D01*
X184698018Y-72138744D01*
X184552347Y-72199082D01*
X184552334Y-72199089D01*
X184421231Y-72286690D01*
X184421227Y-72286693D01*
X184309733Y-72398187D01*
X184309730Y-72398191D01*
X184222129Y-72529294D01*
X184222122Y-72529307D01*
X184161784Y-72674978D01*
X184161781Y-72674990D01*
X184131020Y-72829633D01*
X184131020Y-72987326D01*
X184161781Y-73141969D01*
X184161784Y-73141981D01*
X184222122Y-73287652D01*
X184222129Y-73287665D01*
X184309730Y-73418768D01*
X184309733Y-73418772D01*
X184421227Y-73530266D01*
X184421231Y-73530269D01*
X184552334Y-73617870D01*
X184552347Y-73617877D01*
X184647773Y-73657403D01*
X184698023Y-73678217D01*
X184762667Y-73691075D01*
X184853369Y-73709118D01*
X184915280Y-73741503D01*
X184916859Y-73743054D01*
X184965590Y-73791785D01*
X185042519Y-73868714D01*
X185042521Y-73868716D01*
X185154325Y-73980520D01*
X185154327Y-73980521D01*
X185154331Y-73980524D01*
X185246146Y-74033533D01*
X185246150Y-74033534D01*
X185246151Y-74033535D01*
X185268704Y-74046556D01*
X185291254Y-74059576D01*
X185291256Y-74059576D01*
X185291257Y-74059577D01*
X185443984Y-74100500D01*
X185602099Y-74100500D01*
X188750000Y-74100500D01*
X188750000Y-77000000D01*
X181250000Y-77000000D01*
X181250000Y-76999999D01*
X181249999Y-76999999D01*
X181199999Y-81249999D01*
X181199999Y-81250000D01*
X181200000Y-81250000D01*
X181250000Y-81250000D01*
X194309500Y-81250000D01*
X194309500Y-81949901D01*
X194300856Y-81979337D01*
X194294333Y-82009327D01*
X194290577Y-82014343D01*
X194289815Y-82016940D01*
X194273182Y-82037581D01*
X194217584Y-82093180D01*
X194156261Y-82126666D01*
X194129902Y-82129500D01*
X187526669Y-82129500D01*
X187526653Y-82129499D01*
X187519057Y-82129499D01*
X187360943Y-82129499D01*
X187253587Y-82158265D01*
X187208210Y-82170424D01*
X187208209Y-82170425D01*
X187158096Y-82199359D01*
X187158095Y-82199360D01*
X187114689Y-82224420D01*
X187071285Y-82249479D01*
X187071282Y-82249481D01*
X186095339Y-83225425D01*
X186034016Y-83258910D01*
X186031850Y-83259361D01*
X185876508Y-83290261D01*
X185876498Y-83290264D01*
X185730827Y-83350602D01*
X185730814Y-83350609D01*
X185599711Y-83438210D01*
X185498047Y-83539874D01*
X185436724Y-83573358D01*
X185367032Y-83568374D01*
X185322685Y-83539873D01*
X185164841Y-83382029D01*
X185164839Y-83382027D01*
X184978194Y-83246421D01*
X184772633Y-83141683D01*
X184682264Y-83112320D01*
X184553219Y-83070390D01*
X184356508Y-83039234D01*
X184325353Y-83034300D01*
X184094647Y-83034300D01*
X184067239Y-83038641D01*
X183866780Y-83070390D01*
X183695805Y-83125944D01*
X183647367Y-83141683D01*
X183647364Y-83141684D01*
X183647362Y-83141685D01*
X183441805Y-83246421D01*
X183381461Y-83290264D01*
X183255161Y-83382027D01*
X183255159Y-83382029D01*
X183255158Y-83382029D01*
X183092029Y-83545158D01*
X183092029Y-83545159D01*
X183092027Y-83545161D01*
X183075162Y-83568374D01*
X182956421Y-83731805D01*
X182851685Y-83937362D01*
X182851684Y-83937364D01*
X182851683Y-83937367D01*
X182846445Y-83953489D01*
X182780390Y-84156780D01*
X182752461Y-84333120D01*
X182744300Y-84384647D01*
X182744300Y-84615353D01*
X182753597Y-84674053D01*
X182780391Y-84843220D01*
X182780391Y-84843223D01*
X182815068Y-84949946D01*
X182815502Y-84965158D01*
X182820821Y-84979418D01*
X182816479Y-84999373D01*
X182817063Y-85019787D01*
X182808974Y-85033873D01*
X182805969Y-85047691D01*
X182784818Y-85075945D01*
X182707484Y-85153279D01*
X182646161Y-85186764D01*
X182576469Y-85181780D01*
X182520536Y-85139908D01*
X182497330Y-85084996D01*
X182469121Y-84906897D01*
X182397852Y-84687553D01*
X182293151Y-84482067D01*
X182237744Y-84405807D01*
X182237744Y-84405806D01*
X181529494Y-85114056D01*
X181513381Y-85053919D01*
X181446502Y-84938080D01*
X181351920Y-84843498D01*
X181236081Y-84776619D01*
X181175941Y-84760504D01*
X181884192Y-84052254D01*
X181884191Y-84052253D01*
X181807935Y-83996850D01*
X181602446Y-83892147D01*
X181383102Y-83820877D01*
X181155319Y-83784800D01*
X180924681Y-83784800D01*
X180696896Y-83820878D01*
X180696893Y-83820878D01*
X180512818Y-83880689D01*
X180442977Y-83882684D01*
X180383144Y-83846604D01*
X180352316Y-83783903D01*
X180350500Y-83762758D01*
X180350500Y-77060040D01*
X180370185Y-76993001D01*
X180386819Y-76972359D01*
X181266139Y-76093039D01*
X182275365Y-75083814D01*
X182354422Y-74946882D01*
X182395346Y-74794155D01*
X182395346Y-74636040D01*
X182395346Y-74628445D01*
X182395345Y-74628427D01*
X182395345Y-73801466D01*
X182415030Y-73734427D01*
X182416243Y-73732575D01*
X182504235Y-73600886D01*
X182504235Y-73600885D01*
X182504239Y-73600880D01*
X182564582Y-73455198D01*
X182595345Y-73300543D01*
X182595345Y-73142859D01*
X182595345Y-73142856D01*
X182595344Y-73142854D01*
X182590459Y-73118294D01*
X182564582Y-72988204D01*
X182526666Y-72896666D01*
X182504242Y-72842528D01*
X182504235Y-72842515D01*
X182416634Y-72711412D01*
X182416631Y-72711408D01*
X182305137Y-72599914D01*
X182305133Y-72599911D01*
X182174030Y-72512310D01*
X182174017Y-72512303D01*
X182028346Y-72451965D01*
X182028334Y-72451962D01*
X181873690Y-72421201D01*
X181873687Y-72421201D01*
X181716003Y-72421201D01*
X181716000Y-72421201D01*
X181561355Y-72451962D01*
X181561343Y-72451965D01*
X181415672Y-72512303D01*
X181415659Y-72512310D01*
X181284556Y-72599911D01*
X181284552Y-72599914D01*
X181173058Y-72711408D01*
X181173055Y-72711412D01*
X181085454Y-72842515D01*
X181085447Y-72842528D01*
X181025109Y-72988199D01*
X181025106Y-72988211D01*
X180994345Y-73142854D01*
X180994345Y-73300547D01*
X181025106Y-73455190D01*
X181025109Y-73455202D01*
X181085447Y-73600873D01*
X181085457Y-73600891D01*
X181095960Y-73616610D01*
X181116838Y-73683287D01*
X181098353Y-73750667D01*
X181046374Y-73797357D01*
X180992858Y-73809500D01*
X180971155Y-73809500D01*
X180816510Y-73840261D01*
X180816498Y-73840264D01*
X180670827Y-73900602D01*
X180670814Y-73900609D01*
X180539711Y-73988210D01*
X180539707Y-73988213D01*
X180428213Y-74099707D01*
X180428210Y-74099711D01*
X180340609Y-74230814D01*
X180340602Y-74230827D01*
X180280264Y-74376498D01*
X180280261Y-74376508D01*
X180249362Y-74531848D01*
X180216977Y-74593759D01*
X180215426Y-74595337D01*
X179092181Y-75718583D01*
X179030858Y-75752068D01*
X178961166Y-75747084D01*
X178905233Y-75705212D01*
X178880816Y-75639748D01*
X178880500Y-75630902D01*
X178880500Y-73889945D01*
X178900185Y-73822906D01*
X178952989Y-73777151D01*
X178980309Y-73768328D01*
X178995894Y-73765227D01*
X179023497Y-73759737D01*
X179169179Y-73699394D01*
X179300289Y-73611789D01*
X179411789Y-73500289D01*
X179499394Y-73369179D01*
X179559737Y-73223497D01*
X179590500Y-73068842D01*
X179590500Y-72911158D01*
X179590500Y-72911155D01*
X179590499Y-72911153D01*
X179576851Y-72842539D01*
X179559737Y-72756503D01*
X179541058Y-72711408D01*
X179499397Y-72610827D01*
X179499390Y-72610814D01*
X179411789Y-72479711D01*
X179411786Y-72479707D01*
X179300292Y-72368213D01*
X179300288Y-72368210D01*
X179169185Y-72280609D01*
X179169172Y-72280602D01*
X179023501Y-72220264D01*
X179023489Y-72220261D01*
X178868845Y-72189500D01*
X178868842Y-72189500D01*
X178711158Y-72189500D01*
X178711155Y-72189500D01*
X178556510Y-72220261D01*
X178556498Y-72220264D01*
X178410827Y-72280602D01*
X178410814Y-72280609D01*
X178279711Y-72368210D01*
X178279707Y-72368213D01*
X178168213Y-72479707D01*
X178168210Y-72479711D01*
X178080609Y-72610814D01*
X178080602Y-72610827D01*
X178020264Y-72756498D01*
X178020261Y-72756508D01*
X177996811Y-72874398D01*
X177988046Y-72891153D01*
X177984027Y-72909632D01*
X177965283Y-72934669D01*
X177964426Y-72936309D01*
X177962876Y-72937886D01*
X177904224Y-72996538D01*
X177904212Y-72996552D01*
X177799478Y-73101286D01*
X177754183Y-73179742D01*
X177754182Y-73179743D01*
X177728918Y-73223501D01*
X177720423Y-73238215D01*
X177679499Y-73390943D01*
X177679499Y-73390945D01*
X177679499Y-73559046D01*
X177679500Y-73559059D01*
X177679500Y-76347041D01*
X177659815Y-76414080D01*
X177607011Y-76459835D01*
X177537853Y-76469779D01*
X177474297Y-76440754D01*
X177467819Y-76434722D01*
X174755278Y-73722181D01*
X174721793Y-73660858D01*
X174726777Y-73591166D01*
X174768649Y-73535233D01*
X174834113Y-73510816D01*
X174842959Y-73510500D01*
X174968844Y-73510500D01*
X174968845Y-73510499D01*
X175123497Y-73479737D01*
X175269179Y-73419394D01*
X175400289Y-73331789D01*
X175511789Y-73220289D01*
X175599394Y-73089179D01*
X175606287Y-73072539D01*
X175641221Y-72988199D01*
X175659737Y-72943497D01*
X175690500Y-72788842D01*
X175690500Y-72631158D01*
X175690500Y-72631155D01*
X175690499Y-72631153D01*
X175684285Y-72599912D01*
X175659737Y-72476503D01*
X175649572Y-72451962D01*
X175599397Y-72330827D01*
X175599390Y-72330814D01*
X175511398Y-72199125D01*
X175490520Y-72132447D01*
X175490500Y-72130234D01*
X175490500Y-68442940D01*
X175510185Y-68375901D01*
X175526816Y-68355261D01*
X175541789Y-68340289D01*
X175629394Y-68209179D01*
X175689737Y-68063497D01*
X175720500Y-67908842D01*
X175720500Y-67751158D01*
X175720500Y-67751155D01*
X175720499Y-67751153D01*
X175716115Y-67729114D01*
X175689737Y-67596503D01*
X175679174Y-67571002D01*
X175629397Y-67450827D01*
X175629390Y-67450814D01*
X175541789Y-67319711D01*
X175541786Y-67319707D01*
X175430292Y-67208213D01*
X175430288Y-67208210D01*
X175299185Y-67120609D01*
X175299172Y-67120602D01*
X175153501Y-67060264D01*
X175153489Y-67060261D01*
X174998845Y-67029500D01*
X174998842Y-67029500D01*
X174841158Y-67029500D01*
X174841157Y-67029500D01*
X174838688Y-67029991D01*
X174837369Y-67029872D01*
X174835095Y-67030097D01*
X174835052Y-67029665D01*
X174817704Y-67028112D01*
X174796853Y-67031111D01*
X174783604Y-67025060D01*
X174769097Y-67023762D01*
X174752461Y-67010837D01*
X174733297Y-67002086D01*
X174725421Y-66989831D01*
X174713921Y-66980897D01*
X174706913Y-66961032D01*
X174695523Y-66943308D01*
X174691987Y-66918719D01*
X174690678Y-66915007D01*
X174690500Y-66908373D01*
X174690500Y-66889765D01*
X174710185Y-66822726D01*
X174711398Y-66820874D01*
X174799390Y-66689185D01*
X174799390Y-66689184D01*
X174799394Y-66689179D01*
X174859737Y-66543497D01*
X174890500Y-66388842D01*
X174890500Y-66231158D01*
X174890500Y-66231155D01*
X174890499Y-66231153D01*
X174886170Y-66209390D01*
X174859737Y-66076503D01*
X174856015Y-66067517D01*
X174799397Y-65930827D01*
X174799390Y-65930814D01*
X174711789Y-65799711D01*
X174711786Y-65799707D01*
X174600292Y-65688213D01*
X174600288Y-65688210D01*
X174469185Y-65600609D01*
X174469172Y-65600602D01*
X174323501Y-65540264D01*
X174323489Y-65540261D01*
X174168845Y-65509500D01*
X174168842Y-65509500D01*
X174011158Y-65509500D01*
X174005066Y-65509500D01*
X174005066Y-65506791D01*
X173947864Y-65495865D01*
X173897216Y-65447734D01*
X173880500Y-65385555D01*
X173880500Y-63774500D01*
X173900185Y-63707461D01*
X173952989Y-63661706D01*
X173992970Y-63653008D01*
X173992782Y-63651097D01*
X173998836Y-63650500D01*
X173998842Y-63650500D01*
X174153497Y-63619737D01*
X174299179Y-63559394D01*
X174430289Y-63471789D01*
X174541789Y-63360289D01*
X174629394Y-63229179D01*
X174689737Y-63083497D01*
X174720500Y-62928842D01*
X174720500Y-62771158D01*
X174720500Y-62771155D01*
X174720499Y-62771153D01*
X174689738Y-62616510D01*
X174689737Y-62616503D01*
X174640051Y-62496549D01*
X174629397Y-62470827D01*
X174629390Y-62470814D01*
X174541789Y-62339711D01*
X174541786Y-62339707D01*
X174516819Y-62314740D01*
X174483334Y-62253417D01*
X174480500Y-62227059D01*
X174480500Y-60259765D01*
X174500185Y-60192726D01*
X174501398Y-60190874D01*
X174589390Y-60059185D01*
X174589390Y-60059184D01*
X174589394Y-60059179D01*
X174649737Y-59913497D01*
X174656756Y-59878211D01*
X174666285Y-59830308D01*
X174698670Y-59768397D01*
X174759386Y-59733823D01*
X174787902Y-59730500D01*
X174838844Y-59730500D01*
X174838845Y-59730499D01*
X174993497Y-59699737D01*
X175139179Y-59639394D01*
X175270289Y-59551789D01*
X175381789Y-59440289D01*
X175463980Y-59317282D01*
X175517592Y-59272477D01*
X175586917Y-59263770D01*
X175591274Y-59264556D01*
X175621155Y-59270500D01*
X175621158Y-59270500D01*
X175778844Y-59270500D01*
X175891308Y-59248129D01*
X175960900Y-59254356D01*
X176016077Y-59297219D01*
X176039322Y-59363108D01*
X176039500Y-59369746D01*
X176039500Y-68423330D01*
X176039499Y-68423348D01*
X176039499Y-68589054D01*
X176039498Y-68589054D01*
X176047720Y-68619738D01*
X176080423Y-68741785D01*
X176091970Y-68761784D01*
X176097443Y-68771264D01*
X176159479Y-68878714D01*
X176159481Y-68878717D01*
X176278349Y-68997585D01*
X176278355Y-68997590D01*
X177105425Y-69824660D01*
X177138910Y-69885983D01*
X177139361Y-69888149D01*
X177170261Y-70043491D01*
X177170264Y-70043501D01*
X177230602Y-70189172D01*
X177230609Y-70189185D01*
X177318210Y-70320288D01*
X177318213Y-70320292D01*
X177429707Y-70431786D01*
X177429711Y-70431789D01*
X177560814Y-70519390D01*
X177560827Y-70519397D01*
X177706498Y-70579735D01*
X177706503Y-70579737D01*
X177861153Y-70610499D01*
X177861156Y-70610500D01*
X177861158Y-70610500D01*
X178018844Y-70610500D01*
X178018845Y-70610499D01*
X178173497Y-70579737D01*
X178319179Y-70519394D01*
X178450289Y-70431789D01*
X178561789Y-70320289D01*
X178649394Y-70189179D01*
X178649395Y-70189176D01*
X178649397Y-70189173D01*
X178702964Y-70059848D01*
X178746804Y-70005444D01*
X178793334Y-69985683D01*
X178829254Y-69978537D01*
X178873497Y-69969737D01*
X179019179Y-69909394D01*
X179150289Y-69821789D01*
X179261789Y-69710289D01*
X179349394Y-69579179D01*
X179409737Y-69433497D01*
X179440500Y-69278842D01*
X179440500Y-69121158D01*
X179440500Y-69121155D01*
X179440499Y-69121153D01*
X179425457Y-69045531D01*
X179409737Y-68966503D01*
X179405359Y-68955934D01*
X179349397Y-68820827D01*
X179349393Y-68820820D01*
X179346639Y-68816698D01*
X179325761Y-68750020D01*
X179344245Y-68682640D01*
X179396224Y-68635949D01*
X179465193Y-68624773D01*
X179473933Y-68626189D01*
X179596155Y-68650501D01*
X179596158Y-68650501D01*
X179753844Y-68650501D01*
X179753845Y-68650500D01*
X179908497Y-68619738D01*
X180037323Y-68566377D01*
X180054172Y-68559398D01*
X180054172Y-68559397D01*
X180054179Y-68559395D01*
X180185289Y-68471790D01*
X180296789Y-68360290D01*
X180384394Y-68229180D01*
X180444737Y-68083498D01*
X180475500Y-67928843D01*
X180475500Y-67771159D01*
X180475500Y-67771156D01*
X180475499Y-67771154D01*
X180444737Y-67616504D01*
X180436455Y-67596510D01*
X180384397Y-67470828D01*
X180384390Y-67470815D01*
X180296789Y-67339712D01*
X180296786Y-67339708D01*
X180186819Y-67229741D01*
X180153334Y-67168418D01*
X180150500Y-67142060D01*
X180150500Y-66469059D01*
X180150501Y-66469046D01*
X180150501Y-66300945D01*
X180150501Y-66300943D01*
X180109577Y-66148215D01*
X180065241Y-66071423D01*
X180030520Y-66011284D01*
X179918716Y-65899480D01*
X179918715Y-65899479D01*
X179914385Y-65895149D01*
X179914374Y-65895139D01*
X179536819Y-65517584D01*
X179522115Y-65490656D01*
X179505523Y-65464838D01*
X179504631Y-65458637D01*
X179503334Y-65456261D01*
X179500500Y-65429903D01*
X179500500Y-65417648D01*
X179520185Y-65350609D01*
X179572989Y-65304854D01*
X179642147Y-65294910D01*
X179648672Y-65296027D01*
X179671158Y-65300500D01*
X179828844Y-65300500D01*
X179828845Y-65300499D01*
X179983497Y-65269737D01*
X180129179Y-65209394D01*
X180260289Y-65121789D01*
X180371789Y-65010289D01*
X180459394Y-64879179D01*
X180519737Y-64733497D01*
X180550500Y-64578842D01*
X180550500Y-64578840D01*
X180550637Y-64578152D01*
X180570640Y-64531275D01*
X180576872Y-64522363D01*
X180629520Y-64469716D01*
X180701683Y-64344725D01*
X180708577Y-64332785D01*
X180749500Y-64180058D01*
X180749500Y-64021943D01*
X180749500Y-51683940D01*
X180769185Y-51616901D01*
X180785814Y-51596263D01*
X180871789Y-51510289D01*
X180959394Y-51379179D01*
X181019737Y-51233497D01*
X181050500Y-51078842D01*
X181050500Y-50921158D01*
X181050500Y-50921155D01*
X181050499Y-50921153D01*
X181022066Y-50778211D01*
X181019737Y-50766503D01*
X181019735Y-50766498D01*
X180959397Y-50620827D01*
X180959390Y-50620814D01*
X180871789Y-50489711D01*
X180871786Y-50489707D01*
X180760292Y-50378213D01*
X180760288Y-50378210D01*
X180629185Y-50290609D01*
X180629172Y-50290602D01*
X180483501Y-50230264D01*
X180483489Y-50230261D01*
X180328845Y-50199500D01*
X180328842Y-50199500D01*
X180214500Y-50199500D01*
X180147461Y-50179815D01*
X180101706Y-50127011D01*
X180090500Y-50075500D01*
X180090500Y-48860344D01*
X181930000Y-48860344D01*
X181936401Y-48919872D01*
X181936403Y-48919879D01*
X181986645Y-49054586D01*
X181986649Y-49054593D01*
X182072809Y-49169687D01*
X182072812Y-49169690D01*
X182187906Y-49255850D01*
X182187913Y-49255854D01*
X182322620Y-49306096D01*
X182322627Y-49306098D01*
X182382155Y-49312499D01*
X182382172Y-49312500D01*
X183330000Y-49312500D01*
X183330000Y-47512500D01*
X181930000Y-47512500D01*
X181930000Y-48860344D01*
X180090500Y-48860344D01*
X180090500Y-47322783D01*
X180110185Y-47255744D01*
X180118647Y-47244118D01*
X180121789Y-47240289D01*
X180209390Y-47109185D01*
X180209390Y-47109184D01*
X180209394Y-47109179D01*
X180269737Y-46963497D01*
X180300500Y-46808842D01*
X180300500Y-46651158D01*
X180300500Y-46651155D01*
X180300499Y-46651153D01*
X180276399Y-46529997D01*
X180269737Y-46496503D01*
X180269735Y-46496498D01*
X180209397Y-46350827D01*
X180209390Y-46350814D01*
X180121789Y-46219711D01*
X180121786Y-46219707D01*
X180010292Y-46108213D01*
X180010288Y-46108210D01*
X179879185Y-46020609D01*
X179879172Y-46020602D01*
X179733501Y-45960264D01*
X179733491Y-45960261D01*
X179600308Y-45933769D01*
X179572177Y-45919054D01*
X179543297Y-45905865D01*
X179541440Y-45902975D01*
X179538397Y-45901384D01*
X179522684Y-45873791D01*
X179505523Y-45847087D01*
X179504862Y-45842493D01*
X179503823Y-45840668D01*
X179500500Y-45812152D01*
X179500500Y-45664655D01*
X181930000Y-45664655D01*
X181930000Y-47012500D01*
X183330000Y-47012500D01*
X183830000Y-47012500D01*
X185230000Y-47012500D01*
X185230000Y-45664672D01*
X185229999Y-45664655D01*
X196770000Y-45664655D01*
X196770000Y-47012500D01*
X198170000Y-47012500D01*
X198170000Y-45212500D01*
X197222155Y-45212500D01*
X197162627Y-45218901D01*
X197162620Y-45218903D01*
X197027913Y-45269145D01*
X197027906Y-45269149D01*
X196912812Y-45355309D01*
X196912809Y-45355312D01*
X196826649Y-45470406D01*
X196826645Y-45470413D01*
X196776403Y-45605120D01*
X196776401Y-45605127D01*
X196770000Y-45664655D01*
X185229999Y-45664655D01*
X185223598Y-45605127D01*
X185223596Y-45605120D01*
X185173354Y-45470413D01*
X185173350Y-45470406D01*
X185087190Y-45355312D01*
X185087187Y-45355309D01*
X184972093Y-45269149D01*
X184972086Y-45269145D01*
X184837379Y-45218903D01*
X184837372Y-45218901D01*
X184777844Y-45212500D01*
X183830000Y-45212500D01*
X183830000Y-47012500D01*
X183330000Y-47012500D01*
X183330000Y-45212500D01*
X182382155Y-45212500D01*
X182322627Y-45218901D01*
X182322620Y-45218903D01*
X182187913Y-45269145D01*
X182187906Y-45269149D01*
X182072812Y-45355309D01*
X182072809Y-45355312D01*
X181986649Y-45470406D01*
X181986645Y-45470413D01*
X181936403Y-45605120D01*
X181936401Y-45605127D01*
X181930000Y-45664655D01*
X179500500Y-45664655D01*
X179500500Y-45120945D01*
X179500500Y-45120943D01*
X179459577Y-44968216D01*
X179442727Y-44939031D01*
X179380524Y-44831290D01*
X179380518Y-44831282D01*
X179297124Y-44747888D01*
X179288060Y-44731289D01*
X179274929Y-44717680D01*
X179264523Y-44688185D01*
X179263639Y-44686565D01*
X179263198Y-44684452D01*
X179256085Y-44648689D01*
X179262314Y-44579098D01*
X179305178Y-44523921D01*
X179371068Y-44500678D01*
X179377703Y-44500500D01*
X199575500Y-44500500D01*
X199642539Y-44520185D01*
G37*
%TD.AperFunction*%
%TA.AperFunction,Conductor*%
G36*
X188489730Y-83350185D02*
G01*
X188510372Y-83366819D01*
X189154058Y-84010504D01*
X189093919Y-84026619D01*
X188978080Y-84093498D01*
X188883498Y-84188080D01*
X188816619Y-84303919D01*
X188800504Y-84364057D01*
X188092254Y-83655807D01*
X188036847Y-83732069D01*
X187932147Y-83937553D01*
X187860877Y-84156897D01*
X187824800Y-84384680D01*
X187824800Y-84615319D01*
X187860877Y-84843102D01*
X187932147Y-85062446D01*
X188036850Y-85267935D01*
X188092253Y-85344191D01*
X188092254Y-85344192D01*
X188800504Y-84635941D01*
X188816619Y-84696081D01*
X188883498Y-84811920D01*
X188978080Y-84906502D01*
X189093919Y-84973381D01*
X189154057Y-84989494D01*
X188445806Y-85697744D01*
X188522067Y-85753151D01*
X188727553Y-85857852D01*
X188946897Y-85929122D01*
X189174681Y-85965200D01*
X189405319Y-85965200D01*
X189633102Y-85929122D01*
X189852446Y-85857852D01*
X190057924Y-85753155D01*
X190057930Y-85753151D01*
X190134191Y-85697744D01*
X190134192Y-85697744D01*
X189425942Y-84989495D01*
X189486081Y-84973381D01*
X189601920Y-84906502D01*
X189696502Y-84811920D01*
X189763381Y-84696081D01*
X189779494Y-84635942D01*
X190487744Y-85344192D01*
X190487744Y-85344191D01*
X190543151Y-85267930D01*
X190543153Y-85267927D01*
X190548709Y-85257023D01*
X190596680Y-85206224D01*
X190664500Y-85189423D01*
X190730636Y-85211956D01*
X190759516Y-85240425D01*
X190762252Y-85244191D01*
X190762254Y-85244192D01*
X191470504Y-84535941D01*
X191486619Y-84596081D01*
X191553498Y-84711920D01*
X191648080Y-84806502D01*
X191763919Y-84873381D01*
X191824056Y-84889494D01*
X191115806Y-85597744D01*
X191192067Y-85653151D01*
X191397553Y-85757852D01*
X191616894Y-85829121D01*
X191622337Y-85829983D01*
X191685473Y-85859910D01*
X191722407Y-85919220D01*
X191721412Y-85989083D01*
X191690625Y-86040138D01*
X189754522Y-87976241D01*
X189693199Y-88009726D01*
X189628523Y-88006491D01*
X189586245Y-87992754D01*
X189446272Y-87970584D01*
X189376287Y-87959500D01*
X189163713Y-87959500D01*
X189115042Y-87967208D01*
X188953760Y-87992753D01*
X188751585Y-88058444D01*
X188562179Y-88154951D01*
X188390213Y-88279890D01*
X188239890Y-88430213D01*
X188114949Y-88602182D01*
X188110484Y-88610946D01*
X188062509Y-88661742D01*
X187994688Y-88678536D01*
X187928553Y-88655998D01*
X187889516Y-88610946D01*
X187885050Y-88602182D01*
X187760109Y-88430213D01*
X187609786Y-88279890D01*
X187437820Y-88154951D01*
X187248414Y-88058444D01*
X187248413Y-88058443D01*
X187248412Y-88058443D01*
X187046243Y-87992754D01*
X187046241Y-87992753D01*
X187046240Y-87992753D01*
X186884957Y-87967208D01*
X186836287Y-87959500D01*
X186623713Y-87959500D01*
X186575042Y-87967208D01*
X186413760Y-87992753D01*
X186211585Y-88058444D01*
X186022179Y-88154951D01*
X185850215Y-88279889D01*
X185736285Y-88393819D01*
X185674962Y-88427303D01*
X185605270Y-88422319D01*
X185549337Y-88380447D01*
X185532422Y-88349470D01*
X185483354Y-88217913D01*
X185483350Y-88217906D01*
X185397190Y-88102812D01*
X185397187Y-88102809D01*
X185282093Y-88016649D01*
X185282086Y-88016645D01*
X185147379Y-87966403D01*
X185147372Y-87966401D01*
X185087844Y-87960000D01*
X184440000Y-87960000D01*
X184440000Y-88876988D01*
X184382993Y-88844075D01*
X184255826Y-88810000D01*
X184124174Y-88810000D01*
X183997007Y-88844075D01*
X183940000Y-88876988D01*
X183940000Y-87960000D01*
X183292155Y-87960000D01*
X183232627Y-87966401D01*
X183232620Y-87966403D01*
X183097913Y-88016645D01*
X183097906Y-88016649D01*
X182982812Y-88102809D01*
X182982809Y-88102812D01*
X182896649Y-88217906D01*
X182896645Y-88217913D01*
X182846403Y-88352620D01*
X182846401Y-88352627D01*
X182840000Y-88412155D01*
X182840000Y-89060000D01*
X183756988Y-89060000D01*
X183724075Y-89117007D01*
X183690000Y-89244174D01*
X183690000Y-89375826D01*
X183724075Y-89502993D01*
X183756988Y-89560000D01*
X182840000Y-89560000D01*
X182840000Y-89736500D01*
X182837449Y-89745185D01*
X182838738Y-89754147D01*
X182827759Y-89778187D01*
X182820315Y-89803539D01*
X182813474Y-89809466D01*
X182809713Y-89817703D01*
X182787478Y-89831992D01*
X182767511Y-89849294D01*
X182756996Y-89851581D01*
X182750935Y-89855477D01*
X182716000Y-89860500D01*
X182664500Y-89860500D01*
X182597461Y-89840815D01*
X182551706Y-89788011D01*
X182540500Y-89736500D01*
X182540500Y-89621155D01*
X182540499Y-89621153D01*
X182526106Y-89548794D01*
X182509737Y-89466503D01*
X182507163Y-89460288D01*
X182449397Y-89320827D01*
X182449390Y-89320814D01*
X182361398Y-89189125D01*
X182340520Y-89122447D01*
X182340500Y-89120234D01*
X182340500Y-87270096D01*
X182360185Y-87203057D01*
X182376814Y-87182420D01*
X183634055Y-85925178D01*
X183695376Y-85891695D01*
X183760051Y-85894929D01*
X183866781Y-85929609D01*
X184094647Y-85965700D01*
X184094648Y-85965700D01*
X184325352Y-85965700D01*
X184325353Y-85965700D01*
X184553219Y-85929609D01*
X184772633Y-85858317D01*
X184978194Y-85753579D01*
X185164839Y-85617973D01*
X185327973Y-85454839D01*
X185463579Y-85268194D01*
X185568317Y-85062633D01*
X185630118Y-84872426D01*
X185669555Y-84814752D01*
X185733914Y-84787554D01*
X185795500Y-84796184D01*
X185876503Y-84829737D01*
X186031153Y-84860499D01*
X186031156Y-84860500D01*
X186031158Y-84860500D01*
X186188844Y-84860500D01*
X186188845Y-84860499D01*
X186343497Y-84829737D01*
X186489179Y-84769394D01*
X186620289Y-84681789D01*
X186731789Y-84570289D01*
X186819394Y-84439179D01*
X186879737Y-84293497D01*
X186910500Y-84138842D01*
X186910500Y-84138130D01*
X186911917Y-84132430D01*
X186928137Y-84104696D01*
X186943023Y-84076239D01*
X186944518Y-84074716D01*
X187652416Y-83366819D01*
X187713739Y-83333334D01*
X187740097Y-83330500D01*
X188422691Y-83330500D01*
X188489730Y-83350185D01*
G37*
%TD.AperFunction*%
%TA.AperFunction,Conductor*%
G36*
X190749625Y-83350185D02*
G01*
X190795380Y-83402989D01*
X190805324Y-83472147D01*
X190782904Y-83527385D01*
X190706847Y-83632067D01*
X190701281Y-83642991D01*
X190653304Y-83693784D01*
X190585482Y-83710575D01*
X190519348Y-83688033D01*
X190490482Y-83659574D01*
X190487745Y-83655807D01*
X190487744Y-83655806D01*
X189779494Y-84364056D01*
X189763381Y-84303919D01*
X189696502Y-84188080D01*
X189601920Y-84093498D01*
X189486081Y-84026619D01*
X189425941Y-84010504D01*
X190069628Y-83366819D01*
X190130951Y-83333334D01*
X190157309Y-83330500D01*
X190682586Y-83330500D01*
X190749625Y-83350185D01*
G37*
%TD.AperFunction*%
%TA.AperFunction,Conductor*%
G36*
X194228834Y-73222914D02*
G01*
X194284767Y-73264786D01*
X194309184Y-73330250D01*
X194309500Y-73339096D01*
X194309500Y-77000000D01*
X191000000Y-77000000D01*
X191000000Y-74100500D01*
X192913331Y-74100500D01*
X192913347Y-74100501D01*
X192920943Y-74100501D01*
X193079054Y-74100501D01*
X193079057Y-74100501D01*
X193231785Y-74059577D01*
X193231787Y-74059575D01*
X193231789Y-74059575D01*
X193231790Y-74059574D01*
X193283745Y-74029578D01*
X193283746Y-74029577D01*
X193368716Y-73980520D01*
X193480520Y-73868716D01*
X193480520Y-73868714D01*
X193490724Y-73858511D01*
X193490727Y-73858506D01*
X194097820Y-73251414D01*
X194159142Y-73217930D01*
X194228834Y-73222914D01*
G37*
%TD.AperFunction*%
%TA.AperFunction,Conductor*%
G36*
X172600896Y-63192310D02*
G01*
X172656075Y-63235171D01*
X172679322Y-63301060D01*
X172679500Y-63307702D01*
X172679500Y-67981662D01*
X172659815Y-68048701D01*
X172607011Y-68094456D01*
X172537853Y-68104400D01*
X172474297Y-68075375D01*
X172452398Y-68050554D01*
X172431398Y-68019126D01*
X172410520Y-67952449D01*
X172410500Y-67950234D01*
X172410500Y-63311880D01*
X172419441Y-63281429D01*
X172426743Y-63250524D01*
X172429217Y-63248136D01*
X172430185Y-63244841D01*
X172454167Y-63224059D01*
X172477021Y-63202007D01*
X172481401Y-63200461D01*
X172482989Y-63199086D01*
X172510304Y-63190264D01*
X172523166Y-63187704D01*
X172531305Y-63186086D01*
X172600896Y-63192310D01*
G37*
%TD.AperFunction*%
%TA.AperFunction,Conductor*%
G36*
X189801716Y-53901202D02*
G01*
X189806535Y-53905770D01*
X190412446Y-54511681D01*
X190445931Y-54573004D01*
X190448765Y-54599362D01*
X190448765Y-54951235D01*
X190429080Y-55018274D01*
X190376276Y-55064029D01*
X190324765Y-55075235D01*
X190196890Y-55075235D01*
X190042245Y-55105996D01*
X190042233Y-55105999D01*
X189896562Y-55166337D01*
X189896549Y-55166344D01*
X189765446Y-55253945D01*
X189765442Y-55253948D01*
X189742181Y-55277210D01*
X189680858Y-55310695D01*
X189611166Y-55305711D01*
X189555233Y-55263839D01*
X189530816Y-55198375D01*
X189530500Y-55189529D01*
X189530500Y-54089765D01*
X189535827Y-54071621D01*
X189536165Y-54052713D01*
X189549666Y-54024492D01*
X189550185Y-54022726D01*
X189551397Y-54020875D01*
X189551789Y-54020289D01*
X189615754Y-53924558D01*
X189669363Y-53879756D01*
X189738688Y-53871048D01*
X189801716Y-53901202D01*
G37*
%TD.AperFunction*%
%TD*%
M02*
